<svg class="icon" style="width: 1em;height: 1em;vertical-align: middle;fill: currentColor;overflow: hidden;" viewBox="0 0 1024 1024" version="1.1" xmlns="http://www.w3.org/2000/svg"><path d="M936.96 708.608v275.456c0 6.144-6.144 11.264-11.264 11.264H98.304c-6.144 0-11.264-6.144-11.264-11.264v-24.576c0-6.144 6.144-11.264 11.264-11.264h37.888l431.104-431.104L117.76 74.752c-1.024-2.048-3.072-6.144-3.072-8.192V39.936c0-6.144 5.12-11.264 10.24-11.264h800.768c6.144 0 11.264 6.144 11.264 11.264v275.456c0 6.144-6.144 11.264-11.264 11.264h-31.744c-6.144 0-11.264-6.144-11.264-11.264 0-114.688-66.56-212.992-191.488-212.992H370.688l363.52 363.52c4.096 4.096 4.096 11.264 0 14.336L377.856 835.584h313.344c81.92 0 154.624-54.272 181.248-131.072 2.048-4.096 6.144-8.192 11.264-8.192h43.008c5.12 1.024 10.24 6.144 10.24 12.288z" fill="#BABABA" /></svg>