<svg class="icon" style="width: 1em;height: 1em;vertical-align: middle;fill: currentColor;overflow: hidden;" viewBox="0 0 1024 1024" version="1.1" xmlns="http://www.w3.org/2000/svg"><path d="M634.88 858.112H390.144v-87.04c0-9.216 6.144-17.408 14.336-21.504L513.024 706.56l108.544 43.008c8.192 3.072 14.336 12.288 14.336 21.504-1.024 1.024-1.024 87.04-1.024 87.04z m147.456-577.536V119.808H860.16v-92.16H164.864v92.16h77.824v159.744c0 63.488 30.72 121.856 83.968 157.696L431.104 512l-106.496 73.728c-52.224 35.84-83.968 95.232-83.968 157.696v159.744H163.84v92.16h695.296v-92.16h-77.824V744.448c0-63.488-30.72-121.856-83.968-157.696L593.92 512l106.496-73.728c52.224-34.816 81.92-94.208 81.92-157.696zM648.192 661.504c27.648 18.432 43.008 50.176 43.008 82.944v159.744H333.824V744.448c0-32.768 16.384-64.512 43.008-82.944L512 568.32l136.192 93.184z m43.008-380.928c0 32.768-16.384 64.512-43.008 82.944L512 456.704l-135.168-94.208c-27.648-18.432-43.008-50.176-43.008-82.944V119.808h357.376v160.768z" fill="#9CCF40" /></svg>