<svg class="icon" style="width: 1em;height: 1em;vertical-align: middle;fill: currentColor;overflow: hidden;" viewBox="0 0 1024 1024" version="1.1" xmlns="http://www.w3.org/2000/svg"><path d="M872.448 41.984H294.912c-78.848 0-144.384 63.488-144.384 144.384v651.264H5.12c0 78.848 63.488 144.384 144.384 144.384h579.584c78.848 0 144.384-63.488 144.384-144.384V258.048h144.384v-71.68c-1.024-80.896-64.512-144.384-145.408-144.384z m-71.68 782.336c0 47.104-37.888 84.992-84.992 84.992H185.344c35.84-24.576 35.84-71.68 35.84-71.68V186.368c0-39.936 31.744-71.68 71.68-71.68s71.68 31.744 71.68 71.68v71.68H798.72l2.048 566.272zM439.296 186.368v-71.68h434.176c65.536 0 71.68 40.96 71.68 71.68H439.296z" fill="#BABABA" /><path d="M425.984 748.544c-7.168-6.144-15.36-11.264-20.48-20.48-7.168-7.168-13.312-17.408-18.432-24.576-13.312-18.432-24.576-39.936-29.696-62.464-9.216-26.624-13.312-51.2-13.312-74.752 0-26.624 6.144-51.2 17.408-69.632 7.168-15.36 20.48-28.672 35.84-37.888 15.36-9.216 31.744-15.36 49.152-15.36 6.144 0 13.312 0 18.432 2.048 6.144 2.048 11.264 4.096 18.432 6.144 9.216 4.096 15.36 6.144 17.408 6.144 6.144 2.048 9.216 4.096 13.312 4.096 2.048 0 7.168 0 11.264-2.048 2.048 0 7.168-2.048 13.312-6.144 7.168-2.048 11.264-4.096 17.408-6.144 6.144-2.048 13.312-4.096 18.432-4.096 7.168-2.048 13.312-2.048 20.48 0 13.312 0 22.528 4.096 33.792 7.168 17.408 7.168 31.744 18.432 43.008 33.792-4.096 2.048-9.216 6.144-13.312 9.216-7.168 7.168-15.36 17.408-20.48 26.624-7.168 13.312-11.264 28.672-11.264 43.008 0 18.432 6.144 35.84 15.36 49.152 7.168 9.216 15.36 18.432 26.624 26.624 6.144 4.096 9.216 6.144 15.36 7.168-2.048 6.144-4.096 13.312-7.168 18.432-6.144 13.312-13.312 26.624-20.48 39.936-7.168 11.264-13.312 18.432-17.408 24.576-7.168 7.168-13.312 15.36-20.48 18.432-11.264 4.096-20.48 7.168-28.672 7.168-6.144 0-11.264 0-17.408-2.048-6.144-2.048-9.216-4.096-15.36-6.144s-9.216-4.096-15.36-6.144c-6.144-2.048-13.312-2.048-20.48-2.048s-13.312 0-20.48 2.048c-6.144 2.048-11.264 4.096-15.36 6.144-7.168 4.096-11.264 6.144-15.36 6.144-6.144 2.048-11.264 2.048-17.408 4.096-9.216 0-18.432-2.048-26.624-8.192z m118.784-317.44c-11.264 6.144-22.528 7.168-33.792 7.168-2.048-11.264 0-22.528 4.096-35.84 4.096-11.264 9.216-20.48 17.408-28.672 7.168-9.216 17.408-17.408 28.672-22.528 11.264-6.144 22.528-9.216 31.744-9.216 2.048 11.264 0 22.528-4.096 35.84-4.096 11.264-9.216 20.48-17.408 29.696-7.168 10.24-17.408 18.432-26.624 23.552z" fill="#BABABA" /></svg>