<svg class="icon" style="width: 1em;height: 1em;vertical-align: middle;fill: currentColor;overflow: hidden;" viewBox="0 0 1024 1024" version="1.1" xmlns="http://www.w3.org/2000/svg"><path d="M122.88 264.192h122.88L369.664 757.76h-112.64l-20.48-104.448H133.12L112.64 757.76H0l122.88-493.568z m97.28 295.936l-18.432-97.28C194.56 430.08 186.368 378.88 186.368 378.88h-3.072s-7.168 53.248-13.312 83.968l-18.432 97.28h68.608z m207.872 60.416c18.432 21.504 49.152 41.984 80.896 41.984 30.72 0 45.056-18.432 45.056-41.984 0-67.584-164.864-73.728-164.864-215.04 0-83.968 57.344-147.456 155.648-147.456 39.936 0 83.968 11.264 117.76 34.816l-39.936 99.328c-16.384-15.36-50.176-30.72-73.728-30.72-31.744 0-45.056 18.432-45.056 41.984 0 71.68 164.864 68.608 164.864 211.968 0 80.896-50.176 151.552-152.576 151.552-49.152 0-99.328-16.384-137.216-50.176-1.024-1.024 49.152-96.256 49.152-96.256z m291.84-356.352h154.624c91.136 0 149.504 70.656 149.504 169.984s-60.416 171.008-149.504 171.008h-41.984V757.76h-112.64V264.192z m134.144 241.664c34.816 0 55.296-30.72 55.296-70.656s-23.552-68.608-53.248-68.608h-23.552v139.264h21.504z" fill="#FF0000" /></svg>