<svg class="icon" style="width: 1em;height: 1em;vertical-align: middle;fill: currentColor;overflow: hidden;" viewBox="0 0 1024 1024" version="1.1" xmlns="http://www.w3.org/2000/svg"><path d="M815.104 952.32c101.376 1.024 192.512-110.592 192.512-247.808C1007.616 593.92 952.32 484.352 870.4 456.704v-82.944C870.4 219.136 708.608 71.68 512 71.68S150.528 220.16 150.528 374.784v81.92C71.68 484.352 16.384 567.296 16.384 704.512S99.328 952.32 208.896 952.32V374.784C208.896 242.688 337.92 126.976 512 126.976s303.104 116.736 303.104 247.808" fill="#1493F6" /><path d="M759.808 704.512l-82.944-164.864-81.92 192.512L512 456.704l-82.944 275.456-86.016-192.512-78.848 164.864v55.296l78.848-137.216 86.016 220.16L512 622.592l82.944 220.16 81.92-220.16 82.944 137.216z" fill="#FFC300" /><path d="M815.104 456.704c-15.36 0-44.032 13.312-55.296 27.648v440.32c12.288 10.24 39.936 24.576 55.296 27.648V456.704z m-606.208 0V952.32c17.408 1.024 45.056-13.312 55.296-27.648v-440.32c-12.288-11.264-39.936-25.6-55.296-27.648z" fill="#404CB8" /></svg>