<svg class="icon" style="width: 1em;height: 1em;vertical-align: middle;fill: currentColor;overflow: hidden;" viewBox="0 0 1024 1024" version="1.1" xmlns="http://www.w3.org/2000/svg"><path d="M293.888 908.288c-44.032-50.176-89.088-103.424-116.736-165.888-28.672-66.56-35.84-143.36-22.528-216.064s46.08-141.312 93.184-199.68c-4.096 50.176 14.336 103.424 48.128 141.312-20.48-97.28 12.288-201.728 76.8-278.528s153.6-126.976 246.784-161.792c-46.08 48.128-52.224 124.928-34.816 189.44 18.432 64.512 56.32 120.832 91.136 179.2 34.816 58.368 66.56 118.784 68.608 185.344 18.432-34.816 37.888-68.608 50.176-106.496 12.288-37.888 18.432-78.848 8.192-116.736 35.84 44.032 56.32 89.088 66.56 145.408s8.192 114.688 2.048 172.032c-8.192 62.464-24.576 126.976-58.368 179.2-40.96 63.488-105.472 107.52-176.128 132.096-124.928 22.528-247.808 4.096-343.04-78.848z" fill="#F3705A" /><path d="M447.488 983.04c165.888 64.512 328.704-131.072 238.592-282.624 0-2.048-2.048-2.048-2.048-4.096 8.192 82.944-12.288 143.36-50.176 177.152 20.48-48.128 6.144-105.472-18.432-153.6-24.576-46.08-58.368-89.088-84.992-133.12-26.624-46.08-46.08-99.328-34.816-151.552-48.128 35.84-82.944 91.136-97.28 149.504s-6.144 122.88 20.48 177.152c-30.72-22.528-52.224-58.368-54.272-97.28-32.768 37.888-52.224 89.088-50.176 139.264 0 79.872 62.464 150.528 133.12 179.2z" fill="#FFD15C" /></svg>