<svg class="icon" style="width: 1em;height: 1em;vertical-align: middle;fill: currentColor;overflow: hidden;" viewBox="0 0 1024 1024" version="1.1" xmlns="http://www.w3.org/2000/svg"><path d="M978.944 502.784c-50.176-48.128-300.032-77.824-378.88-86.016 4.096-9.216 7.168-18.432 10.24-27.648 10.24-5.12 22.528-9.216 33.792-12.288 1.024 4.096 8.192 20.48 12.288 28.672 159.744 3.072 167.936-118.784 174.08-153.6 6.144-32.768 6.144-64.512 60.416-122.88-80.896-23.552-197.632 36.864-236.544 126.976-14.336-5.12-28.672-9.216-44.032-12.288-10.24-41.984-64.512-159.744-206.848-159.744-92.16 0-185.344 37.888-254.976 104.448-37.888 35.84-67.584 78.848-88.064 126.976-22.528 51.2-33.792 109.568-33.792 169.984 0 211.968 144.384 397.312 226.304 397.312 35.84 0 65.536-26.624 73.728-50.176 6.144 16.384 24.576 67.584 30.72 79.872 9.216 19.456 50.176 35.84 68.608 15.36 23.552 13.312 65.536 20.48 89.088-13.312 45.056 9.216 84.992-17.408 84.992-49.152 21.504-1.024 32.768-31.744 27.648-56.32-3.072-18.432-40.96-82.944-56.32-105.472 29.696 23.552 103.424 30.72 113.664 0 47.104 36.864 121.856 17.408 126.976-12.288 57.344 14.336 123.904-17.408 113.664-57.344 92.16-8.192 80.896-105.472 53.248-131.072zM738.304 339.968c-24.576-9.216-55.296-15.36-76.8-15.36-30.72 0-49.152 17.408-77.824 17.408-6.144 0-20.48 0-31.744-4.096 7.168 8.192 17.408 12.288 35.84 12.288 11.264 0 32.768-5.12 50.176-11.264 0 4.096 1.024 7.168 1.024 11.264-32.768 8.192-67.584 28.672-77.824 33.792-22.528-49.152-3.072-95.232 14.336-117.76 79.872 0 143.36 55.296 162.816 73.728z m34.816-4.096l-12.288-11.264c-12.288-11.264-25.6-22.528-38.912-31.744 19.456-38.912 45.056-81.92 75.776-109.568-34.816 14.336-68.608 55.296-89.088 100.352-10.24-6.144-20.48-12.288-31.744-17.408 28.672-60.416 93.184-111.616 166.912-115.712-47.104 45.056-28.672 134.144-70.656 185.344z m-99.328 40.96c-5.12-11.264-10.24-30.72-10.24-41.984 9.216 0 26.624 3.072 28.672 4.096-1.024 5.12-2.048 17.408-2.048 18.432 2.048-3.072 6.144-13.312 8.192-17.408 17.408 3.072 39.936 9.216 53.248 15.36-14.336 10.24-40.96 21.504-77.824 21.504z m-286.72-77.824c-19.456-7.168-19.456-24.576 0-31.744 19.456-7.168 44.032 2.048 44.032 15.36 1.024 14.336-23.552 22.528-44.032 16.384z m65.536 6.144c0-38.912-41.984-63.488-75.776-44.032-24.576 14.336-32.768 45.056-18.432 68.608 4.096 7.168 11.264 14.336 18.432 18.432 33.792 19.456 75.776-4.096 75.776-43.008z m113.664-64.512c-63.488 63.488-37.888 145.408-15.36 182.272-32.768 54.272-97.28 91.136-173.056 109.568 83.968 0 134.144-21.504 162.816-43.008 18.432-13.312 28.672-26.624 32.768-33.792 124.928 8.192 321.536 48.128 342.016 61.44 7.168 5.12 15.36 16.384 16.384 27.648-93.184-13.312-262.144-26.624-306.176-28.672 31.744 4.096 260.096 48.128 300.032 57.344-12.288 19.456-39.936 33.792-80.896 23.552 22.528 30.72-20.48 66.56-80.896 47.104 13.312 29.696-39.936 56.32-101.376 25.6 1.024 29.696-75.776 33.792-106.496 0 1.024 4.096 4.096 11.264 6.144 14.336-9.216 87.04-80.896 142.336-155.648 142.336-180.224 0-336.896-146.432-336.896-340.992 0-205.824 152.576-359.424 335.872-359.424 102.4 1.024 149.504 82.944 160.768 114.688z" fill="#BABABA" /></svg>