<svg class="icon" style="width: 1em;height: 1em;vertical-align: middle;fill: currentColor;overflow: hidden;" viewBox="0 0 1024 1024" version="1.1" xmlns="http://www.w3.org/2000/svg"><path d="M512 28.03712c-267.264 0-483.328 217.088-483.328 484.352s217.088 483.328 483.328 483.328 483.328-217.088 483.328-483.328-216.064-484.352-483.328-484.352z m-33.792 73.728v151.552H361.472c26.624-77.824 67.584-134.144 116.736-151.552z m67.584 0c50.176 17.408 90.112 74.752 116.736 151.552H545.792v-151.552z m-189.44 24.576c-24.576 34.816-46.08 77.824-62.464 126.976H186.368c44.032-56.32 102.4-100.352 169.984-126.976z m311.296 0c67.584 26.624 125.952 70.656 169.984 126.976H730.112c-16.384-49.152-37.888-92.16-62.464-126.976z m-525.312 193.536h132.096c-11.264 49.152-18.432 102.4-20.48 157.696H97.28c4.096-56.32 20.48-109.568 45.056-157.696z m198.656 0h137.216v157.696H321.536c2.048-55.296 8.192-108.544 19.456-157.696z m204.8 0h137.216c11.264 48.128 18.432 102.4 20.48 157.696H545.792v-157.696z m203.776 0h132.096c24.576 48.128 40.96 101.376 45.056 157.696H770.048c-2.048-55.296-9.216-108.544-20.48-157.696z m-652.288 225.28h156.672c2.048 55.296 9.216 108.544 20.48 157.696H142.336c-24.576-48.128-40.96-101.376-45.056-157.696z m224.256 0h156.672v157.696H340.992c-10.24-48.128-17.408-102.4-19.456-157.696z m224.256 0h156.672c-2.048 55.296-9.216 108.544-20.48 157.696H545.792v-157.696z m224.256 0h156.672c-4.096 56.32-20.48 109.568-45.056 157.696H749.568c11.264-49.152 18.432-101.376 20.48-157.696z m-584.704 225.28h107.52c16.384 49.152 37.888 92.16 62.464 128-66.56-27.648-124.928-71.68-169.984-128z m175.104 0h117.76v151.552c-50.176-17.408-90.112-73.728-117.76-151.552z m185.344 0h117.76c-27.648 77.824-67.584 134.144-117.76 151.552v-151.552z m185.344 0h107.52c-44.032 56.32-103.424 100.352-171.008 128 24.576-35.84 46.08-78.848 63.488-128z" fill="#BABABA" /></svg>