<svg class="icon" style="width: 1em;height: 1em;vertical-align: middle;fill: currentColor;overflow: hidden;" viewBox="0 0 1024 1024" version="1.1" xmlns="http://www.w3.org/2000/svg"><path d="M851.968 512c138.24 191.488 51.2 439.296-183.296 492.544-114.688-163.84 66.56-311.296 183.296-492.544z m-614.4 443.392l7.168 4.096c43.008 27.648 92.16 44.032 143.36 48.128-45.056-93.184-36.864-202.752 21.504-288.768l163.84-240.64c90.112-135.168 54.272-318.464-80.896-408.576l-6.144-4.096c-43.008-27.648-92.16-44.032-143.36-48.128 45.056 93.184 36.864 202.752-21.504 288.768L155.648 546.816c-90.112 135.168-54.272 318.464 81.92 408.576z m422.912-278.528c1.024 0 47.104-63.488 71.68-100.352l69.632-102.4c84.992-123.904-62.464-224.256-83.968-226.304 18.432 38.912 1.024 115.712-24.576 153.6l-69.632 102.4c-36.864 57.344-21.504 135.168 36.864 173.056z m140.288-202.752" fill="#BABABA" /></svg>