<svg class="icon" style="width: 1em;height: 1em;vertical-align: middle;fill: currentColor;overflow: hidden;" viewBox="0 0 1024 1024" version="1.1" xmlns="http://www.w3.org/2000/svg"><path d="M829.44 95.232v66.56H712.704V95.232H311.296v66.56H194.56V95.232H61.44v183.296h901.12V95.232z" fill="#F44336" /><path d="M194.56 278.528H61.44v716.8h901.12v-716.8H311.296z" fill="#CFD8DC" /><path d="M194.56 28.672h116.736v133.12H194.56z m518.144 0H829.44v133.12H712.704z" fill="#E8E8E8" /><path d="M194.56 407.552h115.712V522.24H194.56V407.552z m173.056 0h115.712V522.24H367.616V407.552z m173.056 0h115.712V522.24H540.672V407.552z m173.056 0H829.44V522.24H713.728V407.552zM194.56 580.608h115.712V696.32H194.56V580.608z m173.056 0h115.712V696.32H367.616V580.608z m173.056 0h115.712V696.32H540.672V580.608z m173.056 0H829.44V696.32H713.728V580.608zM194.56 752.64h115.712v115.712H194.56V752.64z m173.056 0h115.712v115.712H367.616V752.64z m173.056 0h115.712v115.712H540.672V752.64z m173.056 0H829.44v115.712H713.728V752.64z" fill="#90A4AE" /></svg>