<svg class="icon" style="width: 1em;height: 1em;vertical-align: middle;fill: currentColor;overflow: hidden;" viewBox="0 0 1024 1024" version="1.1" xmlns="http://www.w3.org/2000/svg"><path d="M530.432 758.784c0-137.216 111.616-248.832 248.832-248.832 60.416 0 116.736 21.504 159.744 58.368 26.624-204.8-89.088-408.576-289.792-485.376-235.52-90.112-500.736 27.648-590.848 263.168s27.648 500.736 263.168 590.848c98.304 37.888 201.728 38.912 295.936 11.264-53.248-46.08-87.04-113.664-87.04-189.44z m97.28-618.496c41.984 16.384 79.872 39.936 111.616 68.608l-153.6 152.576c-10.24-8.192-22.528-14.336-35.84-19.456-13.312-5.12-26.624-8.192-38.912-9.216l-12.288-216.064c43.008 0 86.016 7.168 129.024 23.552zM344.064 878.592c-41.984-16.384-79.872-39.936-111.616-68.608l153.6-152.576c10.24 8.192 22.528 14.336 35.84 19.456 13.312 5.12 26.624 8.192 38.912 9.216l12.288 216.064c-43.008 0-87.04-7.168-129.024-23.552z m107.52-280.576c-49.152-18.432-72.704-73.728-54.272-121.856 18.432-49.152 73.728-72.704 121.856-54.272 49.152 18.432 72.704 73.728 54.272 121.856-18.432 48.128-72.704 72.704-121.856 54.272z" fill="#CC66FF" /><path d="M784.384 548.864c-116.736 0-211.968 95.232-211.968 211.968 0 116.736 95.232 211.968 211.968 211.968s211.968-95.232 211.968-211.968c0-117.76-95.232-211.968-211.968-211.968z m0 371.712c-88.064 0-159.744-71.68-159.744-159.744s71.68-159.744 159.744-159.744 159.744 71.68 159.744 159.744-71.68 159.744-159.744 159.744z" fill="#CC66FF" /><path d="M809.984 818.176c0 31.744-25.6 58.368-58.368 58.368s-58.368-26.624-58.368-58.368 25.6-58.368 58.368-58.368 58.368 26.624 58.368 58.368z" fill="#CC66FF" /><path d="M874.496 667.648l-91.136-24.576v175.104H808.96v-122.88l64.512 18.432v-46.08z" fill="#CC66FF" /></svg>