<svg class="icon" style="width: 1em;height: 1em;vertical-align: middle;fill: currentColor;overflow: hidden;" viewBox="0 0 1024 1024" version="1.1" xmlns="http://www.w3.org/2000/svg"><path d="M388.096 947.2c-194.56 0-281.6-186.368-281.6-388.096s87.04-386.048 281.6-386.048c60.416 0 109.568 14.336 147.456 41.984l-25.6 61.44c-26.624-18.432-68.608-30.72-110.592-30.72-136.192 0-188.416 157.696-188.416 315.392 0 155.648 54.272 312.32 188.416 312.32 41.984 0 82.944-14.336 110.592-30.72l25.6 65.536c-38.912 22.528-88.064 38.912-147.456 38.912z m425.984-540.672v530.432h-96.256V406.528h-66.56v-60.416h66.56v-82.944c0-112.64 61.44-186.368 179.2-186.368 8.192 0 8.192 0 20.48 2.048v61.44h-8.192c-51.2 0-95.232 25.6-95.232 119.808v87.04h103.424v60.416c0-1.024-103.424-1.024-103.424-1.024z" fill="#A0C0F9" /></svg>