<svg class="icon" style="width: 1em;height: 1em;vertical-align: middle;fill: currentColor;overflow: hidden;" viewBox="0 0 1024 1024" version="1.1" xmlns="http://www.w3.org/2000/svg"><path d="M995.328 621.568V402.432l-109.568-12.288c-6.144-20.48-14.336-39.936-24.576-58.368l68.608-86.016L777.216 93.184l-86.016 68.608c-18.432-9.216-37.888-17.408-58.368-24.576L620.544 27.648H402.432l-12.288 109.568c-20.48 6.144-39.936 14.336-58.368 24.576L245.76 93.184l-152.576 153.6 68.608 86.016c-9.216 18.432-17.408 37.888-24.576 58.368L28.672 402.432v218.112l109.568 12.288c6.144 20.48 14.336 39.936 24.576 58.368l-68.608 86.016L248.832 931.84l86.016-68.608c18.432 9.216 37.888 17.408 58.368 24.576l12.288 109.568h218.112l12.288-109.568c20.48-6.144 39.936-14.336 58.368-24.576l86.016 68.608 154.624-154.624-68.608-86.016c9.216-18.432 17.408-37.888 24.576-58.368l104.448-11.264zM512 789.504C359.424 789.504 234.496 665.6 234.496 512S359.424 234.496 512 234.496C664.576 234.496 789.504 358.4 789.504 512S664.576 789.504 512 789.504z" fill="#C19770" /></svg>