<svg class="icon" style="width: 1em;height: 1em;vertical-align: middle;fill: currentColor;overflow: hidden;" viewBox="0 0 1024 1024" version="1.1" xmlns="http://www.w3.org/2000/svg"><path d="M404.48 240.64c91.136-7.168 117.76-65.536 225.28-76.8 52.224-5.12 86.016 7.168 89.088 24.576 3.072 17.408-23.552 28.672-55.296 31.744-45.056 5.12-62.464-12.288-65.536-26.624-31.744 3.072-37.888 17.408-35.84 26.624 3.072 19.456 43.008 37.888 110.592 30.72 76.8-7.168 101.376-35.84 94.208-65.536-7.168-38.912-66.56-71.68-171.008-62.464-135.168 12.288-134.144 74.752-226.304 81.92-37.888 3.072-59.392-5.12-62.464-19.456-2.048-14.336 16.384-21.504 37.888-23.552 19.456-2.048 45.056 2.048 57.344 7.168 9.216-5.12 12.288-9.216 10.24-14.336-3.072-14.336-31.744-19.456-66.56-17.408-67.584 7.168-67.584 37.888-65.536 50.176 8.192 34.816 60.416 58.368 123.904 53.248z m459.776 153.6c-83.968 19.456-192.512 31.744-323.584 31.744-132.096 0-240.64-14.336-324.608-31.744-74.752-19.456-115.712-40.96-130.048-62.464 7.168 50.176 19.456 96.256 35.84 142.336-19.456 12.288-37.888 26.624-52.224 46.08-30.72 37.888-43.008 81.92-40.96 124.928 2.048 43.008 23.552 78.848 57.344 105.472 35.84 26.624 72.704 35.84 115.712 26.624 16.384-2.048 35.84-12.288 52.224-16.384-35.84 0-64.512-12.288-94.208-35.84-31.744-23.552-55.296-57.344-59.392-96.256-7.168-37.888 0-72.704 21.504-103.424 5.12-7.168 9.216-10.24 14.336-16.384 12.288 30.72 24.576 57.344 40.96 86.016 31.744 50.176 64.512 93.184 96.256 139.264 14.336 26.624 23.552 55.296 30.72 81.92 21.504 30.72 52.224 50.176 89.088 62.464 46.08 16.384 94.208 23.552 144.384 23.552h5.12c50.176 0 101.376-7.168 148.48-23.552 35.84-12.288 64.512-31.744 87.04-62.464h2.048c5.12-23.552 14.336-53.248 26.624-79.872 31.744-46.08 64.512-89.088 96.256-139.264 43.008-78.848 72.704-167.936 89.088-262.144-14.336 21.504-55.296 43.008-128 59.392z m-647.168-67.584C301.056 348.16 409.6 358.4 540.672 358.4c132.096 0 237.568-12.288 323.584-31.744 89.088-21.504 132.096-50.176 132.096-74.752 0-19.456-19.456-37.888-55.296-52.224 7.168 5.12 14.336 14.336 14.336 23.552 0 26.624-40.96 50.176-121.856 67.584-74.752 16.384-171.008 28.672-288.768 28.672-114.688 0-214.016-12.288-287.744-26.624-78.848-19.456-119.808-40.96-119.808-67.584 0-12.288 5.12-21.504 21.504-31.744-50.176 19.456-74.752 35.84-74.752 59.392 0 26.624 43.008 53.248 133.12 73.728z" fill="#90A0BA" /></svg>