<svg class="icon" style="width: 1em;height: 1em;vertical-align: middle;fill: currentColor;overflow: hidden;" viewBox="0 0 1024 1024" version="1.1" xmlns="http://www.w3.org/2000/svg"><path d="M195.584 660.48c-49.152 13.312-86.016 57.344-86.016 111.616 0 53.248 36.864 98.304 86.016 111.616V972.8h57.344v-90.112c49.152-13.312 86.016-57.344 86.016-111.616 0-53.248-36.864-98.304-86.016-111.616V51.2h-57.344v609.28z m86.016 110.592c0 31.744-25.6 57.344-57.344 57.344s-57.344-25.6-57.344-57.344 25.6-57.344 57.344-57.344 57.344 25.6 57.344 57.344z m115.712-518.144c0 53.248 36.864 98.304 86.016 111.616V972.8h57.344V363.52c49.152-13.312 86.016-57.344 86.016-111.616s-36.864-98.304-86.016-111.616V51.2h-57.344v90.112c-50.176 13.312-86.016 58.368-86.016 111.616z m172.032 0c0 31.744-25.6 57.344-57.344 57.344s-57.344-25.6-57.344-57.344 25.6-57.344 57.344-57.344 57.344 25.6 57.344 57.344z m115.712 345.088c0 53.248 36.864 98.304 86.016 111.616V972.8h57.344V709.632c49.152-13.312 86.016-57.344 86.016-111.616s-36.864-98.304-86.016-111.616V51.2h-57.344v436.224c-49.152 12.288-86.016 57.344-86.016 110.592z m173.056 0c0 31.744-25.6 57.344-57.344 57.344-31.744 0-57.344-25.6-57.344-57.344 0-31.744 25.6-57.344 57.344-57.344 30.72 0 57.344 25.6 57.344 57.344z" fill="#BABABA" /></svg>