<svg class="icon" style="width: 1em;height: 1em;vertical-align: middle;fill: currentColor;overflow: hidden;" viewBox="0 0 1024 1024" version="1.1" xmlns="http://www.w3.org/2000/svg"><path d="M476.16 777.216v-90.112c0-8.192-3.072-8.192-7.168-5.12-31.744 10.24-61.44 14.336-105.472 14.336-97.28 0-215.04-61.44-215.04-268.288 0-167.936 86.016-265.216 215.04-265.216 45.056 0 84.992 8.192 111.616 20.48 3.072 1.024 8.192 1.024 8.192-8.192V78.848c0-6.144-1.024-10.24-7.168-12.288-20.48-10.24-61.44-15.36-113.664-15.36-204.8 1.024-337.92 152.576-337.92 377.856 0 263.168 151.552 375.808 323.584 375.808 47.104 0 93.184-5.12 121.856-16.384 4.096-1.024 6.144-5.12 6.144-11.264z m214.016-417.792c17.408-5.12 34.816-8.192 58.368-8.192 83.968 0 132.096 59.392 132.096 167.936C879.616 653.312 802.816 706.56 727.04 706.56c-12.288 0-26.624-1.024-35.84-5.12l-1.024-342.016z m70.656-112.64c-77.824 0-144.384 22.528-189.44 36.864-2.048 1.024-9.216 8.192-9.216 9.216 2.048 15.36 6.144 40.96 6.144 53.248v618.496c0 5.12 5.12 7.168 10.24 7.168l104.448-10.24c5.12-1.024 5.12-6.144 5.12-10.24V806.912c10.24 1.024 22.528 0 30.72 0 141.312 0 279.552-98.304 279.552-296.96 2.048-150.528-80.896-263.168-237.568-263.168z" fill="#5FB66B" /></svg>