<svg class="icon" style="width: 1em;height: 1em;vertical-align: middle;fill: currentColor;overflow: hidden;" viewBox="0 0 1024 1024" version="1.1" xmlns="http://www.w3.org/2000/svg"><path d="M144.384 196.608c225.28-262.144 643.072-209.92 798.72 96.256H568.32c-67.584 0-111.616-1.024-158.72 23.552-55.296 29.696-97.28 82.944-111.616 147.456l-153.6-267.264z" fill="#F44336" /><path d="M351.232 512c0 89.088 72.704 160.768 160.768 160.768s160.768-71.68 160.768-160.768-71.68-160.768-160.768-160.768-160.768 71.68-160.768 160.768z" fill="#2196F3" /><path d="M574.464 722.944c-90.112 26.624-196.608-3.072-253.952-103.424-44.032-75.776-160.768-279.552-214.016-371.712C-79.872 532.48 80.896 920.576 417.792 987.136l156.672-264.192z" fill="#4CAF50" /><path d="M661.504 351.232c74.752 69.632 92.16 183.296 40.96 271.36-38.912 65.536-161.792 272.384-221.184 372.736 348.16 21.504 601.088-319.488 486.4-644.096H661.504z" fill="#FFC107" /></svg>