<svg class="icon" style="width: 1em;height: 1em;vertical-align: middle;fill: currentColor;overflow: hidden;" viewBox="0 0 1024 1024" version="1.1" xmlns="http://www.w3.org/2000/svg"><path d="M862.208 173.056c-56.32 0-41.984 56.32-51.2 80.896-5.12 11.264-11.264 24.576-17.408 40.96l5.12-11.264c-3.072 8.192-6.144 11.264-15.36 17.408 0 0-36.864 23.552-74.752 45.056-40.96-69.632-116.736-113.664-197.632-113.664S352.256 276.48 312.32 346.112c-35.84-21.504-74.752-45.056-74.752-45.056-9.216-6.144-12.288-9.216-15.36-17.408l5.12 11.264c-6.144-15.36-12.288-29.696-17.408-40.96-9.216-24.576 5.12-80.896-51.2-80.896s-47.104 76.8-62.464 105.472C84.992 296.96 51.2 315.392 36.864 340.992c-2.048 2.048-2.048 3.072-3.072 5.12-6.144 12.288-6.144 24.576 2.048 40.96 27.648 48.128 68.608 8.192 95.232 5.12 11.264-2.048 27.648-3.072 44.032-5.12L163.84 389.12c8.192-2.048 12.288 0 23.552 5.12 0 0 41.984 23.552 96.256 53.248v14.336c0 41.984 12.288 83.968 33.792 119.808-72.704 44.032-137.216 83.968-137.216 83.968-9.216 6.144-14.336 6.144-21.504 6.144h9.216-40.96c-24.576-2.048-59.392-30.72-90.112 12.288s33.792 62.464 47.104 83.968c12.288 23.552-3.072 89.088 50.176 82.944 53.248-5.12 44.032-50.176 56.32-72.704 5.12-9.216 12.288-21.504 20.48-35.84l-6.144 7.168c3.072-6.144 6.144-9.216 17.408-15.36 0 0 60.416-32.768 132.096-72.704v99.328c18.432 8.192 36.864 12.288 57.344 17.408v-54.272c9.216 2.048 18.432 5.12 27.648 6.144v54.272c18.432 3.072 38.912 5.12 57.344 6.144V737.28h27.648v53.248c18.432 0 38.912-3.072 57.344-5.12v-54.272c11.264-2.048 20.48-5.12 27.648-6.144v54.272c20.48-5.12 38.912-11.264 57.344-17.408v-99.328c71.68 38.912 132.096 72.704 132.096 72.704 9.216 6.144 12.288 9.216 17.408 15.36 6.144 11.264 11.264 20.48 15.36 26.624 12.288 21.504 3.072 66.56 56.32 72.704 53.248 5.12 35.84-60.416 50.176-82.944 12.288-23.552 77.824-40.96 47.104-83.968-30.72-44.032-65.536-12.288-90.112-12.288h-40.96 9.216c-8.192 0-12.288-2.048-21.504-6.144 0 0-63.488-38.912-137.216-83.968 23.552-35.84 33.792-77.824 35.84-119.808v-14.336c54.272-29.696 96.256-53.248 96.256-53.248 9.216-6.144 14.336-6.144 23.552-5.12l-11.264-2.048c17.408 3.072 32.768 3.072 44.032 5.12 26.624 5.12 66.56 45.056 95.232-5.12 27.648-48.128-44.032-77.824-60.416-107.52-11.264-18.432-11.264-57.344-23.552-82.944-2.048-2.048-2.048-3.072-3.072-5.12-10.24-11.264-20.48-17.408-38.912-17.408zM425.984 436.224c5.12 0 9.216 0 14.336 2.048 30.72 8.192 38.912 36.864 30.72 68.608-8.192 30.72-40.96 50.176-71.68 40.96-30.72-8.192-40.96-36.864-30.72-68.608 6.144-25.6 30.72-43.008 57.344-43.008z m167.936 0c26.624 0 51.2 17.408 57.344 44.032 8.192 30.72 0 60.416-30.72 68.608-30.72 8.192-63.488-9.216-71.68-40.96-8.192-30.72 0-60.416 30.72-68.608 5.12-1.024 9.216-3.072 14.336-3.072z m-83.968 146.432c8.192 0 47.104 48.128 41.984 54.272-5.12 5.12-79.872 5.12-83.968 0-5.12-6.144 33.792-54.272 41.984-54.272z" fill="#BABABA" /></svg>