<svg class="icon" style="width: 1em;height: 1em;vertical-align: middle;fill: currentColor;overflow: hidden;" viewBox="0 0 1024 1024" version="1.1" xmlns="http://www.w3.org/2000/svg"><path d="M934.912 588.8c37.888 36.864 61.44 88.064 61.44 145.408 0 110.592-90.112 200.704-200.704 200.704-111.616 0-201.728-90.112-201.728-201.728 0-8.192 0-15.36 1.024-23.552C607.232 610.304 692.224 532.48 795.648 532.48c53.248 0 102.4 21.504 139.264 56.32z" fill="#F78B7F" /><path d="M950.272 512c0 16.384-2.048 31.744-5.12 46.08-41.984-35.84-94.208-55.296-149.504-55.296-116.736 0-215.04 87.04-228.352 203.776v3.072H186.368c-88.064 0-158.72-70.656-158.72-158.72 0-68.608 43.008-125.952 103.424-148.48v-10.24c0-80.896 65.536-147.456 147.456-147.456 25.6 0 50.176 7.168 71.68 18.432 22.528-100.352 112.64-175.104 220.16-175.104 124.928 0 225.28 101.376 225.28 225.28v4.096c88.064 20.48 154.624 100.352 154.624 194.56z" fill="#29D1ED" /><path d="M900.096 736.256l-102.4 102.4-101.376-102.4h60.416v-143.36H839.68v143.36z" fill="#FFFFFF" /></svg>