<svg class="icon" style="width: 1em;height: 1em;vertical-align: middle;fill: currentColor;overflow: hidden;" viewBox="0 0 1024 1024" version="1.1" xmlns="http://www.w3.org/2000/svg"><path d="M940.032 80.896H86.016c-32.768 0-58.368 25.6-58.368 58.368v592.896c0 32.768 25.6 58.368 58.368 58.368h852.992c32.768 0 58.368-25.6 58.368-58.368v-593.92c1.024-31.744-24.576-57.344-57.344-57.344z" fill="#BABABA" /><path d="M86.016 223.232h855.04v505.856H86.016V223.232z" fill="#F2F2F2" /><path d="M240.64 156.672m-18.432 0a18.432 18.432 0 1 0 36.864 0 18.432 18.432 0 1 0-36.864 0Z" fill="#54B845" /><path d="M174.08 156.672m-18.432 0a18.432 18.432 0 1 0 36.864 0 18.432 18.432 0 1 0-36.864 0Z" fill="#FBD303" /><path d="M109.568 156.672m-18.432 0a18.432 18.432 0 1 0 36.864 0 18.432 18.432 0 1 0-36.864 0Z" fill="#F0582F" /><path d="M801.792 601.088l-56.32-15.36c-5.12-23.552-15.36-46.08-27.648-66.56l28.672-49.152c3.072-5.12 2.048-13.312-2.048-17.408l-40.96-40.96c-5.12-5.12-12.288-5.12-17.408-2.048l-49.152 28.672c-20.48-12.288-43.008-22.528-66.56-27.648l-15.36-56.32c-2.048-7.168-7.168-10.24-13.312-10.24h-58.368c-7.168 0-12.288 5.12-13.312 10.24l-17.408 54.272c-23.552 5.12-46.08 15.36-66.56 27.648l-51.2-27.648c-5.12-3.072-13.312-2.048-17.408 2.048l-40.96 40.96c-5.12 5.12-5.12 12.288-2.048 17.408l28.672 49.152c-12.288 20.48-22.528 43.008-27.648 66.56l-56.32 15.36c-7.168 2.048-10.24 7.168-10.24 13.312v58.368c0 7.168 5.12 12.288 10.24 13.312l56.32 15.36c5.12 23.552 15.36 46.08 27.648 66.56l-28.672 51.2c-3.072 5.12-2.048 13.312 2.048 17.408l40.96 40.96c5.12 5.12 12.288 5.12 17.408 2.048l49.152-28.672c20.48 12.288 43.008 22.528 66.56 27.648l15.36 56.32c2.048 7.168 7.168 10.24 13.312 10.24h58.368c7.168 0 12.288-5.12 13.312-10.24l15.36-56.32c23.552-5.12 46.08-15.36 66.56-27.648l49.152 28.672c5.12 3.072 13.312 2.048 17.408-2.048l40.96-40.96c5.12-5.12 5.12-12.288 2.048-17.408l-28.672-49.152c12.288-20.48 22.528-43.008 27.648-66.56l56.32-15.36c7.168-2.048 10.24-7.168 10.24-13.312V614.4c4.096-4.096 1.024-9.216-6.144-13.312zM513.024 752.64c-59.392 0-107.52-48.128-107.52-107.52s48.128-107.52 107.52-107.52S620.544 585.728 620.544 645.12c0 60.416-48.128 107.52-107.52 107.52z" fill="#6EB1E1" /></svg>