<svg class="icon" style="width: 1em;height: 1em;vertical-align: middle;fill: currentColor;overflow: hidden;" viewBox="0 0 1024 1024" version="1.1" xmlns="http://www.w3.org/2000/svg"><path d="M200.704 370.688l411.648-68.608 15.36 66.56L215.04 439.296l-14.336-68.608z m53.248 244.736l207.872-38.912v-56.32c0-5.12 0-10.24 2.048-15.36l-223.232 41.984 13.312 68.608z m40.96 178.176l168.96-33.792v-72.704l-185.344 34.816 16.384 71.68zM251.904 911.36L114.688 282.624l538.624-86.016L697.344 389.12c10.24 0 19.456-2.048 29.696-2.048L647.168 27.648 46.08 115.712 229.376 952.32l234.496-49.152v-3.072l-2.048-29.696-209.92 40.96z" fill="#3399CC" /><path d="M740.352 427.008c-130.048 0-237.568 41.984-237.568 95.232v95.232c0 53.248 105.472 95.232 237.568 95.232 130.048 0 237.568-41.984 237.568-95.232V522.24c-2.048-52.224-107.52-95.232-237.568-95.232z m0 165.888c-130.048 0-212.992-41.984-212.992-70.656 0-28.672 82.944-70.656 212.992-70.656 130.048 0 212.992 41.984 212.992 70.656 0 28.672-82.944 70.656-212.992 70.656z m237.568 212.992V901.12c0 53.248-107.52 95.232-237.568 95.232-132.096 0-237.568-41.984-237.568-95.232v-95.232c0 53.248 107.52 95.232 237.568 95.232s235.52-41.984 237.568-95.232z m0-142.336v95.232c0 53.248-107.52 95.232-237.568 95.232-132.096 0-237.568-41.984-237.568-95.232v-95.232c0 53.248 107.52 95.232 237.568 95.232s235.52-41.984 237.568-95.232z" fill="#00CCFF" /></svg>