<svg class="icon" style="width: 1em;height: 1em;vertical-align: middle;fill: currentColor;overflow: hidden;" viewBox="0 0 1024 1024" version="1.1" xmlns="http://www.w3.org/2000/svg"><path d="M376.832 487.424L120.832 358.4v-2.048l256-128v-88.064L35.84 322.56v69.632l340.992 180.224v-84.992z m175.104-75.776L568.32 112.64H456.704l16.384 300.032h78.848zM512 599.04c36.864 0 63.488-33.792 63.488-73.728 0-45.056-24.576-73.728-63.488-73.728s-63.488 29.696-63.488 73.728c-1.024 39.936 23.552 73.728 63.488 73.728z m135.168-458.752v88.064l261.12 126.976v2.048L647.168 485.376v87.04l340.992-180.224v-73.728L647.168 140.288zM87.04 687.104h851.968v58.368H87.04v-58.368z m0 165.888h851.968V911.36H87.04v-58.368z" fill="#BABABA" /></svg>