<svg class="icon" style="width: 1em;height: 1em;vertical-align: middle;fill: currentColor;overflow: hidden;" viewBox="0 0 1024 1024" version="1.1" xmlns="http://www.w3.org/2000/svg"><path d="M208.896 972.8c-26.624 0-39.936-10.24-53.248-32.768L36.864 718.848c-8.192-16.384-8.192-21.504-8.192-32.768l187.392 8.192 43.008 43.008h376.832L322.56 930.816c-15.36 9.216-72.704 41.984-113.664 41.984z" fill="#68B4AC" /><path d="M259.072 737.28H96.256c-49.152 0-68.608-25.6-68.608-51.2 0-16.384 5.12-24.576 12.288-43.008L277.504 77.824l2.048-5.12 3.072-5.12 7.168-6.144 10.24-5.12 14.336-3.072 24.576 1.024 164.864 61.44-55.296 175.104L259.072 737.28z" fill="#96C05C" /><path d="M736.256 972.8L362.496 88.064c-6.144-15.36-16.384-34.816-43.008-34.816-23.552 0-34.816 11.264-41.984 23.552 3.072-8.192 13.312-25.6 41.984-25.6h258.048c23.552 0 34.816 14.336 39.936 26.624L995.328 972.8H736.256z" fill="#4596EC" /></svg>