<svg class="icon" style="width: 1.0009765625em;height: 1em;vertical-align: middle;fill: currentColor;overflow: hidden;" viewBox="0 0 1025 1024" version="1.1" xmlns="http://www.w3.org/2000/svg"><path d="M1005.65035 611.129741c-43.944112-14.307385-70.51497-54.163673-70.51497-100.151697s29.636727-84.822355 70.51497-100.151697c12.263473-4.087824 20.439122-18.39521 16.351298-31.680638-12.263473-48.031936-31.680639-91.976048-56.207585-134.898204-6.131737-12.263473-22.483034-16.351297-35.768463-10.219561-14.307385 8.175649-33.724551 12.263473-50.075849 12.263473-58.251497 0-104.239521-48.031936-104.239521-104.239521 0-16.351297 4.087824-35.768463 12.263474-50.075848 6.131737-12.263473 2.043912-26.570858-10.219561-35.768463C737.897855 32.702595 691.909831 14.307385 643.877895 2.043912c-12.263473-4.087824-26.570858 4.087824-31.680639 16.351298-14.307385 43.944112-54.163673 70.51497-100.151696 70.51497s-84.822355-29.636727-100.151697-70.51497C407.806039 6.131737 393.498654-2.043912 380.213224 2.043912c-48.031936 12.263473-91.976048 31.680639-134.898203 56.207585-12.263473 6.131737-16.351297 22.483034-10.219561 35.768463 8.175649 14.307385 12.263473 33.724551 12.263473 50.075848 0 58.251497-48.031936 104.239521-104.239521 104.239521-16.351297 0-35.768463-4.087824-50.075848-12.263473-12.263473-6.131737-26.570858-2.043912-35.768463 10.219561C32.748155 288.191617 13.330989 334.179641 1.067516 381.189621c-4.087824 12.263473 4.087824 26.570858 16.351297 31.680638 43.944112 14.307385 70.51497 54.163673 70.51497 100.151697S58.297057 597.844311 17.418813 613.173653c-12.263473 4.087824-20.439122 18.39521-16.351297 31.680638 12.263473 48.031936 31.680639 91.976048 56.207585 134.898204 6.131737 12.263473 22.483034 16.351297 35.768463 10.219561 14.307385-8.175649 33.724551-12.263473 50.075848-12.263473 58.251497 0 104.239521 48.031936 104.239521 104.239521 0 16.351297-4.087824 35.768463-12.263473 50.075848-6.131737 12.263473-2.043912 26.570858 10.219561 35.768463 41.9002 24.526946 87.888224 43.944112 134.898203 56.207585h6.131737c10.219561 0 20.439122-6.131737 24.526946-18.39521 14.307385-43.944112 54.163673-70.51497 100.151697-70.51497s84.822355 29.636727 100.151696 70.51497c4.087824 12.263473 18.39521 20.439122 31.680639 16.351298 48.031936-12.263473 91.976048-31.680639 134.898204-56.207585 12.263473-6.131737 16.351297-22.483034 10.219561-35.768463-8.175649-14.307385-12.263473-33.724551-12.263474-50.075848 0-58.251497 48.031936-104.239521 104.239521-104.239521 16.351297 0 35.768463 4.087824 50.075849 12.263473 12.263473 6.131737 26.570858 2.043912 35.768463-10.219561 24.526946-41.9002 43.944112-87.888224 56.207585-134.898204 5.10978-12.263473-1.021956-27.592814-16.351298-31.680638z m-490.538922 58.251497c-87.888224 0-158.403194-70.51497-158.403194-158.403194s70.51497-158.403194 158.403194-158.403194S673.514622 423.08982 673.514622 510.978044s-71.536926 158.403194-158.403194 158.403194z" fill="#ABB3D6" /></svg>