<svg class="icon" style="width: 1em;height: 1em;vertical-align: middle;fill: currentColor;overflow: hidden;" viewBox="0 0 1024 1024" version="1.1" xmlns="http://www.w3.org/2000/svg"><path d="M377.856 360.448V68.608c0-29.696 24.576-52.224 52.224-52.224h330.752L931.84 186.368V358.4c0 5.12-5.12 11.264-11.264 11.264h-58.368c-5.12 0-11.264-5.12-11.264-11.264V242.688H743.424c-22.528 0-38.912-16.384-38.912-38.912V98.304h-245.76v262.144c0 5.12-5.12 11.264-11.264 11.264H389.12c-5.12 0-11.264-5.12-11.264-11.264z m0 628.736V471.04c0-11.264 7.168-18.432 18.432-18.432h572.416c11.264 0 18.432 7.168 18.432 18.432v434.176c0 56.32-47.104 102.4-102.4 102.4H400.384c-14.336 0-22.528-7.168-22.528-18.432z m402.432-400.384c0 24.576 18.432 40.96 40.96 40.96s40.96-18.432 40.96-40.96c0-24.576-18.432-40.96-40.96-40.96-20.48-4.096-40.96 14.336-40.96 40.96z m0 142.336c0 24.576 18.432 40.96 40.96 40.96 24.576 0 40.96-18.432 40.96-40.96s-18.432-40.96-40.96-45.056c-20.48 0-40.96 18.432-40.96 45.056zM640 588.8c0 22.528 18.432 40.96 40.96 40.96s40.96-18.432 40.96-40.96-18.432-40.96-40.96-40.96c-22.528-4.096-40.96 14.336-40.96 40.96z m0 142.336c0 22.528 18.432 40.96 40.96 40.96 24.576 0 40.96-18.432 40.96-40.96 0-24.576-18.432-40.96-40.96-45.056-22.528 0-40.96 18.432-40.96 45.056z m0 140.288c0 22.528 18.432 40.96 40.96 40.96 24.576 0 40.96-18.432 40.96-40.96s-18.432-40.96-40.96-40.96c-22.528-1.024-40.96 18.432-40.96 40.96zM497.664 588.8c0 24.576 18.432 40.96 40.96 40.96s40.96-18.432 40.96-40.96c0-24.576-18.432-40.96-40.96-40.96-23.552-4.096-40.96 14.336-40.96 40.96z m0 142.336c0 24.576 18.432 40.96 40.96 40.96 24.576 0 40.96-18.432 40.96-40.96 0-24.576-18.432-40.96-40.96-45.056-21.504 0-40.96 18.432-40.96 45.056z m0 140.288c0 22.528 18.432 40.96 40.96 40.96 24.576 0 40.96-18.432 40.96-40.96s-18.432-40.96-40.96-40.96c-23.552-1.024-40.96 18.432-40.96 40.96z m-358.4 136.192h136.192c11.264 0 18.432-7.168 18.432-18.432V342.016c0-11.264-7.168-18.432-18.432-18.432H166.912c-72.704 0-131.072 58.368-131.072 131.072v454.656c0 51.2 45.056 98.304 103.424 98.304z" fill="#2EBCAF" /></svg>