<svg class="icon" style="width: 1em;height: 1em;vertical-align: middle;fill: currentColor;overflow: hidden;" viewBox="0 0 1024 1024" version="1.1" xmlns="http://www.w3.org/2000/svg"><path d="M518.144 29.696v100.352H236.544c-6.144 0-8.192 2.048-8.192 8.192v666.624h566.272V27.648c12.288 0 23.552 2.048 34.816 6.144 33.792 13.312 55.296 37.888 64.512 73.728 1.024 5.12 2.048 10.24 2.048 16.384v776.192c0 23.552-9.216 44.032-25.6 61.44-13.312 15.36-29.696 25.6-49.152 30.72-8.192 2.048-16.384 4.096-24.576 4.096-189.44 0-378.88 1.024-569.344 0-48.128 0-87.04-33.792-98.304-80.896-1.024-6.144-1.024-12.288-1.024-18.432V132.096c0-36.864 16.384-65.536 46.08-86.016 15.36-10.24 32.768-15.36 52.224-15.36h282.624c3.072-1.024 6.144-1.024 9.216-1.024z m-49.152 868.352c0 25.6 20.48 44.032 43.008 44.032 24.576 0 41.984-19.456 43.008-41.984 1.024-24.576-22.528-44.032-43.008-45.056-22.528-1.024-44.032 21.504-43.008 43.008z" fill="#0079C1" /><path d="M741.376 29.696V368.64l-1.024 1.024c-35.84-48.128-71.68-96.256-107.52-145.408-19.456 21.504-38.912 43.008-59.392 64.512V29.696h167.936z" fill="#FFD204" /><path d="M284.672 584.704v-77.824h456.704v77.824H284.672z m456.704 76.8v67.584H284.672v-67.584h456.704zM284.672 351.232h344.064v77.824H284.672v-77.824z m0-65.536v-78.848h233.472v78.848H284.672z" fill="#BABABA" /></svg>