<?xml version="1.0" standalone="no"?><!DOCTYPE svg PUBLIC "-//W3C//DTD SVG 1.1//EN" "http://www.w3.org/Graphics/SVG/1.1/DTD/svg11.dtd"><svg t="1727337120974" class="icon" viewBox="0 0 1024 1024" version="1.1" xmlns="http://www.w3.org/2000/svg" p-id="5124" xmlns:xlink="http://www.w3.org/1999/xlink" width="16" height="16"><path d="M32 128h325.504a64 64 0 0 1 45.248 18.752l104.576 104.576A15.936 15.936 0 0 0 518.4 256h473.6a32 32 0 0 1 32 32v576a32 32 0 0 1-32 32H32a32 32 0 0 1-32-32v-704A32 32 0 0 1 32 128z" fill="#FFB900" p-id="5125"></path><path d="M0 384h357.504a64 64 0 0 0 45.248-18.752l104.576-104.576A15.936 15.936 0 0 1 518.4 256h473.6a32 32 0 0 1 32 32v576a32 32 0 0 1-32 32H32a32 32 0 0 1-32-32z" fill="#FFD75E" p-id="5126"></path><path d="M0 832h1024v32a32 32 0 0 1-32 32H32a32 32 0 0 1-32-32z" fill="#DA7B16" p-id="5127"></path></svg>