<svg class="icon" style="width: 1em;height: 1em;vertical-align: middle;fill: currentColor;overflow: hidden;" viewBox="0 0 1024 1024" version="1.1" xmlns="http://www.w3.org/2000/svg"><path d="M641.024 840.704H183.296c-50.176 0-90.112-39.936-90.112-90.112s39.936-90.112 90.112-90.112h178.176c80.896 0 147.456-65.536 147.456-147.456s-65.536-147.456-147.456-147.456h-97.28c2.048 8.192 3.072 18.432 3.072 28.672 0 10.24-2.048 18.432-3.072 28.672h97.28c50.176 0 90.112 39.936 90.112 90.112s-39.936 90.112-90.112 90.112H183.296c-80.896 0-147.456 65.536-147.456 147.456s65.536 147.456 147.456 147.456h457.728c-2.048-8.192-3.072-18.432-3.072-28.672s1.024-18.432 3.072-28.672z m141.312-58.368c-48.128 0-87.04 38.912-87.04 87.04s38.912 87.04 87.04 87.04 87.04-38.912 87.04-87.04-38.912-87.04-87.04-87.04zM302.08 67.584H122.88c-15.36 0-28.672 11.264-28.672 28.672v215.04c-34.816 11.264-58.368 44.032-58.368 81.92 0 48.128 38.912 87.04 87.04 87.04s87.04-38.912 87.04-87.04c0-38.912-25.6-70.656-58.368-81.92v-66.56h150.528c15.36 0 28.672-11.264 28.672-28.672V96.256c-1.024-16.384-13.312-28.672-28.672-28.672z m480.256 58.368c-113.664 0-205.824 92.16-205.824 205.824 0 62.464 26.624 118.784 73.728 157.696L757.76 700.416c10.24 20.48 38.912 20.48 50.176 0L914.432 491.52c47.104-38.912 73.728-97.28 73.728-157.696 0-113.664-92.16-207.872-205.824-207.872z m0 295.936c-48.128 0-87.04-38.912-87.04-87.04s38.912-87.04 87.04-87.04 87.04 38.912 87.04 87.04-38.912 87.04-87.04 87.04z" fill="#999999" /></svg>