<svg class="icon" style="width: 1em;height: 1em;vertical-align: middle;fill: currentColor;overflow: hidden;" viewBox="0 0 1024 1024" version="1.1" xmlns="http://www.w3.org/2000/svg"><path d="M23.552 632.832L276.48 733.184l-13.312-369.664-6.144 1.024L23.552 632.832z m271.36-312.32v6.144l367.616-37.888L528.384 51.2 294.912 320.512zM16.384 666.624l98.304 308.224 174.08-200.704L16.384 666.624zM561.152 39.936l144.384 254.976 174.08-200.704-318.464-54.272z m-241.664 317.44l188.416 163.84 175.104-201.728-363.52 37.888z m-21.504 25.6l13.312 365.568 175.104-201.728-188.416-163.84zM153.6 980.992l797.696 3.072-631.808-194.56L153.6 980.992z m190.464-220.16l602.112 185.344L512 569.344 344.064 760.832z m189.44-217.088L967.68 921.6 700.416 352.256 533.504 543.744z m191.488-220.16l282.624 603.136L890.88 132.096 724.992 323.584z" fill="#BABABA" /></svg>