<svg class="icon" style="width: 1em;height: 1em;vertical-align: middle;fill: currentColor;overflow: hidden;" viewBox="0 0 1024 1024" version="1.1" xmlns="http://www.w3.org/2000/svg"><path d="M989.184 467.968L556.032 34.816C531.456 10.24 491.52 10.24 465.92 34.816l-90.112 90.112L491.52 239.616c26.624-9.216 57.344-4.096 77.824 19.456 20.48 20.48 26.624 51.2 17.408 77.824l110.592 110.592c26.624-9.216 57.344-4.096 77.824 17.408 30.72 30.72 30.72 77.824 0 106.496-30.72 30.72-77.824 30.72-106.496 0-22.528-22.528-28.672-55.296-17.408-81.92L547.84 386.048V655.36c7.168 4.096 13.312 7.168 20.48 15.36 30.72 30.72 30.72 77.824 0 106.496-30.72 30.72-77.824 30.72-106.496 0-30.72-30.72-32.768-77.824-2.048-106.496 7.168-7.168 15.36-13.312 22.528-17.408V379.904c-7.168-4.096-15.36-9.216-22.528-17.408-22.528-22.528-26.624-55.296-15.36-83.968L330.752 168.96l-295.936 296.96c-24.576 24.576-24.576 64.512 0 89.088l433.152 433.152c24.576 24.576 64.512 24.576 90.112 0l431.104-431.104c24.576-24.576 24.576-64.512 0-89.088z" fill="#BABABA" /></svg>