<svg class="icon" style="width: 1em;height: 1em;vertical-align: middle;fill: currentColor;overflow: hidden;" viewBox="0 0 1024 1024" version="1.1" xmlns="http://www.w3.org/2000/svg"><path d="M348.16 979.968c-2.048 0-5.12 0-7.168-1.024C154.624 908.288 28.672 727.04 28.672 527.36 28.672 260.096 245.76 44.032 512 44.032s483.328 217.088 483.328 483.328c0 199.68-125.952 381.952-312.32 452.608-5.12 2.048-11.264 2.048-16.384-1.024-5.12-2.048-9.216-6.144-11.264-11.264l-103.424-276.48c-4.096-11.264 1.024-22.528 12.288-26.624 57.344-21.504 95.232-76.8 95.232-137.216 0-80.896-65.536-147.456-147.456-147.456s-147.456 65.536-147.456 147.456c0 60.416 37.888 115.712 95.232 137.216 11.264 4.096 16.384 16.384 12.288 26.624L368.64 966.656c-2.048 5.12-6.144 9.216-11.264 11.264-3.072 2.048-6.144 2.048-9.216 2.048z" fill="#EFD05C" /></svg>