<svg class="icon" style="width: 1em;height: 1em;vertical-align: middle;fill: currentColor;overflow: hidden;" viewBox="0 0 1024 1024" version="1.1" xmlns="http://www.w3.org/2000/svg"><path d="M384 568.32c33.792-2.048 66.56 9.216 94.208 31.744 12.288 11.264 23.552 23.552 33.792 39.936 16.384-26.624 40.96-49.152 69.632-60.416 36.864-12.288 75.776-12.288 114.688 0 31.744 12.288 60.416 29.696 83.968 54.272 19.456 17.408 37.888 36.864 58.368 52.224 11.264 9.216 22.528 16.384 34.816 20.48 17.408 6.144 37.888 0 51.2-12.288 11.264-12.288 11.264-33.792-2.048-46.08-8.192-6.144-19.456-6.144-26.624 2.048 0 0 0 2.048-2.048 2.048-3.072 8.192-3.072 17.408 2.048 23.552-11.264-6.144-19.456-19.456-20.48-31.744-2.048-16.384 9.216-29.696 23.552-34.816 28.672-11.264 62.464-2.048 79.872 22.528 14.336 23.552 20.48 52.224 16.384 79.872-3.072 25.6-17.408 49.152-39.936 65.536-29.696 20.48-66.56 29.696-104.448 26.624-34.816-2.048-69.632-8.192-101.376-22.528-54.272-22.528-104.448-51.2-160.768-68.608-19.456-5.12-39.936-9.216-58.368-12.288h-44.032c-17.408 2.048-36.864 6.144-52.224 12.288-57.344 17.408-107.52 48.128-161.792 69.632-46.08 19.456-97.28 25.6-146.432 16.384-28.672-5.12-54.272-19.456-72.704-39.936-16.384-19.456-23.552-43.008-22.528-66.56-2.048-23.552 5.12-46.08 19.456-65.536 14.336-17.408 36.864-25.6 58.368-23.552 14.336 0 26.624 6.144 36.864 17.408 6.144 9.216 8.192 20.48 5.12 31.744-5.12 9.216-11.264 17.408-19.456 22.528 5.12-6.144 6.144-16.384 2.048-23.552-6.144-8.192-17.408-11.264-26.624-5.12-2.048 0-2.048 2.048-3.072 2.048-9.216 11.264-11.264 25.6-5.12 37.888 8.192 12.288 20.48 20.48 34.816 22.528 20.48 0 40.96-9.216 55.296-23.552 29.696-29.696 63.488-57.344 97.28-82.944 28.672-21.504 63.488-32.768 98.304-33.792z m0-346.112c33.792-2.048 66.56 9.216 94.208 31.744 12.288 11.264 23.552 23.552 33.792 39.936 16.384-26.624 40.96-49.152 69.632-60.416 36.864-12.288 75.776-12.288 114.688 0 31.744 12.288 60.416 29.696 83.968 54.272 19.456 17.408 37.888 36.864 58.368 52.224 11.264 9.216 22.528 16.384 34.816 20.48 17.408 6.144 37.888 0 51.2-12.288 11.264-12.288 11.264-33.792-2.048-46.08-8.192-6.144-19.456-6.144-26.624 2.048 0 0 0 2.048-2.048 2.048-3.072 8.192-3.072 17.408 2.048 23.552-11.264-6.144-19.456-19.456-20.48-31.744-2.048-16.384 9.216-29.696 23.552-34.816 28.672-11.264 62.464-2.048 79.872 22.528 14.336 23.552 20.48 52.224 16.384 79.872-3.072 25.6-17.408 49.152-39.936 65.536-29.696 20.48-66.56 29.696-104.448 26.624-34.816-2.048-69.632-8.192-101.376-22.528-54.272-22.528-104.448-51.2-160.768-68.608-19.456-5.12-39.936-9.216-58.368-12.288h-44.032c-17.408 2.048-36.864 6.144-52.224 12.288-57.344 17.408-107.52 48.128-161.792 69.632-46.08 19.456-97.28 25.6-146.432 16.384-28.672-5.12-54.272-19.456-72.704-39.936-16.384-19.456-23.552-43.008-22.528-66.56-2.048-23.552 5.12-46.08 19.456-65.536 14.336-17.408 36.864-25.6 58.368-23.552 14.336 0 26.624 6.144 36.864 17.408 6.144 9.216 8.192 20.48 5.12 31.744-5.12 9.216-11.264 17.408-19.456 22.528 5.12-6.144 6.144-16.384 2.048-23.552-6.144-8.192-17.408-11.264-26.624-5.12-2.048 0-2.048 2.048-3.072 2.048-9.216 11.264-11.264 25.6-5.12 37.888 8.192 12.288 20.48 20.48 34.816 22.528 20.48 0 40.96-9.216 55.296-23.552 29.696-29.696 63.488-57.344 97.28-82.944 28.672-21.504 63.488-32.768 98.304-33.792z" fill="#C19770" /></svg>