<svg class="icon" style="width: 1em;height: 1em;vertical-align: middle;fill: currentColor;overflow: hidden;" viewBox="0 0 1024 1024" version="1.1" xmlns="http://www.w3.org/2000/svg"><path d="M284.672 944.128c0 8.192-2.048 10.24-10.24 10.24H148.48c-8.192 0-10.24-4.096-10.24-10.24V69.632c0-8.192 4.096-10.24 10.24-10.24h125.952c6.144 0 10.24 2.048 10.24 10.24v874.496z m601.088-7.168c0 6.144-2.048 8.192-6.144 10.24-34.816 13.312-77.824 17.408-121.856 17.408-190.464 0-302.08-141.312-302.08-340.992 0-196.608 125.952-344.064 319.488-344.064 52.224 0 84.992 4.096 105.472 12.288 6.144 4.096 6.144 6.144 6.144 14.336l-2.048 111.616c0 6.144-4.096 8.192-10.24 6.144-22.528-10.24-52.224-14.336-93.184-14.336-105.472 0-178.176 74.752-178.176 208.896 0 158.72 91.136 212.992 181.248 212.992 38.912 0 70.656-4.096 91.136-12.288 6.144-2.048 10.24 2.048 10.24 6.144v111.616z" fill="#FF5FF8" /></svg>