<svg class="icon" style="width: 1em;height: 1em;vertical-align: middle;fill: currentColor;overflow: hidden;" viewBox="0 0 1024 1024" version="1.1" xmlns="http://www.w3.org/2000/svg"><path d="M836.608 84.992V153.6H716.8V84.992H307.2V153.6H187.392V84.992H50.176v187.392h923.648V84.992z" fill="#FC3952" /><path d="M187.392 272.384H50.176v735.232h923.648V272.384H307.2z" fill="#EDEADA" /><path d="M683.008 392.192H187.392v494.592h648.192V393.216H683.008z m-153.6 34.816h119.808v119.808H529.408V427.008z m119.808 273.408H529.408V580.608h119.808v119.808zM374.784 580.608h119.808v119.808H374.784V580.608z m0-153.6h119.808v119.808H374.784V427.008z m-153.6 0h119.808v119.808H221.184V427.008z m0 153.6h119.808v119.808H221.184V580.608z m119.808 273.408H221.184V734.208h119.808v119.808z m153.6 0H374.784V734.208h119.808v119.808z m154.624 0H529.408V734.208h119.808v119.808z m153.6 0H683.008V734.208h119.808v119.808z m0-153.6H683.008V580.608h119.808v119.808zM683.008 545.792V427.008h119.808v119.808H683.008z" fill="#CEC9AE" /><path d="M187.392 16.384H307.2V153.6H187.392z m529.408 0h119.808V153.6H716.8z" fill="#28384C" /><path d="M529.408 580.608h119.808v119.808H529.408z" fill="#26B99A" /></svg>