<svg class="icon" style="width: 1em;height: 1em;vertical-align: middle;fill: currentColor;overflow: hidden;" viewBox="0 0 1024 1024" version="1.1" xmlns="http://www.w3.org/2000/svg"><path d="M837.632 614.4c0 54.272-40.96 238.592-40.96 238.592-8.192 46.08-49.152 94.208-100.352 94.208H448.512c-35.84 0-68.608-22.528-83.968-54.272 0 0-120.832-223.232-168.96-304.128-31.744-56.32-31.744-56.32 10.24-79.872 7.168-5.12 13.312-7.168 23.552-7.168 17.408 0 28.672 10.24 40.96 23.552l73.728 84.992 22.528 28.672V124.928c0-25.6 23.552-48.128 53.248-48.128 25.6 0 48.128 22.528 48.128 48.128l10.24 332.8h22.528l5.12-56.32c0-25.6 22.528-48.128 48.128-48.128s48.128 22.528 48.128 48.128l5.12 68.608h22.528l5.12-44.032c0-25.6 22.528-48.128 48.128-48.128s48.128 22.528 48.128 48.128l5.12 44.032V481.28h17.408l5.12-23.552c0-25.6 22.528-48.128 48.128-48.128s48.128 22.528 48.128 48.128c-17.408-2.048-17.408 102.4-17.408 156.672z" fill="#BABABA" /></svg>