<svg class="icon" style="width: 1em;height: 1em;vertical-align: middle;fill: currentColor;overflow: hidden;" viewBox="0 0 1024 1024" version="1.1" xmlns="http://www.w3.org/2000/svg"><path d="M315.392 486.4L116.736 684.032c-24.576 24.576-36.864 57.344-36.864 90.112 0 32.768 12.288 64.512 36.864 89.088l2.048 1.024c24.576 23.552 56.32 35.84 88.064 35.84 32.768 0 64.512-12.288 90.112-36.864l223.232-223.232 1.024-1.024L759.808 399.36c11.264-11.264 16.384-25.6 16.384-39.936s-5.12-28.672-16.384-38.912c-11.264-11.264-25.6-16.384-39.936-16.384s-28.672 5.12-38.912 16.384L335.872 666.624c-16.384 14.336-39.936 14.336-56.32 0-15.36-16.384-15.36-40.96 0-56.32l346.112-346.112c26.624-25.6 60.416-38.912 95.232-38.912 34.816 0 68.608 13.312 95.232 38.912 26.624 26.624 38.912 60.416 38.912 95.232 0 34.816-13.312 68.608-38.912 95.232L575.488 695.296l-1.024 1.024H573.44L351.232 919.552c-39.936 39.936-92.16 59.392-145.408 59.392-51.2 0-103.424-19.456-142.336-57.344l-2.048-2.048C21.504 879.616 2.048 827.392 2.048 775.168c0-53.248 20.48-105.472 59.392-145.408l223.232-223.232 1.024-1.024 281.6-281.6C619.52 71.68 688.128 45.056 755.712 45.056c69.632 0 137.216 25.6 189.44 78.848 52.224 51.2 77.824 119.808 77.824 188.416 0 68.608-26.624 137.216-77.824 188.416L558.08 888.832c-15.36 14.336-40.96 14.336-55.296 0-15.36-16.384-15.36-40.96 0-56.32l387.072-387.072c36.864-36.864 55.296-84.992 55.296-133.12 0-48.128-18.432-97.28-55.296-133.12-36.864-36.864-84.992-54.272-133.12-54.272-48.128 0-96.256 17.408-133.12 54.272l-308.224 307.2z" fill="#BABABA" /></svg>