<svg class="icon" style="width: 1em;height: 1em;vertical-align: middle;fill: currentColor;overflow: hidden;" viewBox="0 0 1024 1024" version="1.1" xmlns="http://www.w3.org/2000/svg"><path d="M248.832 942.08c0 8.192-1.024 10.24-10.24 10.24H113.664c-8.192 0-10.24-4.096-10.24-10.24V69.632c0-8.192 4.096-10.24 10.24-10.24h125.952c7.168 0 9.216 3.072 9.216 9.216V942.08z m144.384-314.368c0-194.56 128-346.112 333.824-346.112 17.408 0 26.624 0 43.008 1.024V66.56c0-5.12 4.096-8.192 8.192-8.192h132.096c7.168 0 8.192 3.072 8.192 7.168v759.808c0 22.528 0 51.2 4.096 81.92 0 5.12-2.048 7.168-7.168 9.216-69.632 33.792-143.36 48.128-212.992 48.128-181.248 1.024-310.272-110.592-309.248-336.896z m375.808-214.016c-12.288-5.12-28.672-8.192-48.128-8.192-104.448 0-178.176 80.896-178.176 215.04 0 152.576 74.752 215.04 168.96 215.04 20.48 0 41.984-3.072 57.344-9.216V413.696z" fill="#FE3E8A" /></svg>