<svg class="icon" style="width: 1em;height: 1em;vertical-align: middle;fill: currentColor;overflow: hidden;" viewBox="0 0 1024 1024" version="1.1" xmlns="http://www.w3.org/2000/svg"><path d="M169.984 169.984C-19.456 358.4-19.456 665.6 169.984 854.016s495.616 189.44 684.032 0 189.44-495.616 0-684.032-495.616-189.44-684.032 0z m606.208 606.208c-146.432 146.432-384 146.432-530.432 0S99.328 392.192 245.76 245.76s384-146.432 530.432 0c147.456 147.456 147.456 385.024 0 530.432zM456.704 306.176c0-40.96 33.792-73.728 74.752-73.728S605.184 266.24 604.16 307.2c0 40.96-33.792 74.752-73.728 73.728-40.96-1.024-74.752-34.816-73.728-74.752z m179.2 423.936c-2.048 6.144-6.144 13.312-10.24 17.408-26.624 27.648-59.392 43.008-97.28 44.032-18.432 0-35.84 0-54.272-3.072-29.696-4.096-67.584-40.96-61.44-79.872l12.288-79.872 24.576-138.24c0-3.072 1.024-6.144 1.024-9.216 0-19.456-6.144-26.624-25.6-28.672-8.192-1.024-16.384-2.048-24.576-4.096-9.216-3.072-13.312-11.264-13.312-18.432 1.024-8.192 6.144-13.312 16.384-15.36 5.12-1.024 11.264-1.024 16.384-1.024h139.264c17.408 0 27.648 8.192 27.648 25.6 0 14.336-2.048 28.672-5.12 43.008-9.216 53.248-19.456 105.472-28.672 158.72-3.072 17.408-7.168 34.816-9.216 52.224-1.024 8.192 0 17.408 2.048 25.6 3.072 11.264 11.264 17.408 22.528 15.36 9.216-1.024 18.432-4.096 27.648-8.192 7.168-3.072 13.312-8.192 20.48-10.24 13.312-5.12 22.528 3.072 19.456 14.336z" fill="#BABABA" /></svg>