<svg class="icon" style="width: 1em;height: 1em;vertical-align: middle;fill: currentColor;overflow: hidden;" viewBox="0 0 1024 1024" version="1.1" xmlns="http://www.w3.org/2000/svg"><path d="M768 428.032V153.6L510.976 0 256 152.576V430.08L0 567.296v308.224L262.144 1024 512 879.616 761.856 1024 1024 875.52v-307.2L768 428.032z m-49.152 1.024l-184.32 101.376V319.488l184.32-108.544v218.112zM509.952 58.368l182.272 110.592-181.248 106.496-178.176-108.544L509.952 58.368zM76.8 581.632l203.776-107.52 180.224 102.4-198.656 113.664L76.8 581.632z m208.896 152.576l201.728-114.688v216.064L285.696 953.344V734.208z m278.528-159.744l181.248-102.4L948.224 583.68 761.856 690.176 564.224 574.464z m410.624 270.336L786.432 953.344V734.208l188.416-108.544v219.136z" fill="#B9AAA5" /></svg>