<svg class="icon" style="width: 1em;height: 1em;vertical-align: middle;fill: currentColor;overflow: hidden;" viewBox="0 0 1024 1024" version="1.1" xmlns="http://www.w3.org/2000/svg"><path d="M989.184 53.248S802.816 143.36 650.24 161.792c-152.576 20.48-442.368 38.912-499.712 25.6s-98.304-30.72-98.304-30.72l12.288 40.96-36.864 33.792 7.168 12.288 15.36 2.048 47.104 5.12 7.168 20.48 25.6 2.048L143.36 317.44s56.32 5.12 70.656 5.12c15.36 0 49.152-2.048 49.152-2.048l2.048 17.408H276.48v20.48l-25.6 23.552 7.168 2.048v8.192s-59.392 5.12-82.944 2.048-28.672-3.072-28.672-3.072l-2.048 2.048-2.048 8.192h5.12l2.048 46.08 119.808-5.12-8.192 155.648-2.048 20.48-101.376-5.12v-41.984h21.504l2.048-17.408 20.48-5.12 3.072-5.12-77.824-18.432L67.584 542.72l10.24 8.192h10.24l2.048 12.288 20.48 2.048v40.96l-21.504 7.168 5.12 8.192 5.12 3.072v30.72H112.64v145.408l-21.504 3.072 3.072 41.984 13.312 2.048-2.048 96.256 62.464 2.048-13.312-93.184 93.184-2.048-7.168 51.2-8.192 35.84 95.232 2.048 2.048-93.184 64.512-5.12-3.072 59.392-2.048 35.84h56.32l-2.048-95.232 8.192 2.048 2.048-46.08h-8.192l-4.096-19.456-8.192-56.32 2.048-61.44h12.288v-36.864l-15.36 2.048 2.048-44.032 17.408-2.048v-13.312l10.24-2.048 10.24-8.192-61.44-13.312-61.44 13.312 7.168 10.24h13.312l2.048 18.432H389.12v38.912l-72.704-2.048 2.048-40.96 2.048-36.864v-49.152l2.048-52.224 147.456-7.168 176.128-10.24 2.048 33.792-7.168 79.872-3.072 74.752-64.512-2.048v-52.224l23.552-2.048 2.048-15.36 10.24-2.048v-3.072h10.24l5.12-7.168-72.704-17.408-72.704 15.36 5.12 8.192h8.192v3.072h10.24v17.408H522.24v46.08h-21.504v10.24l8.192 2.048v38.912l15.36 2.048-2.048 157.696-22.528 5.12v7.168h7.168v40.96h12.288l-4.096 55.296-3.072 48.128 77.824 2.048-3.072-46.08-7.168-34.816-2.048-30.72 66.56-2.048-2.048 47.104v49.152l36.864 3.072 51.2-2.048 15.36-5.12-10.24-26.624-2.048-40.96-3.072-28.672 62.464-2.048-3.072 35.84v57.344l25.6 2.048h25.6l12.288-3.072-7.168-53.248-2.048-40.96 10.24-2.048v-35.84h3.072v-8.192h-12.288l-1.024-25.6-2.048-114.688h8.192v-36.864h3.072v-7.168l-13.312-2.048V573.44l22.528-2.048-2.048-15.36 10.24-2.048v-3.072l13.312-7.168-67.584-13.312-68.608 13.312 5.12 8.192 10.24-2.048v3.072h8.192v17.408h22.528l2.048 41.984H716.8l-8.192-64.512-7.168-33.792-7.168-61.44 3.072-35.84 157.696-12.288v-52.224l8.192-2.048v-8.192l-7.168-3.072s-86.016 13.312-113.664 15.36c-8.192 0-7.168 0-13.312 2.048v-10.24l-31.744-17.408v-20.48h12.288v-26.624s65.536-5.12 91.136-10.24l59.392-12.288 17.408-46.08 31.744-10.24 3.072-7.168 74.752-20.48 8.192-7.168-28.672-61.44 3.072-13.312 13.312-7.168 10.24-31.744-4.096-1.024z m-357.376 235.52v21.504h17.408l-2.048 21.504-31.744 21.504-2.048 7.168h13.312v5.12l-101.376 5.12v-15.36l5.12-7.168v-15.36l3.072-7.168 2.048-5.12V317.44l5.12-17.408c0 2.048 91.136-11.264 91.136-11.264zM421.888 307.2l-2.048 15.36 7.168 10.24v17.408l7.168 12.288-2.048 13.312 5.12 8.192-103.424 3.072v-3.072l12.288-2.048v-5.12l-25.6-13.312-2.048-22.528h12.288l2.048-23.552 89.088-10.24z m152.576 347.136l62.464 3.072-2.048 84.992 8.192 69.632-66.56-2.048c2.048 0-2.048-155.648-2.048-155.648z m-417.792 5.12l100.352 5.12-8.192 57.344v49.152l7.168 26.624-98.304 3.072c-1.024 1.024-1.024-141.312-1.024-141.312z m640 0v144.384l-64.512 3.072-2.048-75.776-7.168-70.656c1.024-1.024 73.728-1.024 73.728-1.024z m-481.28 3.072h74.752v134.144l-69.632 2.048-3.072-45.056v-41.984l-2.048-49.152z" fill="#B41717" /></svg>