<svg class="icon" style="width: 1em;height: 1em;vertical-align: middle;fill: currentColor;overflow: hidden;" viewBox="0 0 1024 1024" version="1.1" xmlns="http://www.w3.org/2000/svg"><path d="M1007.616 774.144c0-38.912-31.744-68.608-68.608-68.608H84.992c-38.912 0-68.608 31.744-68.608 68.608v98.304c0 38.912 31.744 68.608 68.608 68.608h855.04c38.912 0 68.608-31.744 68.608-68.608l-1.024-98.304z m-368.64 89.088c-20.48 0-39.936-17.408-39.936-39.936 0-24.576 19.456-39.936 39.936-39.936s39.936 17.408 39.936 39.936c0 24.576-17.408 39.936-39.936 39.936z m120.832 0c-20.48 0-39.936-17.408-39.936-39.936 0-24.576 17.408-39.936 39.936-39.936 20.48 0 39.936 17.408 39.936 39.936 0 24.576-19.456 39.936-39.936 39.936z m118.784 0c-20.48 0-39.936-17.408-39.936-39.936 0-24.576 17.408-39.936 39.936-39.936 20.48 0 39.936 17.408 39.936 39.936 0 24.576-17.408 39.936-39.936 39.936zM84.992 664.576h855.04c19.456 0 38.912 5.12 52.224 14.336l-83.968-173.056c-24.576-51.2-61.44-68.608-99.328-68.608h-92.16L580.608 573.44c-9.216 9.216-20.48 17.408-32.768 20.48-12.288 5.12-26.624 7.168-38.912 7.168-14.336 0-26.624-2.048-38.912-7.168h-5.12c-9.216-5.12-19.456-12.288-27.648-19.456l-133.12-143.36h-92.16c-38.912 0-73.728 20.48-99.328 68.608L28.672 675.84c17.408-6.144 32.768-11.264 56.32-11.264z" fill="#4A92C3" /><path d="M710.656 368.64c5.12-5.12 7.168-9.216 12.288-17.408 2.048-7.168 5.12-12.288 5.12-20.48 0-7.168-2.048-14.336-5.12-19.456-2.048-7.168-7.168-12.288-12.288-17.408s-12.288-9.216-17.408-12.288c-5.12-2.048-12.288-5.12-19.456-5.12s-14.336 2.048-19.456 5.12c-7.168 2.048-12.288 7.168-17.408 12.288l-76.8 76.8v-235.52c0-7.168-2.048-14.336-5.12-19.456-2.048-7.168-7.168-12.288-12.288-17.408s-9.216-9.216-17.408-12.288c-5.12-2.048-12.288-2.048-19.456-2.048s-14.336 0-19.456 2.048c-7.168 2.048-12.288 7.168-17.408 12.288s-9.216 9.216-12.288 17.408c-3.072 9.216-5.12 12.288-5.12 19.456v239.616L374.784 296.96c-5.12-5.12-9.216-9.216-17.408-12.288-5.12-2.048-12.288-5.12-19.456-5.12s-14.336 2.048-19.456 5.12c-5.12 2.048-12.288 7.168-17.408 12.288s-9.216 9.216-12.288 17.408c-2.048 7.168-5.12 12.288-5.12 19.456s2.048 14.336 5.12 20.48c2.048 7.168 7.168 12.288 12.288 17.408l163.84 165.888c5.12 5.12 9.216 9.216 17.408 12.288 5.12 2.048 12.288 5.12 19.456 5.12s14.336-2.048 19.456-5.12c7.168-2.048 12.288-7.168 17.408-12.288 0 1.024 172.032-168.96 172.032-168.96z" fill="#4A92C3" /></svg>