<svg class="icon" style="width: 1em;height: 1em;vertical-align: middle;fill: currentColor;overflow: hidden;" viewBox="0 0 1024 1024" version="1.1" xmlns="http://www.w3.org/2000/svg"><path d="M23.576519 774.10514V464.872663c0-20.478972 6.143692-30.718458 24.574766-40.957944C281.611565 294.897196 513.023949 165.879673 746.484229 36.86215 779.250584 18.431075 809.969042 0 850.926986 0c65.53271 2.047897 120.825935 38.910047 141.304906 102.39486 20.478972 61.436916 0 135.161215-55.293224 167.92757-61.436916 38.910047-124.921729 71.676402-188.406542 106.490654C515.071846 505.830607 281.611565 634.848131 46.103388 763.865654c-6.143692 4.095794-10.239486 6.143692-22.526869 10.239486z" fill="#ED9B58" /><path d="M394.245911 655.327103c6.143692-4.095794 14.33528-8.191589 20.478972-12.287384 75.772196-43.005841 151.544392-83.963785 227.316589-126.969626 16.383178-10.239486 28.670561-10.239486 43.005841 4.095795 86.011682 79.867991 176.119159 157.688084 262.130841 237.556074 47.101635 43.005841 61.436916 98.299065 43.005841 159.735982-18.431075 59.389019-61.436916 94.203271-122.873832 104.442757-40.957944 6.143692-79.867991-4.095794-110.586448-30.718458C635.89778 882.643691 517.119743 774.10514 396.293808 665.566589c2.047897-2.047897 0-6.143692-2.047897-10.239486z m-368.621495-303.088785c0-75.772196-6.143692-151.544392 2.047897-225.268692C35.863902 43.005841 117.77979-8.191589 207.887266 2.047897c75.772196 8.191589 137.209112 83.963785 131.065421 163.831776 0 8.191589-6.143692 20.478972-12.287383 24.574766-96.251168 55.293224-194.550234 108.538551-292.849299 161.783879-2.047897 0-4.095794-2.047897-8.191589 0z m313.328271 335.85514c0 69.628505 4.095794 135.161215-2.047897 198.646028-6.143692 75.772196-77.820093 135.161215-153.59229 137.209112-73.724299 2.047897-145.400701-57.341121-157.688084-131.065421-4.095794-22.526869 0-36.86215 22.526869-49.149532 88.059579-47.101635 176.119159-96.251168 264.178738-145.400701 6.143692-2.047897 14.33528-6.143692 26.622664-10.239486z" fill="#6C97D3" /></svg>