<svg class="icon" style="width: 1em;height: 1em;vertical-align: middle;fill: currentColor;overflow: hidden;" viewBox="0 0 1024 1024" version="1.1" xmlns="http://www.w3.org/2000/svg"><path d="M601.088 793.6c-65.536-65.536-145.408 5.12-216.064 66.56-88.064 79.872-150.528 126.976-204.8 72.704-38.912-38.912-38.912-90.112 0-140.288l35.84 35.84c9.216 9.216 24.576 9.216 33.792 0l422.912-386.048-175.104-173.056-389.12 419.84c-9.216 9.216-9.216 24.576 0 33.792l36.864 36.864c-68.608 82.944-46.08 164.864-2.048 208.896 92.16 92.16 192.512 2.048 272.384-70.656 70.656-63.488 116.736-99.328 146.432-70.656 10.24 9.216 26.624 7.168 35.84-3.072 10.24-8.192 10.24-22.528 3.072-30.72z m-122.88-297.984c-9.216 9.216-24.576 9.216-35.84 0-9.216-9.216-9.216-24.576 0-35.84l35.84-35.84c9.216-9.216 24.576-10.24 35.84 0 9.216 9.216 10.24 24.576 0 35.84l-35.84 35.84z m225.28-90.112c5.12 5.12 10.24 7.168 17.408 7.168 35.84 0 70.656-9.216 102.4-28.672L552.96 115.712c-17.408 29.696-28.672 65.536-28.672 102.4 0 7.168 2.048 12.288 7.168 17.408l172.032 169.984zM864.256 74.752c-77.824-77.824-203.776-77.824-279.552 0l281.6 281.6c74.752-77.824 74.752-203.776-2.048-281.6z" fill="#CC66FF" /></svg>