<svg class="icon" style="width: 1em;height: 1em;vertical-align: middle;fill: currentColor;overflow: hidden;" viewBox="0 0 1024 1024" version="1.1" xmlns="http://www.w3.org/2000/svg"><path d="M30.72 562.176V460.8c22.528-2.048 39.936-3.072 50.176-10.24 10.24-3.072 18.432-13.312 27.648-23.552 8.192-12.288 13.312-25.6 17.408-45.056 2.048-13.312 5.12-35.84 5.12-68.608 0-55.296 2.048-92.16 8.192-114.688 5.12-20.48 15.36-39.936 27.648-51.2 13.312-12.288 34.816-22.528 60.416-30.72 17.408-3.072 45.056-8.192 83.968-8.192h23.552v99.328c-32.768 0-55.296 2.048-63.488 7.168-8.192 3.072-15.36 8.192-22.528 17.408-5.12 7.168-7.168 18.432-7.168 35.84s-2.048 51.2-5.12 99.328c-2.048 28.672-5.12 51.2-10.24 66.56-7.168 17.408-15.36 30.72-23.552 43.008-8.192 10.24-23.552 22.528-43.008 34.816 17.408 10.24 32.768 20.48 43.008 32.768 10.24 12.288 18.432 28.672 25.6 46.08 7.168 18.432 10.24 43.008 10.24 73.728 2.048 46.08 2.048 75.776 2.048 89.088 0 18.432 2.048 30.72 7.168 39.936 5.12 8.192 13.312 12.288 22.528 17.408 8.192 3.072 30.72 7.168 63.488 7.168v99.328h-23.552c-39.936 0-71.68-2.048-91.136-8.192-22.528-7.168-39.936-17.408-55.296-30.72-15.36-13.312-23.552-30.72-30.72-51.2-5.12-20.48-7.168-53.248-7.168-98.304 0-51.2-2.048-86.016-7.168-99.328-7.168-22.528-17.408-39.936-30.72-50.176-9.216-10.24-29.696-17.408-57.344-17.408z m959.488 0c-22.528 2.048-39.936 3.072-50.176 10.24-10.24 3.072-18.432 13.312-27.648 23.552-8.192 12.288-13.312 25.6-17.408 45.056-2.048 13.312-5.12 35.84-5.12 68.608 0 55.296-2.048 92.16-8.192 114.688-5.12 22.528-15.36 39.936-27.648 51.2-13.312 12.288-34.816 22.528-60.416 30.72-17.408 3.072-45.056 8.192-83.968 8.192H686.08v-99.328c32.768 0 51.2-2.048 63.488-7.168 10.24-3.072 17.408-10.24 22.528-17.408s7.168-18.432 7.168-35.84 2.048-50.176 5.12-98.304c2.048-28.672 7.168-53.248 13.312-68.608 7.168-18.432 15.36-32.768 25.6-45.056 10.24-12.288 23.552-22.528 40.96-32.768-27.648-17.408-45.056-28.672-53.248-40.96-13.312-18.432-23.552-43.008-27.648-68.608-5.12-20.48-7.168-63.488-7.168-129.024 0-20.48-2.048-34.816-7.168-43.008-5.12-7.168-10.24-12.288-18.432-17.408-8.192-3.072-30.72-7.168-65.536-7.168v-99.328h23.552c39.936 0 71.68 2.048 91.136 8.192 22.528 7.168 39.936 17.408 55.296 30.72 15.36 13.312 23.552 30.72 30.72 51.2 5.12 20.48 8.192 53.248 8.192 98.304 0 51.2 2.048 83.968 7.168 99.328 7.168 22.528 17.408 39.936 30.72 46.08 13.312 10.24 34.816 13.312 60.416 17.408v101.376l-2.048 5.12z" fill="#7058C6" /></svg>