<svg class="icon" style="width: 1em;height: 1em;vertical-align: middle;fill: currentColor;overflow: hidden;" viewBox="0 0 1024 1024" version="1.1" xmlns="http://www.w3.org/2000/svg"><path d="M817.152 790.528h23.552c0 70.656-11.264 121.856-34.816 154.624-23.552 32.768-51.2 51.2-84.992 51.2-27.648 0-56.32-11.264-81.92-30.72-25.6-20.48-49.152-77.824-70.656-173.056l-58.368-262.144-199.68 454.656H182.272L471.04 363.52c-14.336-79.872-32.768-140.288-56.32-178.176-21.504-37.888-49.152-58.368-79.872-58.368-25.6 0-49.152 9.216-67.584 28.672-18.432 18.432-28.672 51.2-30.72 91.136h-23.552c2.048-67.584 14.336-117.76 37.888-158.72C276.48 50.176 307.2 27.648 345.088 27.648c23.552 0 47.104 9.216 68.608 28.672s39.936 54.272 56.32 101.376c16.384 47.104 39.936 149.504 74.752 300.032L593.92 677.888c18.432 89.088 37.888 147.456 61.44 176.128 23.552 28.672 47.104 45.056 76.8 45.056 51.2-1.024 79.872-35.84 84.992-108.544z" fill="#80CBC4" /></svg>