<svg class="icon" style="width: 1em;height: 1em;vertical-align: middle;fill: currentColor;overflow: hidden;" viewBox="0 0 1024 1024" version="1.1" xmlns="http://www.w3.org/2000/svg"><path d="M219.136 635.904c0 18.432 0 33.792 2.048 46.08 0 13.312 4.096 22.528 7.168 31.744 4.096 7.168 11.264 14.336 22.528 18.432 9.216 4.096 23.552 7.168 40.96 9.216 4.096 0 7.168 4.096 9.216 5.12 2.048 4.096 4.096 7.168 4.096 11.264s-2.048 7.168-4.096 11.264c-2.048 4.096-5.12 5.12-9.216 5.12-14.336 0-33.792-2.048-55.296-4.096s-44.032-4.096-66.56-4.096c-23.552 0-46.08 2.048-68.608 4.096s-43.008 4.096-61.44 4.096c-4.096 0-7.168-2.048-9.216-5.12 0-2.048-2.048-5.12-2.048-9.216s2.048-9.216 4.096-11.264c2.048-4.096 5.12-5.12 9.216-5.12 18.432-2.048 33.792-5.12 43.008-9.216s16.384-11.264 22.528-18.432c4.096-7.168 7.168-16.384 7.168-29.696 0-11.264 2.048-25.6 2.048-43.008V478.208c0-34.816 0-62.464-2.048-82.944 0-20.48-4.096-36.864-7.168-48.128-4.096-11.264-11.264-18.432-20.48-22.528-9.216-4.096-22.528-5.12-40.96-7.168-4.096 0-7.168-2.048-9.216-4.096-2.048-4.096-4.096-5.12-4.096-9.216s0-7.168 2.048-11.264 5.12-5.12 9.216-5.12c13.312-2.048 31.744-4.096 55.296-9.216 23.552-4.096 50.176-11.264 77.824-18.432 2.048 0 4.096-2.048 9.216-2.048h8.192c7.168 0 13.312 4.096 18.432 9.216s7.168 13.312 7.168 20.48l-2.048 53.248c0 4.096 2.048 4.096 4.096 2.048 4.096-5.12 9.216-13.312 18.432-23.552 9.216-11.264 20.48-20.48 33.792-31.744s29.696-20.48 50.176-27.648 43.008-11.264 66.56-11.264c46.08 0 81.92 9.216 109.568 27.648 25.6 18.432 48.128 44.032 62.464 79.872 4.096-7.168 11.264-18.432 20.48-29.696 11.264-13.312 23.552-23.552 40.96-34.816 16.384-11.264 34.816-20.48 55.296-29.696 20.48-7.168 43.008-13.312 68.608-13.312 34.816 0 64.512 5.12 87.04 16.384s38.912 25.6 52.224 44.032c13.312 18.432 20.48 40.96 25.6 66.56 4.096 25.6 7.168 53.248 7.168 82.944V634.88c0 18.432 0 33.792 2.048 46.08 0 13.312 4.096 22.528 7.168 31.744 4.096 7.168 9.216 14.336 18.432 18.432 7.168 4.096 20.48 7.168 34.816 9.216 4.096 0 7.168 4.096 9.216 5.12 2.048 2.048 4.096 7.168 4.096 11.264s-2.048 7.168-4.096 11.264c-2.048 4.096-5.12 5.12-9.216 5.12-9.216 0-23.552-2.048-46.08-4.096-20.48-2.048-43.008-4.096-64.512-4.096-23.552 0-46.08 2.048-68.608 4.096s-40.96 4.096-57.344 4.096c-4.096 0-7.168-2.048-9.216-5.12-2.048-4.096-4.096-7.168-4.096-11.264s2.048-9.216 4.096-11.264c2.048-4.096 5.12-5.12 9.216-5.12 18.432-2.048 31.744-5.12 40.96-9.216s16.384-11.264 20.48-18.432c4.096-7.168 7.168-16.384 7.168-29.696 0-11.264 2.048-25.6 2.048-43.008V498.688c0-20.48 0-40.96-2.048-62.464-2.048-22.528-5.12-40.96-11.264-59.392-5.12-18.432-14.336-31.744-27.648-44.032-13.312-11.264-29.696-16.384-53.248-16.384-20.48 0-40.96 5.12-57.344 14.336-18.432 9.216-33.792 22.528-46.08 36.864-13.312 14.336-23.552 31.744-31.744 48.128-7.168 16.384-11.264 33.792-11.264 50.176v167.936c0 22.528 0 38.912 2.048 52.224 0 13.312 4.096 22.528 7.168 29.696 4.096 7.168 9.216 13.312 18.432 16.384 7.168 4.096 20.48 5.12 34.816 9.216 4.096 0 7.168 4.096 9.216 5.12 2.048 4.096 4.096 7.168 4.096 11.264s-2.048 7.168-4.096 11.264-5.12 5.12-9.216 5.12c-9.216 0-23.552-2.048-46.08-4.096-20.48-2.048-43.008-4.096-64.512-4.096-23.552 0-46.08 2.048-68.608 4.096s-40.96 4.096-55.296 4.096c-4.096 0-7.168-2.048-9.216-5.12-2.048-4.096-4.096-7.168-4.096-11.264s2.048-9.216 4.096-11.264c2.048-4.096 5.12-5.12 9.216-5.12 16.384-2.048 29.696-5.12 38.912-9.216 9.216-4.096 16.384-9.216 20.48-14.336 4.096-7.168 5.12-16.384 7.168-27.648 0-11.264 2.048-27.648 2.048-48.128v-143.36c0-20.48-2.048-40.96-2.048-62.464-2.048-22.528-5.12-40.96-13.312-59.392-7.168-18.432-16.384-31.744-29.696-44.032-13.312-11.264-31.744-16.384-55.296-16.384-25.6 0-46.08 4.096-64.512 13.312s-33.792 20.48-44.032 34.816c-11.264 14.336-19.456 33.792-25.6 50.176-7.168 18.432-10.24 32.768-15.36 62.464l-4.096 158.72z" fill="#B388FF" /></svg>