<svg class="icon" style="width: 1em;height: 1em;vertical-align: middle;fill: currentColor;overflow: hidden;" viewBox="0 0 1024 1024" version="1.1" xmlns="http://www.w3.org/2000/svg"><path d="M945.152 644.096l-4.096-5.12c-2.048-2.048-2.048-4.096-4.096-5.12 0-83.968-48.128-156.672-119.808-190.464-7.168-27.648-2.048-38.912-2.048-40.96l5.12-11.264h72.704c16.384 0 31.744-5.12 43.008-16.384 38.912-38.912 59.392-90.112 59.392-145.408 0-102.4-74.752-186.368-174.08-199.68-5.12-2.048-9.216-2.048-15.36-2.048H230.4c-111.616 0-201.728 91.136-201.728 201.728 0 9.216 0 16.384 2.048 26.624 2.048 188.416 145.408 343.04 220.16 410.624h-143.36c-22.528 0-43.008 11.264-52.224 31.744-18.432 29.696-27.648 63.488-27.648 97.28 0 111.616 91.136 201.728 201.728 201.728 22.528 0 578.56 2.048 578.56 2.048h5.12c104.448-9.216 184.32-99.328 184.32-203.776 0-54.272-20.48-109.568-52.224-151.552M808.96 88.064c72.704 7.168 129.024 67.584 129.024 142.336 0 38.912-16.384 76.8-43.008 102.4H368.64c20.48-27.648 33.792-63.488 33.792-102.4 0-58.368-29.696-110.592-74.752-142.336h481.28zM86.016 793.6c0-24.576 7.168-48.128 18.432-68.608h246.784c11.264 20.48 18.432 43.008 18.432 68.608 0 78.848-63.488 142.336-142.336 142.336-77.824 0-141.312-63.488-141.312-142.336M808.96 935.936H327.68c45.056-31.744 74.752-83.968 74.752-143.36 0-58.368-29.696-110.592-74.752-142.336h2.048S91.136 473.088 89.088 248.832c-2.048-7.168-2.048-15.36-2.048-22.528 0-78.848 63.488-142.336 142.336-142.336s142.336 63.488 142.336 142.336v11.264c-2.048 13.312-4.096 26.624-7.168 36.864-5.12 15.36-13.312 29.696-24.576 40.96l-31.744 47.104h462.848c-2.048 4.096-4.096 5.12-5.12 9.216-9.216 15.36-11.264 31.744-11.264 52.224-9.216-2.048-18.432-2.048-27.648-2.048-119.808-1.024-215.04 94.208-215.04 211.968s95.232 212.992 212.992 212.992c88.064 0 162.816-52.224 194.56-126.976 11.264 24.576 18.432 50.176 18.432 74.752 0 71.68-58.368 135.168-129.024 141.312m7.168-304.128L675.84 738.304V527.36l140.288 104.448z" fill="#BABABA" /></svg>