<svg class="icon" style="width: 1em;height: 1em;vertical-align: middle;fill: currentColor;overflow: hidden;" viewBox="0 0 1024 1024" version="1.1" xmlns="http://www.w3.org/2000/svg"><path d="M936.96 710.656c-4.096-7.168-11.264-11.264-20.48-11.264H666.624c-9.216 16.384-18.432 34.816-27.648 55.296-22.528 41.984-44.032 86.016-66.56 124.928l-2.048 2.048c-13.312 22.528-34.816 36.864-60.416 36.864S460.8 904.192 450.56 881.664c-7.168-14.336-32.768-62.464-66.56-126.976l-27.648-55.296h-133.12c-9.216 0-16.384 5.12-20.48 13.312L87.04 955.392c-4.096 7.168-4.096 14.336 2.048 22.528 4.096 7.168 11.264 11.264 20.48 11.264h693.248c9.216 0 16.384-5.12 20.48-13.312l115.712-242.688c1.024-7.168 1.024-14.336-2.048-22.528zM513.024 35.84C371.712 35.84 256 151.552 256 292.864c0 86.016 93.184 287.744 171.008 442.368 36.864 73.728 66.56 124.928 66.56 126.976 4.096 7.168 11.264 13.312 20.48 13.312s16.384-5.12 20.48-13.312c0 0 29.696-53.248 66.56-126.976C675.84 580.608 770.048 378.88 770.048 292.864c0-141.312-115.712-257.024-257.024-257.024z m0 412.672c-64.512 0-117.76-49.152-124.928-113.664v-13.312c0-69.632 57.344-124.928 124.928-124.928 64.512 0 118.784 49.152 124.928 111.616v13.312c0 70.656-55.296 126.976-124.928 126.976z" fill="#BABABA" /></svg>