<svg class="icon" style="width: 1em;height: 1em;vertical-align: middle;fill: currentColor;overflow: hidden;" viewBox="0 0 1024 1024" version="1.1" xmlns="http://www.w3.org/2000/svg"><path d="M512 142.72512c-31.744 0-57.344 25.6-57.344 57.344 0 31.744 25.6 57.344 57.344 57.344 31.744 0 57.344-25.6 57.344-57.344 0-30.72-25.6-57.344-57.344-57.344z m-22.528 135.168l-174.08 245.76-204.8-77.824c-7.168 7.168-16.384 13.312-26.624 16.384l104.448 304.128h645.12l104.448-304.128c-10.24-3.072-19.456-9.216-26.624-16.384l-204.8 77.824-174.08-245.76c-7.168 2.048-14.336 3.072-22.528 3.072-6.144 1.024-13.312-1.024-20.48-3.072z m-427.008 72.704c-25.6 0-46.08 20.48-46.08 46.08s20.48 46.08 46.08 46.08 46.08-20.48 46.08-46.08-20.48-46.08-46.08-46.08z m899.072 0c-25.6 0-46.08 20.48-46.08 46.08s20.48 46.08 46.08 46.08 46.08-20.48 46.08-46.08-20.48-46.08-46.08-46.08z m-772.096 438.272v92.16h645.12v-92.16h-645.12z" fill="#BABABA" /></svg>