<svg class="icon" style="width: 1em;height: 1em;vertical-align: middle;fill: currentColor;overflow: hidden;" viewBox="0 0 1024 1024" version="1.1" xmlns="http://www.w3.org/2000/svg"><path d="M901.12 582.656c-18.432-118.784-142.336-194.56-235.52-252.928-39.936-25.6-105.472-58.368-114.688-111.616-3.072-21.504-3.072-45.056-4.096-66.56 0-8.192 0-17.408-1.024-26.624-1.024-11.264-12.288 3.072-18.432-7.168-15.36-24.576-9.216 7.168-8.192 20.48 3.072 29.696 8.192 59.392 7.168 90.112 0 57.344-10.24 112.64-24.576 168.96-33.792 130.048-60.416 263.168-26.624 396.288 7.168 27.648 16.384 55.296 27.648 80.896 3.072 8.192 10.24 29.696 20.48 32.768 35.84 9.216 62.464 12.288 90.112 38.912 17.408 16.384 30.72 7.168 51.2-1.024 62.464-25.6 117.76-56.32 161.792-108.544 63.488-72.704 90.112-158.72 74.752-253.952m-66.56 119.808c-5.12 49.152-35.84 92.16-67.584 128-22.528 26.624-53.248 60.416-87.04 71.68-12.288 4.096 2.048-19.456 4.096-22.528 10.24-15.36 23.552-29.696 34.816-44.032 17.408-21.504 32.768-44.032 43.008-69.632 33.792-86.016 26.624-189.44-24.576-267.264-27.648-41.984-65.536-77.824-103.424-109.568-18.432-15.36-36.864-30.72-52.224-49.152-3.072-4.096-34.816-46.08-25.6-52.224 3.072-2.048 71.68 70.656 79.872 75.776 28.672 21.504 58.368 40.96 83.968 65.536 35.84 32.768 72.704 69.632 93.184 114.688 23.552 50.176 27.648 105.472 21.504 158.72" fill="#BABABA" /><path d="M492.544 1.024c10.24 7.168 12.288 47.104 12.288 83.968s3.072 195.584-8.192 238.592-37.888 90.112-66.56 131.072-62.464 129.024-61.44 183.296c1.024 54.272 31.744 142.336 56.32 179.2s65.536 88.064 56.32 100.352c-16.384 20.48-81.92-50.176-116.736-92.16-34.816-40.96-68.608-125.952-70.656-191.488-1.024-65.536 35.84-126.976 62.464-163.84 26.624-36.864 77.824-100.352 92.16-129.024s28.672-59.392 33.792-100.352c4.096-39.936 0-184.32 0-184.32s0-62.464 10.24-55.296" fill="#BABABA" /><path d="M464.896 68.608c10.24 4.096 11.264 17.408 11.264 29.696s-3.072 64.512-7.168 114.688c-3.072 50.176-44.032 93.184-73.728 122.88s-116.736 122.88-148.48 168.96-48.128 106.496-45.056 157.696c3.072 52.224 16.384 102.4 64.512 156.672s81.92 79.872 107.52 92.16 50.176 21.504 45.056 33.792c-6.144 11.264-29.696 3.072-56.32-6.144S245.76 892.928 194.56 834.56c-52.224-58.368-77.824-137.216-75.776-211.968 2.048-74.752 22.528-105.472 57.344-154.624C210.944 419.84 306.176 348.16 335.872 329.728s70.656-49.152 90.112-74.752c19.456-25.6 29.696-46.08 28.672-80.896-1.024-34.816 2.048-65.536 1.024-76.8-1.024-10.24-1.024-33.792 9.216-28.672m3.072 902.144c5.12 0 2.048 20.48-6.144 29.696-8.192 10.24-22.528 16.384-24.576 12.288s10.24-6.144 19.456-16.384c8.192-9.216 6.144-25.6 11.264-25.6m93.184-1.024c-5.12 0-2.048 20.48 6.144 29.696 8.192 10.24 22.528 16.384 24.576 12.288s-10.24-6.144-19.456-16.384c-7.168-8.192-5.12-25.6-11.264-25.6m-40.96 22.528c0 17.408 1.024 31.744-3.072 31.744-5.12 0-3.072-14.336-3.072-31.744s-2.048-31.744 3.072-31.744c4.096-1.024 3.072 13.312 3.072 31.744" fill="#BABABA" /></svg>