<svg class="icon" style="width: 1.0009765625em;height: 1em;vertical-align: middle;fill: currentColor;overflow: hidden;" viewBox="0 0 1025 1024" version="1.1" xmlns="http://www.w3.org/2000/svg"><path d="M0 133.12v761.856l581.632 101.376V27.648z" fill="#FF3333" /><path d="M356.352 699.392l-22.528-86.016-106.496-4.096-20.48 82.944-67.584-4.096 102.4-363.52 78.848-4.096 112.64 387.072z" fill="#FFFFFF" /><path d="M1021.952 641.024c-2.048 22.528-33.792 40.96-94.208 56.32-60.416 13.312-135.168 20.48-225.28 20.48-26.624 0-52.224 0-76.8-2.048v140.288c24.576 2.048 50.176 2.048 76.8 2.048 90.112 0 164.864-9.216 225.28-24.576s92.16-33.792 94.208-58.368V641.024z m-318.464-101.376c-26.624 0-50.176 0-76.8-2.048l2.048 144.384c24.576 0 50.176 2.048 76.8 2.048 90.112 0 164.864-7.168 225.28-24.576 60.416-15.36 90.112-33.792 94.208-58.368V462.848c-2.048 22.528-33.792 40.96-94.208 56.32-62.464 13.312-137.216 20.48-227.328 20.48z m0-176.128c-26.624 0-50.176 0-76.8-2.048v142.336c24.576 2.048 50.176 2.048 76.8 2.048 90.112 0 164.864-9.216 225.28-24.576 60.416-15.36 92.16-33.792 94.208-58.368V286.72c-2.048 22.528-33.792 40.96-94.208 56.32-60.416 13.312-135.168 20.48-225.28 20.48z m0-198.656c-26.624 0-50.176 2.048-76.8 4.096V327.68c24.576 2.048 50.176 2.048 76.8 2.048 90.112 0 164.864-9.216 225.28-24.576s92.16-33.792 94.208-58.368c-2.048-22.528-33.792-43.008-94.208-58.368-60.416-16.384-135.168-23.552-225.28-23.552z" fill="#FF6666" /><path d="M279.552 388.096c-2.048 9.216-7.168 35.84-16.384 80.896l-18.432 78.848 76.8 2.048-19.456-78.848c-11.264-45.056-18.432-72.704-18.432-80.896l-4.096-2.048z" fill="#FF3333" /></svg>