<svg class="icon" style="width: 1em;height: 1em;vertical-align: middle;fill: currentColor;overflow: hidden;" viewBox="0 0 1024 1024" version="1.1" xmlns="http://www.w3.org/2000/svg"><path d="M551.936 556.032l59.392 16.384L645.12 444.416l-57.344-16.384c0-20.48-3.072-41.984-8.192-62.464l53.248-30.72-65.536-115.712-55.296 32.768c-14.336-14.336-31.744-27.648-50.176-38.912l16.384-59.392-128-33.792-16.384 59.392c-20.48 0-41.984 3.072-62.464 8.192l-30.72-53.248-113.664 67.584 30.72 53.248c-14.336 14.336-27.648 31.744-38.912 50.176L61.44 288.768 27.648 416.768l57.344 16.384c0 20.48 3.072 41.984 8.192 62.464l-53.248 30.72 65.536 115.712 53.248-30.72c14.336 14.336 31.744 27.648 50.176 38.912L193.536 706.56l128 33.792 16.384-59.392c20.48 0 41.984-3.072 62.464-8.192l30.72 53.248 115.712-65.536-30.72-53.248c13.312-16.384 26.624-33.792 35.84-51.2z m-317.44-67.584c-31.744-56.32-13.312-128 43.008-161.792 56.32-31.744 128-13.312 161.792 43.008 31.744 56.32 13.312 128-43.008 161.792-57.344 32.768-129.024 13.312-161.792-43.008z m621.568 407.552l75.776-43.008-20.48-34.816c9.216-9.216 17.408-20.48 23.552-31.744l38.912 9.216 22.528-82.944-38.912-9.216c0-13.312-2.048-27.648-5.12-39.936l33.792-19.456-41.984-76.8-32.768 17.408c-9.216-9.216-20.48-17.408-31.744-23.552l9.216-38.912-82.944-22.528-9.216 38.912c-13.312 0-27.648 2.048-39.936 5.12L737.28 509.952 661.504 552.96l19.456 33.792c-9.216 9.216-17.408 20.48-23.552 31.744l-43.008-9.216-22.528 84.992 38.912 9.216c0 13.312 2.048 27.648 5.12 39.936l-33.792 19.456 43.008 75.776 33.792-19.456c9.216 9.216 20.48 17.408 31.744 23.552l-9.216 38.912 82.944 22.528 9.216-38.912c13.312 0 27.648-2.048 39.936-5.12 2.048 2.048 22.528 35.84 22.528 35.84z m-128-153.6c-20.48-36.864-8.192-84.992 28.672-105.472 36.864-20.48 84.992-8.192 105.472 28.672 20.48 36.864 8.192 84.992-28.672 105.472-37.888 20.48-83.968 8.192-105.472-28.672z" fill="#BABABA" /></svg>