<svg class="icon" style="width: 1em;height: 1em;vertical-align: middle;fill: currentColor;overflow: hidden;" viewBox="0 0 1024 1024" version="1.1" xmlns="http://www.w3.org/2000/svg"><path d="M364.544 193.536l-6.144 29.696-70.656 374.784 150.528 28.672-11.264-63.488-68.608-13.312 54.272-285.696L757.76 329.728l93.184-16.384 5.12-26.624-491.52-93.184zM306.176 286.72L16.384 313.344l3.072 30.72 34.816 379.904 394.24-36.864-5.12-26.624-118.784-22.528-215.04 19.456L82.944 368.64l211.968-19.456 11.264-62.464z m630.784 52.224l-493.568 86.016 5.12 29.696 65.536 375.808 493.568-86.016-70.656-405.504z m-50.176 69.632l50.176 285.696L563.2 760.832l-50.176-285.696 373.76-66.56z m-223.232 95.232l30.72 171.008 117.76-113.664-148.48-57.344z" fill="#E89130" /></svg>