<svg class="icon" style="width: 1em;height: 1em;vertical-align: middle;fill: currentColor;overflow: hidden;" viewBox="0 0 1024 1024" version="1.1" xmlns="http://www.w3.org/2000/svg"><path d="M673.792 235.52L456.704 450.56c-30.72 30.72-32.768 81.92 0 112.64 16.384 16.384 36.864 24.576 57.344 24.576s40.96-8.192 57.344-22.528l215.04-217.088c-26.624-45.056-65.536-86.016-112.64-112.64z" fill="#4B9EE2" /><path d="M1024 512c0-282.624-229.376-512-512-512S0 229.376 0 512s229.376 512 512 512c106.496 0 204.8-32.768 288.768-88.064l88.064 88.064H1024V888.832l-88.064-88.064C991.232 716.8 1024 618.496 1024 512z m-192.512 0c0 176.128-143.36 319.488-319.488 319.488S192.512 688.128 192.512 512s143.36-319.488 319.488-319.488c59.392 0 114.688 16.384 161.792 45.056 0 0 79.872-75.776 86.016-77.824 43.008 28.672 77.824 65.536 108.544 108.544-4.096 6.144-79.872 83.968-79.872 83.968 26.624 43.008 43.008 100.352 43.008 159.744z" fill="#4B9EE2" /></svg>