<svg class="icon" style="width: 1em;height: 1em;vertical-align: middle;fill: currentColor;overflow: hidden;" viewBox="0 0 1024 1024" version="1.1" xmlns="http://www.w3.org/2000/svg"><path d="M940.032 470.016L857.088 532.48 645.12 692.224l296.96 297.984V468.992l-2.048 1.024z m-73.728-114.688v111.616l63.488-48.128-63.488-63.488zM526.336 782.336c-8.192 6.144-19.456 6.144-28.672 0l-80.896-60.416L114.688 1024h793.6L607.232 720.896l-80.896 61.44z m-368.64-427.008l-63.488 63.488 63.488 48.128V355.328zM512 0L379.904 133.12h264.192L512 0zM166.912 533.504L83.968 471.04l-2.048-2.048v521.216l296.96-297.984-211.968-158.72z" fill="#356FB0" /><path d="M700.416 175.104H203.776v322.56l307.2 231.424 307.2-231.424V175.104H700.416zM595.968 538.624h-286.72c-13.312 0-23.552-11.264-23.552-23.552 0-13.312 10.24-23.552 23.552-23.552h287.744c13.312 0 23.552 10.24 23.552 23.552s-10.24 23.552-24.576 23.552z m117.76-117.76H309.248c-13.312 0-23.552-10.24-23.552-23.552s10.24-23.552 23.552-23.552h405.504c13.312 0 23.552 10.24 23.552 23.552s-10.24 23.552-24.576 23.552z m0-117.76H309.248c-13.312 0-23.552-10.24-23.552-23.552 0-12.288 10.24-23.552 23.552-23.552h405.504c13.312 0 23.552 10.24 23.552 23.552s-10.24 23.552-24.576 23.552z" fill="#99CCFF" /></svg>