<svg class="icon" style="width: 1em;height: 1em;vertical-align: middle;fill: currentColor;overflow: hidden;" viewBox="0 0 1024 1024" version="1.1" xmlns="http://www.w3.org/2000/svg"><path d="M777.216 28.672H559.104v967.68h218.112c119.808 0 218.112-96.256 218.112-218.112V246.784c0-121.856-96.256-218.112-218.112-218.112z m0 627.712c-62.464 0-113.664-51.2-113.664-113.664s51.2-113.664 113.664-113.664S890.88 480.256 890.88 542.72s-50.176 113.664-113.664 113.664zM502.784 995.328h-256c-119.808 0-218.112-96.256-218.112-218.112V246.784c0-121.856 97.28-218.112 218.112-218.112h256v966.656z m-256-910.336c-89.088 0-160.768 71.68-160.768 160.768v533.504c0 89.088 71.68 161.792 160.768 161.792h200.704V84.992H246.784z" fill="#FF0021" /></svg>