<svg class="icon" style="width: 1em;height: 1em;vertical-align: middle;fill: currentColor;overflow: hidden;" viewBox="0 0 1024 1024" version="1.1" xmlns="http://www.w3.org/2000/svg"><path d="M947.2 325.632c45.056-109.568 48.128-198.656-5.12-254.976-61.44-59.392-206.848-40.96-361.472 31.744h-18.432C452.608 102.4 348.16 141.312 268.288 211.968c-66.56 61.44-115.712 139.264-136.192 227.328 15.36-18.432 100.352-116.736 197.632-173.056 4.096 0 27.648-15.36 27.648-15.36-4.096 0-48.128 45.056-57.344 54.272C88.064 523.264-34.816 851.968 61.44 949.248c63.488 63.488 178.176 48.128 310.272-24.576 57.344 27.648 120.832 38.912 189.44 38.912 91.136 0 175.104-24.576 247.808-72.704 76.8-48.128 130.048-124.928 163.84-211.968H739.328c-29.696 57.344-100.352 96.256-173.056 96.256-102.4 0-188.416-86.016-189.44-182.272v-7.168H993.28v-9.216c0-15.36 4.096-33.792 4.096-45.056-2.048-73.728-20.48-142.336-50.176-205.824zM129.024 930.816C79.872 881.664 95.232 788.48 152.576 676.864 181.248 753.664 225.28 819.2 282.624 867.328c18.432 15.36 38.912 29.696 61.44 43.008-98.304 50.176-176.128 59.392-215.04 20.48zM748.544 471.04h-368.64v-4.096c5.12-93.184 93.184-175.104 197.632-175.104 96.256 0 175.104 76.8 182.272 175.104v4.096h-11.264z m184.32-169.984c-18.432-29.696-43.008-61.44-68.608-86.016-43.008-38.912-91.136-70.656-145.408-91.136 96.256-45.056 178.176-52.224 221.184-9.216 31.744 41.984 27.648 108.544-7.168 186.368 0 4.096 0 4.096 0 0 0 4.096 0 4.096 0 0z" fill="#BABABA" /></svg>