<svg class="icon" style="width: 1em;height: 1em;vertical-align: middle;fill: currentColor;overflow: hidden;" viewBox="0 0 1024 1024" version="1.1" xmlns="http://www.w3.org/2000/svg"><path d="M759.808 244.736h235.52v156.672h-235.52V244.736z m0 242.688h235.52v156.672h-235.52V487.424z m0 238.592h235.52v156.672h-235.52V726.016z m-318.464 0h235.52v156.672h-235.52V726.016z m-319.488 0h235.52v156.672h-235.52V726.016z m411.648-584.704h33.792c50.176 3.072 88.064 15.36 126.976 31.744 73.728-33.792 177.152-8.192 243.712 16.384-83.968-8.192-182.272 0-238.592 33.792-58.368-47.104-166.912-60.416-269.312-47.104 27.648-20.48 62.464-31.744 103.424-34.816zM510.976 266.24c-60.416 3.072-108.544 23.552-140.288 50.176-98.304-45.056-269.312-24.576-332.8 34.816-5.12 3.072-11.264 8.192-10.24 13.312 56.32-16.384 123.904-31.744 193.536-24.576 70.656 5.12 121.856 28.672 160.768 60.416 71.68-63.488 177.152-100.352 310.272-98.304-46.08-22.528-113.664-38.912-181.248-35.84z m-68.608 222.208h235.52V645.12h-235.52V488.448z m-318.464 0h235.52V645.12h-235.52V488.448z" fill="#55B767" /></svg>