<svg class="icon" style="width: 1em;height: 1em;vertical-align: middle;fill: currentColor;overflow: hidden;" viewBox="0 0 1024 1024" version="1.1" xmlns="http://www.w3.org/2000/svg"><path d="M661.504 392.192h324.608v52.224H661.504v-52.224zM28.672 532.48h959.488v56.32H28.672V532.48z m0 140.288h959.488v56.32H28.672v-56.32z m537.6-516.096h34.816C655.36 160.768 696.32 174.08 737.28 190.464c78.848-34.816 188.416-8.192 259.072 18.432-88.064-8.192-193.536 0-253.952 34.816-63.488-48.128-179.2-63.488-287.744-48.128 31.744-21.504 68.608-33.792 111.616-38.912z m-24.576 134.144c-63.488 3.072-115.712 24.576-150.528 53.248C285.696 296.96 105.472 317.44 38.912 380.928c-7.168 3.072-11.264 8.192-10.24 15.36 60.416-18.432 132.096-33.792 205.824-26.624s129.024 29.696 169.984 63.488c74.752-68.608 188.416-106.496 330.752-105.472-50.176-21.504-121.856-39.936-193.536-36.864zM28.672 809.984h959.488v56.32H28.672v-56.32z" fill="#34A6F4" /></svg>