<svg class="icon" style="width: 1em;height: 1em;vertical-align: middle;fill: currentColor;overflow: hidden;" viewBox="0 0 1024 1024" version="1.1" xmlns="http://www.w3.org/2000/svg"><path d="M807.936 592.896c0 14.336 12.288 26.624 26.624 26.624h134.144c14.336 0 26.624-12.288 26.624-26.624V431.104c0-14.336-12.288-26.624-26.624-26.624H834.56c-14.336 0-26.624 12.288-26.624 26.624v161.792z m0 268.288c0 14.336 12.288 26.624 26.624 26.624h134.144c14.336 0 26.624-12.288 26.624-26.624V700.416c0-14.336-12.288-26.624-26.624-26.624H834.56c-14.336 0-26.624 12.288-26.624 26.624v160.768z" fill="#CE93D8" /><path d="M887.808 136.192H565.248v752.64h322.56c14.336 0 26.624-12.288 26.624-26.624V162.816c1.024-15.36-11.264-26.624-26.624-26.624z" fill="#9C27B0" /><path d="M807.936 323.584c0 14.336 12.288 26.624 26.624 26.624h134.144c14.336 0 26.624-12.288 26.624-26.624V162.816c0-14.336-12.288-26.624-26.624-26.624H834.56c-14.336 0-26.624 12.288-26.624 26.624v160.768z" fill="#9C27B0" /><path d="M565.248 672.768h241.664v80.896H565.248z m0-134.144h241.664v80.896H565.248z m0-134.144h241.664v80.896H565.248z m0-134.144h241.664v80.896H565.248z" fill="#FFFFFF" /><path d="M592.896 996.352L28.672 888.832V136.192L592.896 28.672z" fill="#7B1FA2" /><path d="M435.2 695.296h-73.728L227.328 463.872c-8.192-13.312-13.312-23.552-16.384-30.72h-1.024c1.024 13.312 2.048 32.768 2.048 59.392v202.752h-69.632v-368.64h78.848l129.024 224.256c6.144 10.24 11.264 20.48 16.384 30.72h1.024c-1.024-8.192-2.048-25.6-2.048-51.2V326.656h69.632v368.64z" fill="#FFFFFF" /></svg>