<svg class="icon" style="width: 1em;height: 1em;vertical-align: middle;fill: currentColor;overflow: hidden;" viewBox="0 0 1024 1024" version="1.1" xmlns="http://www.w3.org/2000/svg"><path d="M896 798.72l-6.144-32.768h-3.072C860.16 798.72 814.08 820.224 757.76 820.224c-87.04 0-137.216-64.512-137.216-130.048 0-108.544 91.136-166.912 256-164.864v-6.144c0-27.648-11.264-75.776-87.04-75.776-43.008 0-87.04 13.312-115.712 31.744l-21.504-70.656c31.744-19.456 91.136-37.888 158.72-37.888 138.24 0 181.248 87.04 181.248 181.248v156.672c0 39.936-3.072 80.896 2.048 97.28h-97.28V798.72z m-18.432-204.8c-65.536-2.048-148.48 14.336-148.48 80.896 0 43.008 27.648 62.464 62.464 62.464 43.008 0 74.752-27.648 83.968-59.392 3.072-8.192 2.048-16.384 2.048-24.576V593.92z" fill="#E794B0" /><path d="M993.28 701.44V543.744c0-37.888-6.144-78.848-26.624-108.544-8.192 62.464-39.936 120.832-89.088 161.792v54.272c0 6.144 2.048 16.384-2.048 24.576-10.24 31.744-40.96 59.392-83.968 59.392-34.816 0-62.464-19.456-62.464-62.464v-6.144c-10.24 2.048-18.432 2.048-29.696 2.048-26.624 0-51.2-3.072-74.752-11.264-2.048 8.192-2.048 18.432-2.048 26.624 0 65.536 49.152 132.096 135.168 132.096 56.32 0 100.352-21.504 129.024-54.272h4.096l6.144 32.768h99.328c-6.144-13.312-3.072-54.272-3.072-93.184z" fill="#E06C92" /><path d="M191.488 632.832l-51.2 164.864h-112.64l191.488-593.92h140.288l194.56 593.92H437.248l-54.272-164.864H191.488z m171.008-81.92l-48.128-150.528c-11.264-35.84-21.504-64.512-29.696-113.664h-2.048c-8.192 49.152-18.432 78.848-27.648 113.664l-46.08 150.528h153.6z" fill="#E794B0" /><path d="M435.2 438.272c-16.384 40.96-40.96 78.848-72.704 108.544v2.048h-2.048c-40.96 49.152-92.16 65.536-151.552 82.944h172.032l54.272 164.864h116.736l-116.736-358.4z" fill="#E06C92" /></svg>