<svg class="icon" style="width: 1em;height: 1em;vertical-align: middle;fill: currentColor;overflow: hidden;" viewBox="0 0 1024 1024" version="1.1" xmlns="http://www.w3.org/2000/svg"><path d="M665.6 390.144h331.776v53.248H665.6v-53.248z m-649.216 143.36h982.016v58.368H16.384v-58.368z m0 143.36h982.016v58.368H16.384v-58.368z m550.912-528.384H604.16c54.272 3.072 97.28 17.408 138.24 33.792 80.896-35.84 193.536-8.192 265.216 18.432-91.136-8.192-198.656 0-260.096 35.84-65.536-49.152-183.296-65.536-293.888-49.152 31.744-21.504 69.632-33.792 113.664-38.912z m-25.6 137.216c-65.536 3.072-117.76 25.6-153.6 54.272-107.52-48.128-292.864-27.648-361.472 37.888-7.168 3.072-12.288 8.192-10.24 15.36 61.44-18.432 135.168-33.792 210.944-27.648s132.096 30.72 174.08 65.536c76.8-70.656 193.536-109.568 338.944-107.52-51.2-22.528-124.928-41.984-198.656-37.888zM16.384 817.152h982.016v58.368H16.384v-58.368z" fill="#1A75CE" /></svg>