<svg class="icon" style="width: 1em;height: 1em;vertical-align: middle;fill: currentColor;overflow: hidden;" viewBox="0 0 1024 1024" version="1.1" xmlns="http://www.w3.org/2000/svg"><path d="M808.96 151.552v825.344c0 17.408-14.336 30.72-30.72 30.72H97.28c-17.408 0-30.72-14.336-30.72-30.72V47.104c0-17.408 14.336-30.72 30.72-30.72h574.464L808.96 151.552z" fill="#FCFCFC" /><path d="M808.96 151.552H703.488c-17.408 0-30.72-14.336-30.72-30.72V16.384L808.96 151.552z" fill="#E5E5E5" /><path d="M151.552 227.328h571.392V245.76H151.552z m0 95.232h571.392v18.432H151.552z m0 96.256h571.392v18.432H151.552z m0 98.304h571.392v18.432H151.552z m0 95.232h571.392v18.432H151.552z m0 96.256h571.392V727.04H151.552z m0 96.256h571.392v18.432H151.552z m0 97.28h571.392v18.432H151.552z" fill="#EBEBEB" /><path d="M897.024 369.664l-97.28-97.28 51.2-51.2c12.288-12.288 30.72-12.288 43.008 0l54.272 54.272c12.288 12.288 12.288 30.72 0 43.008l-51.2 51.2z" fill="#F7747E" /><path d="M329.87136 740.8128l436.61312-436.62336 98.47808 98.47808-436.61312 436.62336z" fill="#EF8720" /><path d="M751.95392 319.97952l61.5424-61.5424 98.48832 98.46784-61.5424 61.5424z" fill="#E15A23" /><path d="M361.73824 772.67968l436.61312-436.6336 34.75456 34.75456-436.61312 436.6336z" fill="#E15A23" /><path d="M429.056 838.656L290.816 911.36l-69.632 37.888 28.672-54.272 79.872-153.6z" fill="#FCE0B9" /><path d="M290.816 911.36l-69.632 37.888 28.672-54.272z" fill="#58717F" /></svg>