<svg class="icon" style="width: 1em;height: 1em;vertical-align: middle;fill: currentColor;overflow: hidden;" viewBox="0 0 1024 1024" version="1.1" xmlns="http://www.w3.org/2000/svg"><path d="M941.056 353.28c-11.264-2.048-20.48-5.12-31.744-2.048-24.576 2.048-52.224 15.36-76.8 20.48-18.432 2.048-33.792-11.264-34.816-31.744-5.12-58.368-5.12-118.784 0-177.152 0-8.192-7.168-13.312-13.312-13.312-66.56-2.048-132.096 5.12-202.752 20.48-18.432 5.12-31.744 20.48-31.744 34.816 2.048 34.816 26.624 76.8 15.36 113.664-8.192 33.792-34.816 58.368-71.68 65.536-33.792 7.168-70.656-8.192-87.04-34.816-21.504-31.744-11.264-76.8-20.48-113.664-5.12-18.432-21.504-26.624-39.936-24.576-66.56 7.168-132.096 21.504-195.584 47.104-8.192 2.048-13.312 11.264-8.192 18.432 24.576 53.248 41.984 110.592 58.368 168.96 5.12 18.432-7.168 34.816-24.576 39.936-24.576 7.168-53.248 2.048-78.848 8.192-11.264 2.048-20.48 7.168-28.672 13.312-31.744 20.48-45.056 53.248-39.936 87.04 5.12 31.744 28.672 58.368 58.368 71.68 38.912 13.312 71.68-11.264 110.592-13.312 18.432-2.048 33.792 11.264 34.816 31.744 5.12 58.368 5.12 118.784 0 177.152 0 8.192 7.168 13.312 13.312 13.312 66.56 5.12 134.144-5.12 202.752-20.48 18.432-5.12 31.744-20.48 31.744-34.816-2.048-38.912-28.672-76.8-18.432-116.736 8.192-31.744 39.936-58.368 71.68-63.488s70.656 8.192 87.04 34.816c24.576 31.744 11.264 78.848 20.48 116.736 5.12 18.432 21.504 26.624 39.936 24.576 66.56-7.168 134.144-20.48 195.584-47.104 8.192-2.048 13.312-11.264 8.192-18.432-24.576-53.248-41.984-110.592-58.368-168.96-5.12-18.432 7.168-34.816 24.576-39.936 34.816-8.192 76.8 2.048 110.592-21.504 24.576-20.48 39.936-53.248 33.792-84.992 3.072-41.984-23.552-70.656-54.272-80.896z" fill="#BABABA" /></svg>