<svg class="icon" style="width: 1em;height: 1em;vertical-align: middle;fill: currentColor;overflow: hidden;" viewBox="0 0 1024 1024" version="1.1" xmlns="http://www.w3.org/2000/svg"><path d="M349.184 796.672c0 30.72-24.576 58.368-58.368 58.368s-58.368-24.576-58.368-58.368V545.792c0-30.72 24.576-58.368 58.368-58.368s58.368 24.576 58.368 58.368v250.88z m166.912 66.56c0 30.72-24.576 58.368-58.368 58.368-33.792 0-55.296-24.576-55.296-58.368V482.304c0-30.72 24.576-58.368 58.368-58.368 33.792 0 58.368 24.576 58.368 58.368v380.928h-3.072zM179.2 741.376c0 30.72-24.576 58.368-58.368 58.368s-58.368-24.576-58.368-58.368V604.16c0-30.72 24.576-58.368 58.368-58.368s58.368 27.648 58.368 58.368v137.216z m503.808 183.296c0 30.72-24.576 58.368-58.368 58.368-30.72 0-55.296-27.648-55.296-58.368V417.792c0-30.72 24.576-58.368 58.368-58.368 30.72 0 58.368 24.576 58.368 58.368v506.88h-3.072z" fill="#EDBE35" /><path d="M866.304 899.072c-11.264 0-19.456-3.072-30.72-5.12l-69.632-22.528c-11.264-3.072-19.456-16.384-14.336-27.648 3.072-11.264 16.384-19.456 27.648-14.336l72.704 22.528c14.336 5.12 30.72 3.072 44.032-8.192 14.336-8.192 19.456-24.576 19.456-38.912V339.968c0-22.528-14.336-41.984-33.792-47.104L201.728 87.04c-14.336-5.12-30.72-3.072-44.032 5.12-11.264 11.264-19.456 24.576-19.456 41.984v319.488c0 14.336-11.264 22.528-22.528 22.528-14.336 0-22.528-11.264-22.528-22.528V134.144c0-30.72 14.336-58.368 38.912-74.752 24.576-19.456 55.296-22.528 83.968-14.336l678.912 205.824c38.912 11.264 66.56 50.176 66.56 92.16v464.896c0 30.72-14.336 58.368-38.912 77.824-17.408 5.12-36.864 13.312-56.32 13.312" fill="#EDBE35" /></svg>