<svg class="icon" style="width: 1em;height: 1em;vertical-align: middle;fill: currentColor;overflow: hidden;" viewBox="0 0 1024 1024" version="1.1" xmlns="http://www.w3.org/2000/svg"><path d="M995.328 28.672v870.4H801.792v-97.28h97.28V124.928H124.928v676.864h289.792v97.28H28.672v-870.4z" fill="#FFC850" /><path d="M221.184 221.184h580.608V317.44H221.184z m0 193.536h580.608v96.256H221.184z m0 194.56h193.536v96.256H221.184z" fill="#FFFAB4" /><path d="M609.28 609.28c-81.92 0-145.408 62.464-145.408 145.408 0 44.032 19.456 81.92 48.128 106.496v135.168l97.28-48.128 97.28 48.128V860.16c28.672-24.576 48.128-62.464 48.128-106.496-1.024-81.92-63.488-144.384-145.408-144.384z m0 192.512c-28.672 0-48.128-19.456-48.128-48.128s19.456-48.128 48.128-48.128c24.576 0 48.128 19.456 48.128 48.128s-19.456 48.128-48.128 48.128z" fill="#FF507D" /></svg>