<svg class="icon" style="width: 1em;height: 1em;vertical-align: middle;fill: currentColor;overflow: hidden;" viewBox="0 0 1024 1024" version="1.1" xmlns="http://www.w3.org/2000/svg"><path d="M995.328 842.752L631.808 481.28c19.456-40.96 30.72-87.04 30.72-136.192 0-175.104-142.336-317.44-317.44-317.44s-317.44 142.336-317.44 317.44 142.336 317.44 317.44 317.44c48.128 0 92.16-11.264 133.12-29.696l64.512 54.272 60.416 5.12 2.048 59.392 21.504 29.696h64.512l1.024 64.512 30.72 27.648 59.392 1.024s-4.096 55.296 2.048 61.44c32.768 35.84 56.32 59.392 56.32 59.392h154.624V842.752zM291.84 394.24c-58.368 0-105.472-47.104-105.472-105.472 0-58.368 47.104-105.472 105.472-105.472 58.368 0 105.472 47.104 105.472 105.472 1.024 58.368-47.104 105.472-105.472 105.472z" fill="#EFC75E" /><path d="M995.328 965.632V814.08l-352.256-358.4c-13.312 36.864-33.792 69.632-58.368 99.328l410.624 410.624z" fill="#CA9F30" /></svg>