<svg class="icon" style="width: 1em;height: 1em;vertical-align: middle;fill: currentColor;overflow: hidden;" viewBox="0 0 1024 1024" version="1.1" xmlns="http://www.w3.org/2000/svg"><path d="M135.168 570.368c10.24 3.072 18.432 5.12 24.576 3.072 5.12-2.048 12.288-7.168 17.408-15.36s7.168-13.312 5.12-17.408c-3.072-4.096-8.192-8.192-18.432-11.264l-15.36-7.168-27.648 43.008c0 2.048 14.336 5.12 14.336 5.12z m-74.752 37.888l-2.048-2.048V604.16l70.656-115.712c0-2.048 2.048-2.048 3.072-2.048l51.2 18.432c15.36 7.168 25.6 15.36 30.72 27.648 5.12 12.288 2.048 25.6-7.168 39.936-3.072 5.12-8.192 10.24-12.288 15.36-5.12 3.072-10.24 7.168-17.408 10.24-7.168 3.072-15.36 5.12-22.528 3.072-7.168-2.048-17.408-2.048-27.648-7.168l-20.48-8.192-18.432 29.696c0 2.048-2.048 2.048-3.072 2.048 2.048 1.024-24.576-9.216-24.576-9.216zM266.24 650.24l-2.048-2.048v-2.048l30.72-51.2c3.072-5.12 3.072-8.192 3.072-10.24 0-2.048-2.048-3.072-10.24-7.168l-17.408-8.192-39.936 63.488c0 2.048-2.048 2.048-3.072 2.048l-25.6-10.24-2.048-2.048v-2.048l70.656-115.712c0-2.048 2.048-2.048 3.072-2.048l25.6 10.24 2.048 2.048v2.048l-17.408 27.648 20.48 7.168c15.36 5.12 24.576 12.288 29.696 20.48 3.072 8.192 3.072 18.432-5.12 30.72L296.96 656.384c0 2.048-2.048 2.048-3.072 2.048-1.024 0-27.648-8.192-27.648-8.192z m109.568 13.312c10.24 3.072 18.432 5.12 25.6 3.072s12.288-7.168 17.408-15.36 7.168-13.312 5.12-17.408c-2.048-3.072-7.168-8.192-17.408-12.288l-15.36-7.168-27.648 43.008 12.288 6.144z m-75.776 37.888l-2.048-2.048v-2.048l72.704-115.712c0-2.048 2.048-2.048 3.072-2.048l53.248 20.48c17.408 7.168 27.648 15.36 30.72 27.648 5.12 12.288 2.048 25.6-7.168 39.936-3.072 5.12-8.192 10.24-12.288 15.36-5.12 3.072-10.24 7.168-17.408 10.24-7.168 3.072-15.36 3.072-24.576 3.072-7.168 0-17.408-3.072-27.648-7.168l-20.48-8.192-18.432 29.696c0 2.048-2.048 2.048-3.072 2.048l-26.624-11.264z" fill="#FFFFFF" /><path d="M512 53.248l483.328 193.536V778.24L512 970.752 28.672 778.24V246.784" fill="#EAEAEA" /><path d="M976.896 238.592L512 53.248l-184.32 73.728 464.896 186.368zM135.168 567.296c10.24 3.072 18.432 5.12 24.576 3.072 5.12-2.048 12.288-7.168 17.408-15.36s7.168-13.312 5.12-17.408c-2.048-5.12-7.168-8.192-17.408-12.288l-15.36-7.168-27.648 43.008c-1.024 3.072 13.312 6.144 13.312 6.144z m266.24 97.28c7.168-2.048 12.288-7.168 17.408-15.36s7.168-13.312 5.12-17.408c-2.048-3.072-7.168-8.192-17.408-12.288l-15.36-7.168-27.648 43.008 12.288 5.12c10.24 4.096 19.456 5.12 25.6 4.096z" fill="#6781B2" /><path d="M28.672 778.24l470.016 187.392V448.512L28.672 261.12V778.24z m345.088-200.704l53.248 20.48c17.408 7.168 27.648 15.36 30.72 27.648 5.12 12.288 2.048 25.6-7.168 39.936-3.072 5.12-8.192 10.24-12.288 15.36-5.12 3.072-10.24 7.168-17.408 10.24-7.168 3.072-15.36 3.072-24.576 3.072-7.168 0-17.408-3.072-27.648-7.168l-20.48-8.192-18.432 29.696c0 2.048-2.048 2.048-3.072 2.048l-27.648-12.288-1.024-2.048v-2.048l72.704-115.712c0-1.024 2.048-1.024 3.072-1.024z m-99.328-76.8l25.6 10.24 2.048 2.048v2.048L284.672 542.72l20.48 7.168c15.36 5.12 24.576 12.288 29.696 20.48 3.072 8.192 3.072 18.432-5.12 30.72L296.96 653.312c0 2.048-2.048 2.048-3.072 2.048l-27.648-8.192-2.048-2.048v-2.048l30.72-51.2c3.072-5.12 3.072-8.192 3.072-10.24 0-2.048-2.048-3.072-10.24-7.168l-17.408-8.192-39.936 63.488c0 2.048-2.048 2.048-3.072 2.048l-25.6-10.24-2.048-2.048v-2.048l71.68-115.712c0-1.024 1.024-1.024 3.072-1.024z m-215.04 101.376l70.656-115.712c0-2.048 2.048-2.048 3.072-2.048l51.2 18.432c15.36 7.168 25.6 15.36 30.72 27.648 5.12 12.288 2.048 25.6-7.168 39.936-3.072 5.12-8.192 10.24-12.288 15.36-5.12 3.072-10.24 7.168-17.408 10.24-7.168 3.072-15.36 5.12-22.528 3.072-7.168-2.048-17.408-2.048-27.648-7.168l-20.48-8.192-17.408 30.72c0 2.048-2.048 2.048-3.072 2.048l-25.6-10.24-2.048-2.048v-2.048z m152.576-429.056L47.104 238.592 512 424.96l164.864-65.536z m600.064 160.768v146.432l-19.456-12.288-18.432 27.648-21.504-12.288-18.432 27.648-19.456-12.288-18.432 27.648V379.904l-171.008 68.608v517.12L995.328 778.24V261.12z" fill="#6781B2" /></svg>