<svg class="icon" style="width: 1em;height: 1em;vertical-align: middle;fill: currentColor;overflow: hidden;" viewBox="0 0 1024 1024" version="1.1" xmlns="http://www.w3.org/2000/svg"><path d="M161.792 578.56c27.648 0 49.152-4.096 61.44-15.36 12.288-10.24 21.504-27.648 26.624-52.224 4.096-23.552 3.072-37.888-4.096-48.128-7.168-9.216-24.576-13.312-51.2-13.312h-45.056l-24.576 130.048c0-1.024 36.864-1.024 36.864-1.024zM15.36 737.28c-1.024 0-4.096-1.024-4.096-3.072-1.024-1.024-1.024-3.072-1.024-6.144l64.512-342.016c0-3.072 3.072-6.144 6.144-6.144h141.312c45.056 0 76.8 12.288 98.304 36.864 21.504 24.576 27.648 58.368 18.432 100.352-3.072 17.408-9.216 33.792-17.408 48.128-7.168 13.312-18.432 27.648-30.72 39.936-15.36 13.312-31.744 24.576-51.2 30.72-18.432 6.144-40.96 9.216-70.656 9.216H112.64l-17.408 86.016c0 3.072-3.072 6.144-6.144 6.144H15.36z m531.456-91.136c-1.024 0-4.096-1.024-4.096-3.072-1.024-1.024-1.024-3.072-1.024-6.144l29.696-150.528c3.072-13.312 1.024-24.576-1.024-29.696-3.072-3.072-9.216-7.168-30.72-7.168h-52.224l-34.816 189.44c0 3.072-3.072 6.144-6.144 6.144h-72.704c-1.024 0-4.096-1.024-4.096-3.072-1.024-2.048-1.024-4.096-1.024-7.168l64.512-342.016c0-3.072 3.072-6.144 6.144-6.144H512c1.024 0 4.096 1.024 4.096 3.072 1.024 1.024 1.024 3.072 1.024 6.144L501.76 378.88h55.296c44.032 0 70.656 7.168 88.064 23.552 17.408 16.384 23.552 40.96 15.36 76.8l-31.744 160.768c0 3.072-3.072 6.144-6.144 6.144h-75.776c0-1.024 0 0 0 0z m279.552-67.584c29.696 0 51.2-4.096 64.512-15.36s23.552-27.648 27.648-52.224c4.096-23.552 3.072-37.888-4.096-48.128-7.168-9.216-26.624-13.312-52.224-13.312h-46.08l-26.624 130.048c-1.024-1.024 36.864-1.024 36.864-1.024zM674.816 737.28c-1.024 0-4.096-1.024-6.144-3.072-1.024-1.024-1.024-3.072-1.024-6.144l66.56-342.016c0-3.072 3.072-6.144 7.168-6.144h146.432c46.08 0 79.872 12.288 102.4 36.864 21.504 24.576 27.648 58.368 20.48 100.352-3.072 17.408-9.216 33.792-17.408 48.128-7.168 13.312-18.432 27.648-31.744 39.936-15.36 13.312-33.792 24.576-54.272 30.72-18.432 6.144-44.032 9.216-74.752 9.216h-58.368L757.76 731.136c0 3.072-3.072 6.144-7.168 6.144h-75.776z" fill="#7A9ACE" /></svg>