<svg class="icon" style="width: 1em;height: 1em;vertical-align: middle;fill: currentColor;overflow: hidden;" viewBox="0 0 1024 1024" version="1.1" xmlns="http://www.w3.org/2000/svg"><path d="M990.208 607.232C947.2 593.92 921.6 555.008 921.6 510.976s28.672-81.92 68.608-97.28c12.288-4.096 19.456-17.408 15.36-30.72-12.288-46.08-30.72-89.088-54.272-131.072-6.144-12.288-21.504-15.36-34.816-10.24-14.336 8.192-32.768 12.288-48.128 12.288-56.32 0-101.376-46.08-101.376-101.376 0-15.36 4.096-34.816 12.288-48.128 6.144-12.288 2.048-25.6-10.24-34.816-38.912-22.528-82.944-40.96-130.048-52.224-12.288-4.096-25.6 4.096-30.72 15.36-14.336 43.008-52.224 68.608-97.28 68.608s-81.92-28.672-97.28-68.608c-4.096-12.288-17.408-19.456-30.72-15.36-46.08 12.288-89.088 30.72-131.072 54.272-12.288 6.144-15.36 21.504-10.24 34.816 8.192 14.336 12.288 32.768 12.288 48.128 0 56.32-46.08 101.376-101.376 101.376-15.36 0-34.816-4.096-48.128-12.288-12.288-6.144-25.6-2.048-34.816 10.24-23.552 40.96-43.008 84.992-54.272 131.072-4.096 12.288 4.096 25.6 15.36 30.72 43.008 14.336 68.608 52.224 68.608 97.28s-28.672 81.92-68.608 97.28c-12.288 4.096-19.456 17.408-15.36 30.72 12.288 46.08 30.72 89.088 54.272 131.072 6.144 12.288 21.504 15.36 34.816 10.24 14.336-8.192 32.768-12.288 48.128-12.288 56.32 0 101.376 46.08 101.376 101.376 0 15.36-4.096 34.816-12.288 48.128-6.144 12.288-2.048 25.6 10.24 34.816 40.96 23.552 84.992 43.008 131.072 54.272h6.144c10.24 0 19.456-6.144 23.552-17.408 14.336-43.008 52.224-68.608 97.28-68.608s81.92 28.672 97.28 68.608c4.096 12.288 17.408 19.456 30.72 15.36 46.08-12.288 89.088-30.72 131.072-54.272 12.288-6.144 15.36-21.504 10.24-34.816-8.192-14.336-12.288-32.768-12.288-48.128 0-56.32 46.08-101.376 101.376-101.376 15.36 0 34.816 4.096 48.128 12.288 12.288 6.144 25.6 2.048 34.816-10.24 23.552-40.96 43.008-84.992 54.272-131.072 5.12-12.288-1.024-27.648-15.36-31.744z m-475.136 56.32c-84.992 0-153.6-68.608-153.6-153.6s68.608-153.6 153.6-153.6 153.6 68.608 153.6 153.6-69.632 153.6-153.6 153.6z" fill="#BABABA" /></svg>