<svg class="icon" style="width: 1em;height: 1em;vertical-align: middle;fill: currentColor;overflow: hidden;" viewBox="0 0 1024 1024" version="1.1" xmlns="http://www.w3.org/2000/svg"><path d="M941.056 90.112H84.992c-32.768 0-57.344 26.624-57.344 57.344v592.896c0 32.768 26.624 57.344 57.344 57.344h854.016c32.768 0 57.344-26.624 57.344-57.344V149.504c4.096-33.792-22.528-59.392-55.296-59.392z" fill="#BABABA" /><path d="M84.992 233.472h856.064v506.88H84.992V233.472z" fill="#F2F2F2" /><path d="M241.664 166.912m-19.456 0a19.456 19.456 0 1 0 38.912 0 19.456 19.456 0 1 0-38.912 0Z" fill="#54B845" /><path d="M173.056 166.912m-19.456 0a19.456 19.456 0 1 0 38.912 0 19.456 19.456 0 1 0-38.912 0Z" fill="#FBD303" /><path d="M109.568 166.912m-19.456 0a19.456 19.456 0 1 0 38.912 0 19.456 19.456 0 1 0-38.912 0Z" fill="#F0582F" /><path d="M389.12 922.624c-12.288-8.192-22.528-17.408-30.72-28.672-9.216-11.264-18.432-23.552-26.624-35.84-19.456-27.648-33.792-58.368-44.032-91.136-12.288-37.888-18.432-73.728-18.432-108.544 0-38.912 8.192-73.728 24.576-102.4 12.288-22.528 30.72-40.96 52.224-54.272s46.08-20.48 70.656-20.48c9.216 0 18.432 1.024 28.672 4.096 7.168 2.048 16.384 5.12 26.624 9.216 13.312 5.12 21.504 8.192 23.552 9.216 8.192 3.072 14.336 4.096 20.48 4.096 4.096 0 10.24-1.024 16.384-3.072 4.096-1.024 10.24-3.072 20.48-8.192 9.216-3.072 17.408-6.144 23.552-9.216 9.216-3.072 18.432-5.12 26.624-6.144 10.24-1.024 19.456-2.048 28.672-1.024 17.408 1.024 33.792 5.12 48.128 10.24 25.6 10.24 46.08 26.624 61.44 49.152-6.144 4.096-12.288 8.192-18.432 13.312-12.288 10.24-22.528 23.552-30.72 37.888-10.24 19.456-16.384 40.96-16.384 62.464 0 26.624 7.168 51.2 20.48 71.68 9.216 15.36 22.528 27.648 37.888 37.888 8.192 5.12 14.336 9.216 20.48 11.264-3.072 9.216-6.144 18.432-10.24 27.648-8.192 20.48-19.456 39.936-30.72 57.344-11.264 15.36-19.456 27.648-25.6 34.816-10.24 12.288-19.456 20.48-29.696 27.648s-23.552 11.264-35.84 11.264c-9.216 0-17.408-1.024-25.6-3.072-7.168-2.048-14.336-5.12-21.504-8.192-7.168-3.072-15.36-6.144-22.528-8.192-9.216-2.048-19.456-4.096-28.672-4.096-10.24 0-19.456 1.024-28.672 4.096-8.192 2.048-15.36 5.12-22.528 8.192-10.24 4.096-17.408 7.168-21.504 8.192-8.192 2.048-16.384 4.096-24.576 4.096-13.312 0-25.6-3.072-37.888-11.264z m171.008-460.8c-17.408 8.192-32.768 12.288-49.152 11.264-2.048-16.384 0-32.768 7.168-51.2 6.144-15.36 14.336-29.696 24.576-41.984 11.264-13.312 25.6-23.552 40.96-31.744 16.384-8.192 31.744-13.312 47.104-13.312 2.048 17.408 0 33.792-6.144 51.2-6.144 16.384-14.336 30.72-24.576 44.032-11.264 13.312-24.576 23.552-39.936 31.744z" fill="#AE96CC" /></svg>