<svg class="icon" style="width: 1em;height: 1em;vertical-align: middle;fill: currentColor;overflow: hidden;" viewBox="0 0 1024 1024" version="1.1" xmlns="http://www.w3.org/2000/svg"><path d="M924.672 35.84S562.176 40.96 328.704 334.848c-13.312 16.384-26.624 33.792-36.864 50.176-8.192 9.216-15.36 110.592-15.36 110.592s-9.216-7.168-13.312-18.432c-7.168-15.36-9.216-33.792-9.216-33.792C122.88 656.384 160.768 768 160.768 768c-9.216 26.624-31.744 38.912-58.368 97.28-27.648 58.368-26.624 113.664-26.624 113.664 0 11.264 4.096 11.264 9.216 2.048 0 0 29.696-56.32 54.272-95.232 15.36-24.576 61.44-81.92 61.44-81.92s74.752 4.096 165.888-20.48c-7.168-4.096-33.792-9.216-50.176-18.432-16.384-9.216-26.624-20.48-26.624-20.48L614.4 669.696c45.056-26.624 86.016-61.44 119.808-101.376C906.24 362.496 947.2 52.224 947.2 52.224c-3.072-9.216-11.264-16.384-22.528-16.384zM602.112 361.472S450.56 494.592 375.808 567.296c-74.752 70.656-176.128 239.616-176.128 239.616L160.768 768s27.648-69.632 138.24-203.776 296.96-215.04 296.96-215.04c22.528-12.288 26.624-7.168 6.144 12.288z" fill="#EF712F" /></svg>