<svg class="icon" style="width: 1em;height: 1em;vertical-align: middle;fill: currentColor;overflow: hidden;" viewBox="0 0 1024 1024" version="1.1" xmlns="http://www.w3.org/2000/svg"><path d="M552.96 35.84L220.16 228.352V614.4L552.96 807.936 888.832 614.4V228.352L552.96 35.84z" fill="#737373" /><path d="M220.16 228.352L552.96 421.888l334.848-193.536L552.96 35.84 220.16 228.352z m0 386.048L552.96 807.936 888.832 614.4 552.96 421.888 220.16 614.4z" fill="#737373" /><path d="M209.92 632.832l333.824 191.488c3.072 2.048 6.144 3.072 10.24 3.072 3.072 0 6.144-2.048 10.24-3.072l334.848-193.536c6.144-3.072 10.24-10.24 10.24-18.432V228.352c0-6.144-3.072-13.312-10.24-18.432L563.2 18.432c-6.144-3.072-13.312-3.072-19.456 0L209.92 211.968c-6.144 3.072-10.24 10.24-10.24 18.432v386.048c0 5.12 4.096 11.264 10.24 16.384zM552.96 58.368l293.888 169.984L552.96 401.408 259.072 228.352 552.96 58.368m41.984 363.52l274.432-158.72v339.968L573.44 773.12V433.152M239.616 579.584v-317.44l274.432 158.72 19.456 11.264v339.968L239.616 603.136" fill="#FFFFFF" /><path d="M301.056 571.392l-175.104 100.352v201.728l175.104 102.4 175.104-102.4V672.768l-175.104-101.376z" fill="#FFFFFF" /><path d="M125.952 672.768l175.104 100.352 175.104-100.352-175.104-100.352-175.104 100.352z m0 200.704l175.104 102.4 175.104-102.4-175.104-100.352-175.104 100.352z" fill="#FFFFFF" /><path d="M120.832 883.712l175.104 100.352c2.048 2.048 3.072 2.048 5.12 2.048s3.072 0 5.12-2.048L481.28 883.712c3.072-2.048 5.12-5.12 5.12-8.192V672.768c0-3.072-2.048-6.144-5.12-8.192L306.176 563.2c-3.072-2.048-6.144-2.048-10.24 0l-175.104 100.352c-3.072 2.048-5.12 5.12-5.12 8.192v201.728c0 4.096 2.048 8.192 5.12 10.24zM301.056 583.68l153.6 89.088-153.6 91.136-153.6-91.136 153.6-89.088m21.504 189.44l143.36-82.944v178.176l-153.6 87.04V780.288m-175.104 75.776V690.176l143.36 82.944 10.24 6.144v176.128l-153.6-89.088" fill="#444444" /><path d="M495.616 737.28l-113.664 65.536v130.048l113.664 65.536 113.664-65.536V802.816L495.616 737.28z" fill="#517889" /><path d="M381.952 802.816l113.664 64.512 113.664-64.512L495.616 737.28l-113.664 65.536z" fill="#517889" /><path d="M381.952 932.864l113.664 65.536 113.664-65.536-113.664-65.536-113.664 65.536z" fill="#517889" /><path d="M377.856 940.032L491.52 1005.568c2.048 0 2.048 2.048 3.072 2.048 2.048 0 2.048 0 3.072-2.048l113.664-65.536c2.048-2.048 3.072-3.072 3.072-6.144V801.792c0-2.048-2.048-5.12-3.072-6.144l-113.664-65.536c-2.048-2.048-5.12-2.048-6.144 0l-113.664 65.536c-2.048 2.048-3.072 3.072-3.072 6.144v132.096c0 3.072 2.048 4.096 3.072 6.144z m117.76-194.56l100.352 57.344-100.352 57.344-100.352-59.392 100.352-55.296m13.312 121.856l92.16-54.272v115.712l-100.352 57.344V870.4m-112.64 51.2V814.08l92.16 54.272 6.144 3.072v115.712l-100.352-57.344" fill="#FFFFFF" /></svg>