<svg class="icon" style="width: 1em;height: 1em;vertical-align: middle;fill: currentColor;overflow: hidden;" viewBox="0 0 1024 1024" version="1.1" xmlns="http://www.w3.org/2000/svg"><path d="M824.32 411.648c-60.416 0-80.896 30.72-80.896 56.32 0 27.648 13.312 47.104 95.232 89.088C958.464 614.4 995.328 670.72 995.328 752.64c0 122.88-93.184 188.416-220.16 188.416-66.56 0-123.904-13.312-156.672-32.768-5.12-2.048-6.144-6.144-6.144-12.288v-112.64c0-8.192 4.096-10.24 9.216-6.144 48.128 31.744 103.424 45.056 153.6 45.056 60.416 0 86.016-25.6 86.016-59.392 0-27.648-17.408-52.224-95.232-92.16-108.544-52.224-153.6-104.448-153.6-193.536 0-98.304 77.824-181.248 211.968-181.248 65.536 0 111.616 10.24 137.216 21.504 6.144 4.096 8.192 10.24 8.192 15.36v105.472c0 6.144-4.096 10.24-11.264 8.192-34.816-21.504-84.992-34.816-134.144-34.816z m-659.456 91.136c17.408 1.024 31.744 1.024 61.44 1.024 89.088 0 174.08-31.744 174.08-153.6 0-97.28-60.416-146.432-162.816-146.432-30.72 0-59.392 1.024-73.728 2.048l1.024 296.96zM28.672 95.232c0-5.12 10.24-9.216 17.408-9.216C95.232 83.968 167.936 81.92 243.712 81.92c211.968 0 294.912 116.736 294.912 265.216 0 194.56-141.312 278.528-314.368 278.528-29.696 0-39.936-1.024-60.416-1.024v293.888c0 6.144-2.048 9.216-9.216 9.216H36.864c-6.144 0-9.216-2.048-9.216-9.216l1.024-823.296z" fill="#31C5F0" /></svg>