<svg class="icon" style="width: 1em;height: 1em;vertical-align: middle;fill: currentColor;overflow: hidden;" viewBox="0 0 1024 1024" version="1.1" xmlns="http://www.w3.org/2000/svg"><path d="M16.384 161.792v709.632l553.984 98.304V54.272L16.384 161.792z" fill="#4596EC" /><path d="M1007.616 270.336L703.488 522.24l-82.944-66.56V245.76h387.072v24.576z" fill="#99CCFF" /><path d="M1007.616 318.464L703.488 571.392l-82.944-67.584v286.72h387.072V318.464z" fill="#99CCFF" /><path d="M398.336 382.976c-27.648-31.744-63.488-48.128-108.544-48.128-47.104 0-86.016 16.384-114.688 50.176s-43.008 77.824-43.008 132.096c0 51.2 14.336 93.184 43.008 125.952s65.536 48.128 110.592 48.128c46.08 0 82.944-16.384 111.616-49.152 28.672-32.768 43.008-77.824 43.008-131.072 0-54.272-13.312-95.232-41.984-128z m-54.272 211.968c-14.336 19.456-33.792 28.672-58.368 28.672-22.528 0-43.008-10.24-57.344-29.696-15.36-19.456-21.504-47.104-21.504-79.872 0-33.792 8.192-60.416 21.504-80.896 14.336-20.48 33.792-30.72 59.392-30.72 23.552 0 43.008 10.24 57.344 29.696 14.336 19.456 20.48 47.104 20.48 82.944 0 33.792-7.168 59.392-21.504 79.872z" fill="#FFFFFF" /></svg>