<svg class="icon" style="width: 1em;height: 1em;vertical-align: middle;fill: currentColor;overflow: hidden;" viewBox="0 0 1024 1024" version="1.1" xmlns="http://www.w3.org/2000/svg"><path d="M46.08 954.368l121.856-226.304c-40.96-67.584-60.416-144.384-60.416-222.208-1.024-240.64 194.56-436.224 435.2-436.224s435.2 194.56 435.2 434.176-194.56 436.224-435.2 436.224c-95.232 0-186.368-29.696-262.144-88.064l-234.496 102.4z m241.664-147.456l9.216 8.192c69.632 56.32 155.648 87.04 244.736 87.04 218.112 0 394.24-178.176 394.24-394.24S760.832 109.568 542.72 109.568 146.432 286.72 146.432 504.832c0 75.776 21.504 148.48 60.416 209.92l7.168 9.216L137.216 870.4l150.528-63.488z" fill="#9666FF" /><path d="M760.832 512L432.128 321.536v380.928L760.832 512z" fill="#9666FF" /></svg>