<svg class="icon" style="width: 1em;height: 1em;vertical-align: middle;fill: currentColor;overflow: hidden;" viewBox="0 0 1024 1024" version="1.1" xmlns="http://www.w3.org/2000/svg"><path d="M46.08 966.656l124.928-232.448c-41.984-69.632-62.464-148.48-62.464-228.352 0-246.784 200.704-447.488 447.488-447.488S1003.52 258.048 1003.52 504.832 803.84 952.32 556.032 952.32c-98.304 0-191.488-30.72-269.312-90.112L46.08 966.656z m247.808-151.552l9.216 8.192c71.68 58.368 159.744 89.088 251.904 89.088 224.256 0 405.504-183.296 405.504-405.504S780.288 99.328 556.032 99.328 149.504 280.576 149.504 504.832c0 77.824 22.528 152.576 62.464 216.064l7.168 9.216L139.264 880.64l154.624-65.536z" fill="#BABABA" /><path d="M780.288 512l-337.92-195.584v391.168z" fill="#BABABA" /></svg>