<svg class="icon" style="width: 1em;height: 1em;vertical-align: middle;fill: currentColor;overflow: hidden;" viewBox="0 0 1024 1024" version="1.1" xmlns="http://www.w3.org/2000/svg"><path d="M937.984 293.888H787.456V144.384l150.528 149.504zM533.504 144.384v545.792h405.504V329.728H751.616V142.336H533.504v2.048zM595.968 0H148.48v106.496h176.128l-111.616 84.992v91.136l162.816-124.928v-51.2h570.368V62.464L595.968 0zM377.856 229.376L215.04 354.304v91.136l162.816-124.928v-91.136z m-164.864 378.88l162.816-124.928v-91.136L212.992 518.144v90.112z m164.864 37.888v-91.136L215.04 680.96v49.152h-64.512v106.496h100.352v71.68h-60.416c-11.264-19.456-30.72-30.72-53.248-30.72-33.792 0-60.416 26.624-60.416 60.416 0 33.792 26.624 60.416 60.416 60.416 22.528 0 41.984-11.264 53.248-30.72h58.368v55.296h91.136v-55.296H399.36c11.264 19.456 30.72 30.72 53.248 30.72 33.792 0 60.416-26.624 60.416-60.416 0-33.792-26.624-60.416-60.416-60.416-22.528 0-41.984 11.264-53.248 30.72h-58.368v-71.68h256l351.232-62.464v-44.032H268.288l109.568-83.968z" fill="#FFCC33" /></svg>