<svg class="icon" style="width: 1em;height: 1em;vertical-align: middle;fill: currentColor;overflow: hidden;" viewBox="0 0 1024 1024" version="1.1" xmlns="http://www.w3.org/2000/svg"><path d="M17.408 888.832V770.048h237.568v237.568H17.408V888.832z m353.28 0V770.048h237.568v237.568H370.688V888.832z m355.328 0V770.048h237.568v237.568H726.016V888.832z m33.792-270.336l-80.896-80.896 80.896-82.944 82.944-80.896 82.944 80.896 80.896 82.944-78.848 80.896-82.944 82.944s-39.936-35.84-84.992-82.944zM17.408 537.6V417.792h237.568V655.36H17.408V537.6z m353.28 0V417.792h237.568V655.36H370.688V537.6z m33.792-272.384l-80.896-82.944 80.896-84.992 82.944-80.896 82.944 80.896 80.896 82.944-80.896 80.896-82.944 82.944s-35.84-33.792-82.944-78.848zM17.408 182.272V63.488h237.568v237.568H17.408V182.272z" fill="#53B7B7" /></svg>