<svg class="icon" style="width: 1em;height: 1em;vertical-align: middle;fill: currentColor;overflow: hidden;" viewBox="0 0 1024 1024" version="1.1" xmlns="http://www.w3.org/2000/svg"><path d="M673.792 551.936L512 476.16l322.56-150.528 161.792 75.776-161.792 75.776c0-1.024-160.768 74.752-160.768 74.752z m160.768-375.808L673.792 100.352 512 176.128l322.56 150.528 161.792-75.776-161.792-74.752zM350.208 400.384l-160.768-75.776-160.768 75.776 322.56 150.528L512 476.16l-161.792-75.776z m0-149.504L512 176.128 350.208 100.352 28.672 250.88l160.768 75.776 160.768-75.776z m484.352 269.312l-144.384 66.56-17.408 8.192-17.408-8.192-143.36-66.56-144.384 66.56-17.408 8.192-17.408-8.192-144.384-66.56v235.52L512 923.648l322.56-167.936v-235.52z" fill="#DCE675" /></svg>