<svg class="icon" style="width: 1em;height: 1em;vertical-align: middle;fill: currentColor;overflow: hidden;" viewBox="0 0 1024 1024" version="1.1" xmlns="http://www.w3.org/2000/svg"><path d="M424.96 30.72c-11.264 0-20.48 8.192-25.6 17.408l-25.6 48.128H196.608c-17.408 0-33.792 14.336-33.792 31.744-2.048 277.504 5.12 552.96 0 829.44 0 17.408 16.384 34.816 33.792 34.816h630.784c17.408 0 33.792-16.384 33.792-33.792v-829.44c0-16.384-16.384-33.792-33.792-33.792H648.192l-25.6-48.128c-7.168-10.24-18.432-16.384-30.72-16.384H424.96zM229.376 163.84h116.736c0 33.792 3.072 65.536 33.792 65.536h266.24c33.792 0 33.792-33.792 33.792-65.536h116.736v761.856H232.448c0-252.928-2.048-507.904-3.072-761.856z m82.944 181.248h398.336v65.536H312.32v-65.536z m0 133.12h398.336v65.536H312.32v-65.536z m0 133.12h398.336v65.536H312.32v-65.536z m0 133.12h266.24v65.536h-266.24v-65.536z" fill="#EFC75E" /></svg>