<svg class="icon" style="width: 1em;height: 1em;vertical-align: middle;fill: currentColor;overflow: hidden;" viewBox="0 0 1024 1024" version="1.1" xmlns="http://www.w3.org/2000/svg"><path d="M23.552 633.22112l252.928 100.352-13.312-369.664-6.144 1.024-233.472 268.288z m271.36-312.32v6.144l367.616-37.888-134.144-237.568-233.472 269.312z m-278.528 346.112l98.304 308.224 174.08-200.704-272.384-107.52z m544.768-626.688l144.384 254.976 174.08-200.704-318.464-54.272z m-241.664 317.44l188.416 163.84 175.104-201.728-363.52 37.888z m-21.504 25.6l13.312 365.568 175.104-201.728-188.416-163.84zM153.6 981.38112l797.696 3.072-631.808-194.56-165.888 191.488z m190.464-220.16l602.112 185.344-434.176-376.832-167.936 191.488z m189.44-217.088l434.176 377.856-267.264-569.344-166.912 191.488z m191.488-220.16l282.624 603.136-116.736-794.624-165.888 191.488z" fill="#D3332E" /></svg>