<svg class="icon" style="width: 1em;height: 1em;vertical-align: middle;fill: currentColor;overflow: hidden;" viewBox="0 0 1024 1024" version="1.1" xmlns="http://www.w3.org/2000/svg"><path d="M184.32 654.336l-49.152 181.248c-1.024 5.12-3.072 9.216-9.216 9.216H34.816c-6.144 0-7.168-2.048-6.144-9.216L204.8 223.232c3.072-11.264 5.12-20.48 6.144-52.224 0-4.096 2.048-6.144 5.12-6.144h129.024c4.096 0 6.144 1.024 7.168 6.144l197.632 664.576c1.024 5.12 0 8.192-5.12 8.192h-102.4c-5.12 0-8.192-4.096-9.216-7.168l-51.2-183.296H184.32zM356.352 552.96c-17.408-68.608-58.368-218.112-73.728-289.792h-1.024c-12.288 72.704-46.08 194.56-70.656 289.792h145.408z m635.904 192.512c0 7.168 1.024 28.672 3.072 63.488 0 4.096-1.024 6.144-4.096 7.168-54.272 20.48-115.712 41.984-191.488 41.984-93.184 0-182.272-35.84-182.272-179.2V352.256c0-5.12 2.048-8.192 7.168-8.192h99.328c5.12 0 7.168 3.072 7.168 8.192V665.6c0 60.416 25.6 93.184 89.088 93.184 25.6 0 47.104-5.12 62.464-11.264V352.256c0-5.12 2.048-8.192 7.168-8.192H983.04c6.144 0 7.168 3.072 7.168 8.192l2.048 393.216z" fill="#00E4BB" /></svg>