<svg class="icon" style="width: 1em;height: 1em;vertical-align: middle;fill: currentColor;overflow: hidden;" viewBox="0 0 1024 1024" version="1.1" xmlns="http://www.w3.org/2000/svg"><path d="M656.384 630.784c3.072-10.24 8.192-20.48 12.288-30.72l56.32-174.08c7.168-22.528 15.36-44.032 28.672-63.488 22.528-30.72 53.248-46.08 89.088-51.2 13.312-2.048 28.672-3.072 43.008-3.072H1024c-2.048 2.048-2.048 5.12-2.048 5.12-15.36 28.672-32.768 56.32-48.128 84.992-28.672 49.152-58.368 99.328-87.04 146.432-18.432 30.72-38.912 61.44-63.488 89.088-17.408 20.48-35.84 40.96-58.368 54.272-15.36 10.24-32.768 15.36-51.2 15.36H512c-20.48 0-37.888-7.168-51.2-20.48-20.48-18.432-33.792-44.032-44.032-69.632-18.432-48.128-28.672-97.28-40.96-146.432-5.12-23.552-12.288-46.08-18.432-69.632 0-2.048-2.048-3.072-2.048-5.12l-5.12 5.12c-25.6 25.6-49.152 54.272-69.632 84.992-5.12 8.192-7.168 18.432-10.24 28.672-12.288 35.84-22.528 73.728-33.792 109.568-12.288 33.792-33.792 61.44-66.56 78.848-20.48 10.24-40.96 15.36-63.488 15.36-32.768 0-64.512 0-97.28 2.048-8.192 0-8.192 0-7.168-8.192 13.312-51.2 30.72-102.4 53.248-150.528 22.528-49.152 49.152-99.328 83.968-141.312 22.528-28.672 48.128-58.368 79.872-78.848 15.36-10.24 33.792-18.432 53.248-20.48H491.52c37.888 0 63.488 15.36 83.968 44.032 12.288 18.432 22.528 38.912 28.672 59.392 15.36 43.008 23.552 84.992 35.84 130.048 7.168 25.6 13.312 49.152 18.432 74.752-5.12 2.048-5.12 3.072-2.048 5.12z" fill="#FF0099" /></svg>