<svg class="icon" style="width: 1em;height: 1em;vertical-align: middle;fill: currentColor;overflow: hidden;" viewBox="0 0 1024 1024" version="1.1" xmlns="http://www.w3.org/2000/svg"><path d="M868.352 868.352S638.976 791.552 512 791.552s-356.352 76.8-356.352 76.8 76.8-254.976 76.8-356.352-76.8-356.352-76.8-356.352 229.376 76.8 356.352 76.8 356.352-76.8 356.352-76.8-75.776 254.976-75.776 356.352 75.776 356.352 75.776 356.352z" fill="#FF9800" /><path d="M995.328 512S786.432 633.856 709.632 709.632 512 995.328 512 995.328 403.456 798.72 314.368 709.632 28.672 512 28.672 512s208.896-121.856 285.696-197.632S512 28.672 512 28.672s121.856 208.896 197.632 285.696S995.328 512 995.328 512z" fill="#FF9800" /><path d="M257.024 512c0 140.288 113.664 254.976 254.976 254.976S766.976 652.288 766.976 512 652.288 257.024 512 257.024 257.024 371.712 257.024 512" fill="#FFEB3B" /><path d="M509.952 252.928c-6.144 0-12.288 0-19.456 1.024 132.096 9.216 235.52 119.808 235.52 253.952 0 134.144-104.448 244.736-235.52 253.952 6.144 0 12.288 1.024 19.456 1.024 140.288 0 254.976-113.664 254.976-254.976 0-140.288-113.664-254.976-254.976-254.976z" fill="#FFCA00" /></svg>