<svg class="icon" style="width: 1em;height: 1em;vertical-align: middle;fill: currentColor;overflow: hidden;" viewBox="0 0 1024 1024" version="1.1" xmlns="http://www.w3.org/2000/svg"><path d="M494.592 17.408H552.96v39.936h-58.368zM983.04 419.84c3.072-31.744 1.024-63.488-8.192-93.184H835.584v-58.368h111.616c-9.216-13.312-19.456-26.624-31.744-38.912L779.264 92.16 757.76 308.224c-5.12 55.296-30.72 106.496-70.656 145.408v95.232h75.776c43.008 0 81.92 15.36 112.64 41.984 43.008-26.624 75.776-66.56 93.184-113.664h-133.12V419.84H983.04zM552.96 57.344v68.608h-58.368V57.344H325.632l24.576 245.76c4.096 44.032 24.576 83.968 57.344 112.64 32.768 29.696 74.752 46.08 117.76 46.08 44.032 0 86.016-16.384 117.76-46.08 32.768-29.696 52.224-69.632 57.344-112.64l24.576-245.76H552.96z m78.848 189.44h-77.824v95.232h-58.368v-95.232h-77.824v-58.368h214.016v58.368z" fill="#BABABA" /><path d="M763.904 607.232H629.76v-112.64c-31.744 16.384-67.584 24.576-104.448 24.576-36.864 0-72.704-8.192-104.448-24.576v112.64H286.72c-62.464 0-112.64 51.2-112.64 112.64v72.704c89.088 14.336 156.672 91.136 156.672 183.296v29.696h363.52v-29.696c0-101.376 81.92-184.32 183.296-185.344v-70.656c-1.024-61.44-51.2-112.64-113.664-112.64z" fill="#BABABA" /><path d="M879.616 848.896c-70.656 0-128 57.344-128 128v29.696H849.92v-78.848h58.368v78.848h98.304v-29.696c1.024-70.656-56.32-128-126.976-128zM291.84 308.224L271.36 92.16 134.144 229.376c-12.288 12.288-22.528 24.576-31.744 38.912h111.616v58.368H75.776c-9.216 29.696-12.288 61.44-8.192 93.184H215.04v58.368H81.92c17.408 47.104 50.176 87.04 93.184 113.664 29.696-26.624 69.632-41.984 112.64-41.984h75.776v-95.232c-40.96-38.912-65.536-90.112-71.68-146.432zM144.384 848.896c-70.656 0-128 57.344-128 128v29.696h98.304v-78.848h58.368v78.848h98.304v-29.696c1.024-70.656-56.32-128-126.976-128z" fill="#BABABA" /></svg>