<svg class="icon" style="width: 1em;height: 1em;vertical-align: middle;fill: currentColor;overflow: hidden;" viewBox="0 0 1024 1024" version="1.1" xmlns="http://www.w3.org/2000/svg"><path d="M947.2 922.624c0 13.312-11.264 24.576-24.576 24.576H101.376c-13.312 0-24.576-11.264-24.576-24.576V101.376c0-13.312 11.264-24.576 24.576-24.576h822.272c13.312 0 24.576 11.264 24.576 24.576v821.248h-1.024z" fill="#BABABA" /><path d="M850.944 608.256c0-13.312-11.264-24.576-24.576-24.576H197.632c-13.312 0-24.576 11.264-24.576 24.576V778.24c0 13.312 11.264 24.576 24.576 24.576h459.776l96.256 96.256v-96.256h72.704c13.312 0 24.576-11.264 24.576-24.576V608.256z" fill="#7C7C7C" /><path d="M294.912 657.408h72.704v72.704h-72.704v-72.704z m120.832 0h72.704v72.704h-72.704v-72.704z m120.832 0h72.704v72.704h-72.704v-72.704z m120.832 0h72.704v72.704h-72.704v-72.704z" fill="#FAFAFA" /></svg>