<svg class="icon" style="width: 1em;height: 1em;vertical-align: middle;fill: currentColor;overflow: hidden;" viewBox="0 0 1024 1024" version="1.1" xmlns="http://www.w3.org/2000/svg"><path d="M912.384 521.216c-12.288-5.12-27.648 0-32.768 12.288-27.648 62.464-70.656 116.736-125.952 158.72L587.776 355.328c25.6-20.48 39.936-49.152 39.936-83.968 0-53.248-36.864-96.256-87.04-105.472V81.92c0-12.288-9.216-25.6-25.6-25.6-12.288 0-25.6 9.216-25.6 25.6v83.968c-49.152 9.216-87.04 54.272-87.04 105.472 0 34.816 14.336 63.488 39.936 83.968L276.48 692.224c-54.272-41.984-98.304-95.232-125.952-158.72-5.12-12.288-20.48-18.432-32.768-12.288-12.288 5.12-18.432 20.48-12.288 32.768 32.768 74.752 83.968 133.12 149.504 180.224l-98.304 198.656c-5.12 12.288 0 27.648 9.216 32.768 2.048 0 7.168 2.048 9.216 2.048 7.168 0 18.432-5.12 21.504-12.288l95.232-193.536c67.584 36.864 138.24 54.272 215.04 54.272s149.504-20.48 215.04-54.272l95.232 193.536c2.048 7.168 12.288 12.288 21.504 12.288 2.048 0 7.168 0 9.216-2.048 12.288-5.12 18.432-20.48 9.216-32.768l-96.256-198.656c63.488-44.032 116.736-109.568 149.504-180.224 16.384-13.312 11.264-27.648 2.048-32.768zM515.072 209.92c34.816 0 62.464 27.648 62.464 62.464s-27.648 62.464-62.464 62.464-62.464-27.648-62.464-62.464 31.744-62.464 62.464-62.464z m0 559.104c-69.632 0-133.12-18.432-193.536-49.152l167.936-338.944c7.168 2.048 18.432 2.048 27.648 2.048s18.432 0 27.648-2.048l169.984 338.944c-62.464 32.768-130.048 49.152-199.68 49.152z" fill="#4992C4" /></svg>