<svg class="icon" style="width: 1em;height: 1em;vertical-align: middle;fill: currentColor;overflow: hidden;" viewBox="0 0 1024 1024" version="1.1" xmlns="http://www.w3.org/2000/svg"><path d="M271.36 356.352L28.672 873.472l46.08 46.08 303.104-303.104c-11.264-24.576-7.168-54.272 13.312-74.752 25.6-25.6 66.56-25.6 93.184 0s25.6 66.56 0 93.184c-20.48 20.48-50.176 24.576-74.752 13.312L106.496 949.248l46.08 46.08 517.12-243.712 109.568-309.248-198.656-197.632-309.248 111.616z m709.632-61.44L729.088 43.008c-20.48-20.48-54.272-20.48-74.752 0L594.944 102.4c-20.48 20.48-20.48 54.272 0 74.752l250.88 250.88c20.48 20.48 54.272 20.48 74.752 0l59.392-59.392c20.48-20.48 20.48-53.248 1.024-73.728z" fill="#FEA500" /></svg>