<svg class="icon" style="width: 1em;height: 1em;vertical-align: middle;fill: currentColor;overflow: hidden;" viewBox="0 0 1024 1024" version="1.1" xmlns="http://www.w3.org/2000/svg"><path d="M814.08 233.472c26.624-9.216 56.32-13.312 84.992-13.312V28.672C769.024 24.576 645.12 82.944 566.272 185.344c-32.768 43.008-61.44 89.088-82.944 139.264l-61.44 152.576c-15.36 46.08-34.816 93.184-56.32 137.216-15.36 36.864-34.816 69.632-58.368 102.4-19.456 26.624-46.08 48.128-75.776 61.44-32.768 15.36-69.632 23.552-106.496 23.552v193.536c130.048 4.096 252.928-54.272 332.8-156.672 25.6-34.816 48.128-71.68 67.584-110.592l52.224-121.856h224.256V415.744H655.36c11.264-28.672 26.624-56.32 44.032-82.944 13.312-23.552 30.72-43.008 50.176-60.416 19.456-17.408 40.96-31.744 64.512-38.912z" fill="#BABABA" /></svg>