<svg class="icon" style="width: 1em;height: 1em;vertical-align: middle;fill: currentColor;overflow: hidden;" viewBox="0 0 1024 1024" version="1.1" xmlns="http://www.w3.org/2000/svg"><path d="M949.248 851.968L629.76 532.48l-9.216-9.216 57.344-59.392 9.216-9.216c74.752 28.672 162.816 12.288 223.232-48.128 45.056-45.056 66.56-105.472 60.416-167.936 0-7.168-5.12-12.288-12.288-16.384-7.168-2.048-14.336 0-19.456 3.072l-101.376 101.376-103.424-26.624L704.512 194.56l101.376-101.376c5.12-5.12 7.168-12.288 3.072-19.456-2.048-7.168-9.216-10.24-16.384-12.288-62.464-5.12-122.88 16.384-167.936 60.416-60.416 60.416-76.8 148.48-48.128 223.232-3.072 2.048-5.12 5.12-9.216 9.216l-83.968 79.872-150.528-149.504-5.12-6.144c2.048-3.072 3.072-7.168 5.12-9.216 31.744 5.12 91.136-57.344 141.312-107.52L327.68 16.384c-66.56 66.56-112.64 108.544-107.52 141.312-14.336 7.168-28.672 16.384-37.888 24.576l-21.504 21.504c-12.288 12.288-21.504 30.72-24.576 48.128-2.048 2.048-3.072 5.12-5.12 7.168l-7.168 9.216s0 2.048-2.048 2.048l-5.12 10.24c-3.072 5.12-9.216 12.288-12.288 17.408-2.048 2.048-3.072 5.12-3.072 7.168v2.048l-3.072 5.12-10.24 21.504v2.048c-3.072 9.216-7.168 19.456-10.24 28.672l-2.048 5.12c-2.048 3.072-2.048 7.168-3.072 10.24l-3.072 14.336c-2.048 9.216-3.072 17.408-3.072 24.576v5.12c-2.048 7.168 0 16.384 0 21.504v21.504l2.048 10.24c0 2.048 0 3.072 2.048 7.168 0 5.12 2.048 9.216 3.072 14.336l7.168 26.624c2.048 7.168 9.216 12.288 17.408 12.288 3.072 0 9.216-2.048 10.24-5.12 2.048-2.048 3.072-5.12 5.12-10.24l3.072-26.624c0-2.048 2.048-5.12 2.048-9.216 0-2.048 2.048-5.12 2.048-7.168l3.072-10.24c0-2.048 2.048-2.048 2.048-3.072 0-2.048 2.048-2.048 2.048-3.072 2.048-2.048 2.048-3.072 2.048-7.168 2.048-3.072 3.072-9.216 5.12-12.288 2.048-2.048 2.048-3.072 3.072-5.12 2.048-5.12 5.12-9.216 7.168-12.288l7.168-9.216c2.048-2.048 3.072-3.072 3.072-5.12l3.072-3.072c3.072-5.12 9.216-9.216 12.288-12.288l2.048-2.048c3.072-3.072 7.168-5.12 10.24-9.216 2.048-2.048 3.072-2.048 5.12-3.072 2.048-2.048 3.072-2.048 5.12-3.072 3.072-2.048 7.168-3.072 10.24-7.168l7.168-3.072 7.168-3.072c3.072-2.048 5.12-2.048 7.168-3.072 2.048 0 3.072-2.048 3.072-2.048 2.048 0 3.072-2.048 3.072-2.048 2.048 0 3.072-2.048 5.12-2.048h2.048c2.048 3.072 5.12 7.168 9.216 10.24L399.36 518.144 80.896 827.392c-38.912 38.912-46.08 98.304-7.168 139.264 38.912 38.912 94.208 30.72 136.192-10.24L495.616 655.36l5.12 5.12 319.488 319.488c35.84 35.84 94.208 35.84 130.048 0 34.816-34.816 34.816-92.16-1.024-128z m-780.288 71.68c-14.336 14.336-38.912 14.336-53.248 0-14.336-14.336-14.336-38.912 0-53.248 14.336-14.336 38.912-14.336 53.248 0 14.336 14.336 14.336 38.912 0 53.248z" fill="#BABABA" /></svg>