<svg class="icon" style="width: 1em;height: 1em;vertical-align: middle;fill: currentColor;overflow: hidden;" viewBox="0 0 1024 1024" version="1.1" xmlns="http://www.w3.org/2000/svg"><path d="M345.088 47.104c-71.68 0-130.048 58.368-130.048 131.072s58.368 130.048 130.048 130.048c22.528 0 41.984-7.168 61.44-15.36l53.248 53.248-149.504 149.504c-26.624 26.624-26.624 66.56 0 93.184l5.12 5.12 303.104-303.104c17.408 10.24 38.912 15.36 61.44 15.36 72.704 0 130.048-58.368 130.048-130.048S752.64 46.08 679.936 46.08s-130.048 58.368-130.048 130.048c0 22.528 7.168 41.984 15.36 61.44L512 290.816l-53.248-53.248c10.24-17.408 15.36-38.912 15.36-61.44 2.048-70.656-58.368-129.024-129.024-129.024z m0 74.752c31.744 0 56.32 24.576 56.32 56.32s-24.576 56.32-56.32 56.32-56.32-24.576-56.32-56.32 24.576-56.32 56.32-56.32z m334.848 0c31.744 0 56.32 24.576 56.32 56.32s-24.576 56.32-56.32 56.32-56.32-24.576-56.32-56.32 24.576-56.32 56.32-56.32zM102.4 381.952c-5.12 0-10.24 0-15.36 2.048s-9.216 2.048-14.336 3.072c-3.072 2.048-9.216 3.072-12.288 7.168-3.072 2.048-7.168 5.12-10.24 9.216-3.072 3.072-5.12 7.168-9.216 10.24-2.048 3.072-5.12 7.168-7.168 12.288v2.048c-2.048 3.072-3.072 9.216-3.072 12.288v2.048c-2.048 5.12-2.048 9.216-2.048 14.336v447.488c0 5.12 0 10.24 2.048 15.36s2.048 9.216 3.072 14.336c2.048 3.072 3.072 9.216 7.168 12.288 2.048 3.072 5.12 7.168 9.216 10.24 3.072 3.072 7.168 5.12 10.24 9.216 3.072 2.048 7.168 5.12 12.288 7.168h2.048c3.072 2.048 9.216 3.072 12.288 3.072h2.048c5.12 2.048 9.216 2.048 14.336 2.048h819.2c5.12 0 10.24 0 15.36-2.048s9.216-2.048 14.336-3.072c3.072-2.048 9.216-3.072 12.288-7.168 3.072-2.048 7.168-5.12 10.24-9.216 3.072-3.072 5.12-7.168 9.216-10.24 2.048-3.072 5.12-7.168 7.168-12.288V931.84c2.048-3.072 3.072-9.216 3.072-12.288v-2.048c2.048-5.12 2.048-9.216 2.048-14.336V456.704c0-5.12 0-10.24-2.048-15.36s-2.048-9.216-3.072-14.336c-2.048-3.072-3.072-9.216-7.168-12.288-2.048-3.072-5.12-7.168-9.216-10.24-3.072-3.072-7.168-5.12-10.24-9.216-3.072-2.048-7.168-5.12-12.288-7.168h-2.048c-3.072-2.048-9.216-3.072-12.288-3.072h-2.048c-5.12-2.048-9.216-2.048-14.336-2.048H623.616l-73.728 73.728h297.984c0 40.96 33.792 73.728 73.728 73.728v297.984c-40.96 0-73.728 33.792-73.728 73.728H178.176c0-40.96-33.792-73.728-73.728-73.728V532.48c40.96 0 73.728-33.792 73.728-73.728h86.016l73.728-73.728H102.4v-3.072zM513.024 532.48c-82.944 0-149.504 75.776-149.504 167.936 0 53.248 22.528 100.352 56.32 130.048h184.32c33.792-29.696 56.32-77.824 56.32-130.048 2.048-94.208-64.512-167.936-147.456-167.936zM215.04 643.072c-21.504 0-36.864 15.36-36.864 36.864S193.536 716.8 215.04 716.8s36.864-15.36 36.864-36.864-17.408-36.864-36.864-36.864z m595.968 0c-21.504 0-36.864 15.36-36.864 36.864s15.36 36.864 36.864 36.864 36.864-15.36 36.864-36.864-16.384-36.864-36.864-36.864z" fill="#B5D38A" opacity=".9" /></svg>