<svg class="icon" style="width: 1em;height: 1em;vertical-align: middle;fill: currentColor;overflow: hidden;" viewBox="0 0 1024 1024" version="1.1" xmlns="http://www.w3.org/2000/svg"><path d="M750.592 487.424c11.264 10.24 26.624 8.192 35.84-2.048 10.24-10.24 10.24-24.576 2.048-34.816v-2.048l-67.584-78.848c-3.072-3.072-5.12-8.192-5.12-11.264l-10.24-149.504c-2.048-13.312-13.312-24.576-26.624-24.576s-24.576 10.24-26.624 22.528v2.048l-11.264 163.84v3.072c0 10.24 3.072 19.456 11.264 27.648l5.12 5.12c2.048 2.048 93.184 78.848 93.184 78.848zM684.032 58.368c-138.24 0-254.976 89.088-296.96 211.968 27.648 3.072 54.272 10.24 78.848 18.432 32.768-87.04 118.784-149.504 217.088-149.504 128 0 233.472 105.472 233.472 233.472 0 116.736-84.992 211.968-197.632 230.4 2.048 14.336 3.072 30.72 3.072 46.08 0 11.264 0 22.528-2.048 34.816 155.648-18.432 276.48-151.552 276.48-312.32 1.024-173.056-140.288-313.344-312.32-313.344z m-54.272 543.744h-40.96c-6.144-32.768-19.456-65.536-39.936-93.184l29.696-27.648c10.24-10.24 10.24-27.648 0-37.888l-27.648-30.72c-10.24-10.24-27.648-10.24-37.888 0L483.328 440.32c-29.696-19.456-60.416-32.768-93.184-39.936v-40.96c0-14.336-11.264-26.624-26.624-26.624h-40.96c-14.336 0-26.624 11.264-26.624 26.624v40.96c-32.768 6.144-65.536 19.456-95.232 39.936l-27.648-27.648c-10.24-10.24-27.648-10.24-37.888 0l-29.696 29.696c-10.24 10.24-10.24 27.648 0 37.888l27.648 27.648c-19.456 29.696-32.768 60.416-39.936 95.232H54.272c-14.336 0-26.624 11.264-26.624 26.624v40.96c0 14.336 11.264 26.624 26.624 26.624h39.936c6.144 32.768 19.456 65.536 39.936 95.232L105.472 819.2c-10.24 10.24-10.24 27.648 0 37.888l29.696 29.696c10.24 10.24 27.648 10.24 37.888 0l27.648-26.624c29.696 19.456 62.464 32.768 95.232 39.936v39.936c0 14.336 11.264 26.624 26.624 26.624h40.96c14.336 0 26.624-11.264 26.624-26.624v-39.936c32.768-6.144 65.536-19.456 95.232-39.936l27.648 27.648c10.24 10.24 27.648 10.24 37.888 0l29.696-29.696c10.24-10.24 10.24-27.648 0-37.888L552.96 792.576c19.456-29.696 32.768-60.416 39.936-95.232h40.96c14.336 0 26.624-11.264 26.624-26.624v-40.96c-5.12-16.384-16.384-27.648-30.72-27.648z m-190.464 143.36c-54.272 52.224-139.264 52.224-193.536 0-54.272-52.224-52.224-139.264 0-193.536 54.272-52.224 139.264-52.224 193.536 0 54.272 53.248 52.224 140.288 0 193.536z" fill="#BABABA" /></svg>