<svg class="icon" style="width: 1em;height: 1em;vertical-align: middle;fill: currentColor;overflow: hidden;" viewBox="0 0 1024 1024" version="1.1" xmlns="http://www.w3.org/2000/svg"><path d="M487.424 582.656c-64.512-63.488-122.88-118.784-155.648-250.88h229.376v-94.208H332.8V109.568h-100.352v130.048H4.096V337.92h234.496s-2.048 17.408-5.12 33.792C199.68 499.712 163.84 580.608 4.096 659.456l33.792 96.256c148.48-79.872 225.28-181.248 260.096-289.792 33.792 83.968 89.088 150.528 150.528 214.016 0-1.024 38.912-97.28 38.912-97.28z m303.104-311.296H660.48L430.08 914.432h100.352L593.92 720.896h261.12l64.512 192.512h100.352c-1.024 1.024-229.376-642.048-229.376-642.048zM627.712 624.64l100.352-256 100.352 258.048c-1.024 0-200.704-2.048-200.704-2.048z" fill="#BABABA" /></svg>