<svg class="icon" style="width: 1em;height: 1em;vertical-align: middle;fill: currentColor;overflow: hidden;" viewBox="0 0 1024 1024" version="1.1" xmlns="http://www.w3.org/2000/svg"><path d="M940.032 788.48c-5.12 21.504-19.456 35.84-35.84 52.224-219.136 228.352-596.992 185.344-754.688-88.064-43.008-73.728-66.56-149.504-64.512-235.52 5.12-105.472 38.912-198.656 105.472-281.6 78.848-100.352 178.176-166.912 307.2-187.392 30.72-5.12 61.44-7.168 93.184-12.288v88.064l-64.512 7.168c-180.224 26.624-332.8 178.176-345.088 354.304C174.08 594.944 202.752 693.248 276.48 778.24c28.672 35.84 61.44 66.56 102.4 86.016 12.288 5.12 26.624 7.168 37.888 9.216C303.104 806.912 237.568 706.56 215.04 578.56c-14.336-86.016 2.048-168.96 51.2-242.688 120.832-187.392 332.8-219.136 478.208-156.672-12.288 26.624-23.552 52.224-35.84 75.776-28.672-5.12-57.344-14.336-86.016-14.336-82.944-5.12-156.672 14.336-219.136 73.728-156.672 145.408-116.736 368.64 35.84 466.944 47.104 33.792 100.352 57.344 156.672 68.608 14.336 5.12 28.672 0 45.056-2.048-2.048-2.048-5.12-2.048-7.168-2.048-71.68-14.336-138.24-37.888-194.56-88.064s-99.328-111.616-106.496-190.464c-8.192-110.592 35.84-200.704 131.072-258.048 82.944-52.224 171.008-52.224 259.072-9.216 50.176 23.552 86.016 61.44 113.664 109.568-26.624 14.336-50.176 26.624-73.728 37.888-21.504-21.504-39.936-45.056-64.512-59.392-111.616-75.776-267.264-5.12-280.576 135.168-5.12 68.608 23.552 120.832 71.68 168.96 57.344 52.224 125.952 71.68 201.728 80.896 73.728 9.216 147.456 7.168 221.184-2.048 14.336-2.048 21.504 7.168 26.624 19.456 1.024-3.072 1.024-2.048 1.024-2.048z" fill="#8383A6" /></svg>