<svg class="icon" style="width: 1em;height: 1em;vertical-align: middle;fill: currentColor;overflow: hidden;" viewBox="0 0 1024 1024" version="1.1" xmlns="http://www.w3.org/2000/svg"><path d="M940.032 35.84H197.632c-9.216 0-19.456 9.216-19.456 19.456V112.64c0 9.216 9.216 19.456 19.456 19.456h695.296v695.296c0 9.216 9.216 19.456 19.456 19.456h57.344c9.216 0 19.456-9.216 19.456-19.456V82.944c-1.024-27.648-20.48-47.104-49.152-47.104zM778.24 226.304H55.296c-9.216 0-19.456 9.216-19.456 19.456v723.968c0 9.216 9.216 19.456 19.456 19.456H778.24c9.216 0 19.456-9.216 19.456-19.456V245.76c0-10.24-9.216-19.456-19.456-19.456zM368.64 873.472c0 9.216-9.216 19.456-19.456 19.456H150.528c-9.216 0-19.456-9.216-19.456-19.456v-57.344c0-9.216 9.216-19.456 19.456-19.456h199.68c9.216 0 19.456 9.216 19.456 19.456v57.344z m0-190.464c0 9.216-9.216 19.456-19.456 19.456H150.528c-9.216 0-19.456-9.216-19.456-19.456v-57.344c0-9.216 9.216-19.456 19.456-19.456h199.68c9.216 0 19.456 9.216 19.456 19.456v57.344z m333.824 190.464c0 9.216-9.216 19.456-19.456 19.456H483.328c-9.216 0-19.456-9.216-19.456-19.456v-57.344c0-9.216 9.216-19.456 19.456-19.456h199.68c9.216 0 19.456 9.216 19.456 19.456v57.344z m0-190.464c0 9.216-9.216 19.456-19.456 19.456H483.328c-9.216 0-19.456-9.216-19.456-19.456v-57.344c0-9.216 9.216-19.456 19.456-19.456h199.68c9.216 0 19.456 9.216 19.456 19.456v57.344z m0-190.464c0 9.216-9.216 19.456-19.456 19.456h-532.48c-9.216 0-19.456-9.216-19.456-19.456V340.992c0-9.216 9.216-19.456 19.456-19.456h533.504c9.216 0 19.456 9.216 19.456 19.456v151.552z" fill="#BABABA" /></svg>