<svg class="icon" style="width: 1em;height: 1em;vertical-align: middle;fill: currentColor;overflow: hidden;" viewBox="0 0 1024 1024" version="1.1" xmlns="http://www.w3.org/2000/svg"><path d="M28.672 233.472h108.544l121.856 363.52c11.264 31.744 20.48 81.92 20.48 81.92h2.048s9.216-49.152 20.48-81.92l122.88-363.52h108.544L331.776 790.528h-100.352L28.672 233.472z m575.488 0h198.656c100.352 0 171.008 51.2 171.008 144.384 0 51.2-25.6 96.256-67.584 118.784v2.048c60.416 17.408 89.088 74.752 89.088 131.072 0 111.616-89.088 161.792-191.488 161.792H604.16V233.472zM803.84 460.8c43.008 0 68.608-31.744 68.608-71.68s-23.552-68.608-70.656-68.608H706.56V460.8h97.28z m9.216 242.688c51.2 0 79.872-33.792 79.872-79.872s-30.72-79.872-79.872-79.872H704.512v159.744h108.544z" fill="#FF0099" /></svg>