<svg class="icon" style="width: 1em;height: 1em;vertical-align: middle;fill: currentColor;overflow: hidden;" viewBox="0 0 1024 1024" version="1.1" xmlns="http://www.w3.org/2000/svg"><path d="M347.252723 575.722558C317.577748 599.257883 287.902773 621.769934 256.181248 645.305259L77.108121 783.447385c-8.1862 6.13965-14.32585 6.13965-23.535325 2.04655-12.2793-8.1862-25.581875-14.32585-37.861176-19.442225-6.13965-4.0931-10.23275-8.1862-10.23275-16.3724V273.85643c0-6.13965 4.0931-12.2793 10.23275-16.3724 14.32585-8.1862 27.628425-14.32585 41.954276-21.488775 8.1862-4.0931 14.32585 0 19.442225 4.0931 50.140475 37.861175 99.257676 75.722351 147.351601 113.583526 39.907725 31.721525 81.862001 61.396501 121.769726 93.118026l8.186201-8.1862C501.76725 295.345206 649.118851 150.040154 798.517003 6.781653c8.1862-8.1862 14.32585-8.1862 23.535325-4.0931 61.396501 25.581875 124.839551 50.140475 187.259327 75.72235 4.0931 2.04655 8.1862 8.1862 10.23275 14.325851 2.04655 4.0931 0 8.1862 0 12.2793v817.596732c0 19.442225 0 19.442225-19.442225 27.628426l-179.073127 71.62925c-10.23275 4.0931-17.395675 2.04655-25.581875-4.0931-141.211951-145.305051-286.517003-288.563553-433.868604-429.775504-6.13965-4.0931-8.1862-8.1862-14.325851-12.2793z m425.682404 129.955926V315.810706c-86.978376 65.489601-172.933477 128.932651-259.911852 194.422252 86.978376 65.489601 172.933477 129.955926 259.911852 195.445526zM228.552822 510.232958c-44.000825-39.907725-85.955101-77.768901-128.932651-115.630077v232.283428c42.97755-38.88445 84.931826-76.745626 128.932651-116.653351z" fill="#BABABA" /></svg>