<svg class="icon" style="width: 1em;height: 1em;vertical-align: middle;fill: currentColor;overflow: hidden;" viewBox="0 0 1024 1024" version="1.1" xmlns="http://www.w3.org/2000/svg"><path d="M452.608 510.976c0 15.36 6.144 30.72 17.408 41.984 23.552 23.552 61.44 23.552 84.992 0 11.264-11.264 17.408-26.624 17.408-41.984s-6.144-30.72-17.408-41.984c-11.264-11.264-26.624-17.408-41.984-17.408s-30.72 6.144-41.984 17.408-18.432 26.624-18.432 41.984zM169.984 168.96C-19.456 358.4-19.456 663.552 169.984 852.992s494.592 189.44 684.032 0 189.44-494.592 0-684.032c-189.44-187.392-494.592-187.392-684.032 0z m714.752 544.768c-17.408 32.768-40.96 61.44-67.584 89.088-26.624 26.624-58.368 50.176-89.088 67.584L616.448 656.384s9.216-4.096 30.72-23.552c21.504-21.504 25.6-30.72 25.6-30.72l211.968 111.616zM596.992 425.984c23.552 23.552 34.816 54.272 34.816 84.992s-11.264 61.44-34.816 84.992c-46.08 46.08-123.904 46.08-169.984 0-23.552-23.552-34.816-54.272-34.816-84.992s11.264-61.44 34.816-84.992c45.056-47.104 119.808-48.128 166.912-3.072l3.072 3.072z m-163.84-84.992s-23.552 13.312-41.984 34.816c-17.408 19.456-19.456 23.552-25.6 32.768L152.576 294.912c17.408-32.768 40.96-61.44 67.584-89.088 26.624-26.624 58.368-50.176 89.088-67.584l123.904 202.752z" fill="#E6EE9B" /></svg>