<svg class="icon" style="width: 1em;height: 1em;vertical-align: middle;fill: currentColor;overflow: hidden;" viewBox="0 0 1024 1024" version="1.1" xmlns="http://www.w3.org/2000/svg"><path d="M920.576 310.272H103.424c-48.128 0-87.04 38.912-87.04 87.04v522.24c0 48.128 38.912 87.04 87.04 87.04h817.152c48.128 0 87.04-38.912 87.04-87.04v-522.24c0-48.128-38.912-87.04-87.04-87.04z" fill="#FF4B00" /><path d="M1007.616 397.312v522.24c0 48.128-38.912 87.04-87.04 87.04H512v-696.32h408.576c48.128 0 87.04 38.912 87.04 87.04z" fill="#DD3400" /><path d="M103.424 949.248c-16.384 0-28.672-13.312-28.672-28.672v-522.24c0-16.384 13.312-28.672 28.672-28.672h817.152c16.384 0 28.672 13.312 28.672 28.672v522.24c0 16.384-13.312 28.672-28.672 28.672H103.424z" fill="#EDE9E8" /><path d="M920.576 368.64H512v580.608h408.576c16.384 0 28.672-13.312 28.672-28.672v-522.24c0-16.384-12.288-29.696-28.672-29.696z" fill="#DFD7D5" /><path d="M453.632 891.904H163.84c-16.384 0-28.672-13.312-28.672-28.672v-28.672c0-96.256 77.824-174.08 174.08-174.08s174.08 77.824 174.08 174.08v28.672c0 15.36-13.312 28.672-29.696 28.672zM308.224 659.456c-64.512 0-115.712-52.224-115.712-115.712s52.224-115.712 115.712-115.712 116.736 51.2 116.736 114.688-52.224 116.736-116.736 116.736z" fill="#7984EB" /><path d="M862.208 833.536H570.368c-16.384 0-28.672-13.312-28.672-28.672 0-16.384 13.312-28.672 28.672-28.672h291.84c16.384 0 28.672 13.312 28.672 28.672 1.024 15.36-12.288 28.672-28.672 28.672z m0-116.736H570.368c-16.384 0-28.672-13.312-28.672-28.672 0-16.384 13.312-28.672 28.672-28.672h291.84c16.384 0 28.672 13.312 28.672 28.672 1.024 16.384-12.288 28.672-28.672 28.672z m-58.368-115.712H627.712c-16.384 0-28.672-13.312-28.672-28.672 0-16.384 13.312-28.672 28.672-28.672h176.128c16.384 0 28.672 13.312 28.672 28.672 1.024 15.36-12.288 28.672-28.672 28.672z" fill="#979FEF" /><path d="M396.288 248.832c-7.168 0-15.36-3.072-20.48-8.192l-174.08-174.08c-11.264-11.264-11.264-29.696 0-40.96s29.696-11.264 40.96 0l174.08 174.08c11.264 11.264 11.264 29.696 0 40.96-6.144 5.12-13.312 8.192-20.48 8.192z" fill="#00607F" /><path d="M627.712 248.832c-7.168 0-15.36-3.072-20.48-8.192-11.264-11.264-11.264-29.696 0-40.96l174.08-174.08c11.264-11.264 29.696-11.264 40.96 0s11.264 29.696 0 40.96l-174.08 174.08c-5.12 5.12-12.288 8.192-20.48 8.192z" fill="#00465F" /><path d="M652.288 202.752c-6.144-7.168-14.336-12.288-23.552-12.288H396.288c-9.216 0-18.432 5.12-23.552 12.288-5.12 7.168-7.168 17.408-3.072 26.624l58.368 178.176c3.072 11.264 14.336 19.456 27.648 19.456h115.712c12.288 0 23.552-8.192 27.648-19.456L655.36 229.376c4.096-9.216 2.048-19.456-3.072-26.624z" fill="#979FEF" /><path d="M655.36 229.376l-58.368 178.176c-3.072 11.264-14.336 19.456-27.648 19.456H512V190.464h115.712c9.216 0 18.432 5.12 23.552 12.288 6.144 7.168 8.192 17.408 4.096 26.624z" fill="#7984EB" /></svg>