<svg class="icon" style="width: 1em;height: 1em;vertical-align: middle;fill: currentColor;overflow: hidden;" viewBox="0 0 1024 1024" version="1.1" xmlns="http://www.w3.org/2000/svg"><path d="M442.368 356.352l159.744 105.472V91.136L442.368 197.632v-53.248c0-29.696-23.552-53.248-53.248-53.248H69.632c-29.696 0-53.248 23.552-53.248 53.248v266.24c0 29.696 23.552 53.248 53.248 53.248h318.464c29.696 0 53.248-23.552 53.248-53.248v-54.272h1.024z m246.784 98.304V614.4c0 59.392 48.128 105.472 105.472 105.472 59.392 0 105.472-48.128 105.472-105.472V454.656c0-59.392-48.128-105.472-105.472-105.472s-105.472 47.104-105.472 105.472z" fill="#CC66FF" /><path d="M954.368 614.4c0 88.064-70.656 159.744-159.744 159.744S633.856 703.488 633.856 614.4h-53.248c0 99.328 67.584 181.248 159.744 204.8v113.664h105.472V819.2c91.136-23.552 159.744-105.472 159.744-204.8h-51.2z" fill="#CC66FF" /></svg>