<svg class="icon" style="width: 1em;height: 1em;vertical-align: middle;fill: currentColor;overflow: hidden;" viewBox="0 0 1024 1024" version="1.1" xmlns="http://www.w3.org/2000/svg"><path d="M631.808 72.704h356.352v56.32H631.808V72.704z m0 202.752h356.352v55.296H631.808v-55.296z m0 205.824h356.352v56.32H631.808V481.28zM35.84 690.176h952.32v56.32h-952.32v-56.32z m0 204.8h952.32v56.32h-952.32v-56.32z" fill="#4C97F7" /><path d="M197.632 258.048L78.848 508.928 101.376 532.48l147.456-147.456c-5.12-12.288-3.072-26.624 6.144-36.864 12.288-12.288 32.768-12.288 45.056 0 12.288 12.288 12.288 32.768 0 45.056-10.24 10.24-24.576 11.264-35.84 6.144L116.736 546.816l22.528 22.528L391.168 450.56l53.248-150.528-96.256-96.256-150.528 54.272zM542.72 228.352l-122.88-122.88c-10.24-10.24-26.624-10.24-35.84 0l-28.672 28.672c-10.24 10.24-10.24 26.624 0 35.84l121.856 121.856c10.24 10.24 26.624 10.24 35.84 0l28.672-28.672c10.24-9.216 10.24-25.6 1.024-34.816z" fill="#4C97F7" /></svg>