<svg class="icon" style="width: 1em;height: 1em;vertical-align: middle;fill: currentColor;overflow: hidden;" viewBox="0 0 1024 1024" version="1.1" xmlns="http://www.w3.org/2000/svg"><path d="M883.712 349.184c-13.312-22.528-24.576-45.056-38.912-66.56-30.72-45.056-70.656-81.92-117.76-110.592-18.432-11.264-37.888-20.48-57.344-29.696-2.048-1.024-5.12-1.024-8.192-2.048C768 239.616 815.104 358.4 798.72 501.76c-16.384-48.128-43.008-90.112-83.968-120.832 55.296 96.256 53.248 190.464-13.312 278.528-64.512 84.992-153.6 110.592-257.024 84.992 8.192-2.048 16.384-3.072 24.576-6.144 58.368-20.48 97.28-59.392 114.688-117.76 6.144-20.48 10.24-40.96 4.096-61.44-5.12-17.408-26.624-31.744-41.984-29.696-27.648 4.096-39.936 19.456-40.96 40.96-2.048 33.792-14.336 61.44-45.056 78.848-32.768 19.456-72.704 16.384-102.4-10.24-18.432-16.384-29.696-36.864-29.696-61.44-1.024-36.864 15.36-63.488 49.152-79.872 27.648-14.336 54.272-30.72 83.968-48.128-16.384-14.336-32.768-27.648-50.176-43.008 38.912-31.744 76.8-63.488 115.712-96.256-10.24-2.048-18.432-4.096-27.648-6.144-30.72-6.144-60.416-11.264-91.136-17.408-9.216-2.048-17.408-3.072-26.624-5.12-2.048-1.024-6.144-4.096-6.144-6.144-3.072-18.432-6.144-36.864-8.192-54.272-3.072-24.576-7.168-49.152-10.24-76.8-18.432 28.672-35.84 54.272-53.248 81.92-33.792-12.288-68.608-15.36-105.472-6.144-5.12-13.312-10.24-27.648-15.36-40.96-1.024-2.048 2.048-6.144 4.096-7.168 16.384-13.312 31.744-27.648 48.128-39.936 43.008-31.744 91.136-55.296 143.36-69.632 27.648-8.192 56.32-15.36 86.016-16.384 1.024 0 36.864-2.048 37.888-2.048 40.96 0 54.272 2.048 56.32 2.048 19.456 3.072 39.936 5.12 59.392 9.216 46.08 10.24 91.136 27.648 132.096 52.224 21.504 13.312 44.032 24.576 59.392 48.128 27.648 44.032 50.176 90.112 63.488 140.288 4.096 16.384 8.192 31.744 12.288 48.128-1.024 0-1.024 3.072-1.024 5.12z" fill="#93CFE5" /><path d="M474.112 321.536l2.048 2.048c12.288 24.576-8.192 32.768-21.504 44.032-12.288 11.264-25.6 21.504-38.912 32.768-1.024 1.024-3.072 2.048-7.168 3.072v-32.768c0-9.216-3.072-17.408-3.072-26.624 0-3.072 2.048-8.192 5.12-9.216 20.48-5.12 41.984-9.216 63.488-13.312z m21.504 250.88c4.096-34.816 29.696-51.2 52.224-49.152 27.648 3.072 47.104 18.432 48.128 49.152h-100.352z" fill="#FEF7CE" /><path d="M40.96 466.944c1.024-8.192 3.072-15.36 4.096-23.552 5.12-40.96 17.408-80.896 32.768-118.784 17.408-41.984 34.816-83.968 53.248-126.976 9.216-23.552 19.456-47.104 28.672-70.656 1.024-2.048 2.048-4.096 5.12-9.216 11.264 35.84 22.528 69.632 32.768 103.424 36.864-10.24 72.704-8.192 108.544 6.144 16.384-25.6 32.768-51.2 51.2-78.848 3.072 24.576 6.144 46.08 9.216 67.584 3.072 20.48 5.12 40.96 8.192 60.416 0 2.048 5.12 5.12 8.192 5.12 25.6 5.12 52.224 10.24 77.824 14.336 7.168 1.024 12.288 4.096 12.288 12.288 0 3.072 1.024 5.12 2.048 9.216-23.552 5.12-47.104 10.24-69.632 15.36 2.048 17.408 4.096 35.84 6.144 53.248v3.072c-6.144 12.288 2.048 19.456 10.24 26.624 12.288 10.24 23.552 20.48 35.84 30.72-31.744 18.432-64.512 36.864-96.256 56.32-18.432 10.24-26.624 28.672-31.744 47.104-8.192 32.768 1.024 62.464 24.576 84.992 25.6 24.576 56.32 31.744 90.112 21.504 33.792-11.264 53.248-35.84 60.416-70.656V573.44h80.896c5.12 71.68-57.344 159.744-152.576 167.936 69.632 27.648 164.864 11.264 230.4-40.96 78.848-63.488 122.88-193.536 56.32-310.272 28.672 19.456 62.464 67.584 76.8 118.784 18.432-142.336-23.552-263.168-126.976-361.472 100.352 43.008 171.008 115.712 215.04 216.064-7.168-64.512-25.6-131.072-75.776-212.992 10.24 8.192 20.48 16.384 29.696 25.6 11.264 10.24 22.528 20.48 32.768 32.768 33.792 39.936 62.464 82.944 79.872 133.12 11.264 31.744 19.456 63.488 26.624 96.256 4.096 17.408 4.096 34.816 4.096 52.224 1.024 13.312 0 26.624 0 39.936 0 38.912-7.168 76.8-17.408 113.664-16.384 58.368-45.056 111.616-81.92 159.744-27.648 35.84-60.416 65.536-97.28 92.16-39.936 27.648-82.944 50.176-130.048 63.488-28.672 8.192-58.368 12.288-88.064 18.432-12.288 2.048-24.576 3.072-37.888 4.096h-34.816c-1.024-1.024-3.072-2.048-4.096-2.048-21.504-2.048-41.984-3.072-63.488-6.144-43.008-6.144-82.944-19.456-121.856-37.888-36.864-17.408-70.656-38.912-101.376-66.56-25.6-22.528-50.176-47.104-70.656-73.728-22.528-29.696-41.984-62.464-56.32-96.256-15.36-38.912-26.624-77.824-31.744-119.808-1.024-8.192-3.072-15.36-4.096-23.552v-89.088z" fill="#EF8043" /><path d="M535.552 300.032c-22.528 18.432-41.984 34.816-63.488 52.224-6.144-21.504-11.264-41.984-18.432-67.584 26.624 5.12 52.224 10.24 81.92 15.36z"  /></svg>